<?xml version="1.0" encoding="utf-8" standalone="no"?>
<!DOCTYPE svg PUBLIC "-//W3C//DTD SVG 1.1//EN"
  "http://www.w3.org/Graphics/SVG/1.1/DTD/svg11.dtd">
<svg xmlns:xlink="http://www.w3.org/1999/xlink" width="504pt" height="360pt" viewBox="0 0 504 360" xmlns="http://www.w3.org/2000/svg" version="1.1">
 <metadata>
  <rdf:RDF xmlns:dc="http://purl.org/dc/elements/1.1/" xmlns:cc="http://creativecommons.org/ns#" xmlns:rdf="http://www.w3.org/1999/02/22-rdf-syntax-ns#">
   <cc:Work>
    <dc:type rdf:resource="http://purl.org/dc/dcmitype/StillImage"/>
    <dc:date>2023-12-13T14:06:56.968901</dc:date>
    <dc:format>image/svg+xml</dc:format>
    <dc:creator>
     <cc:Agent>
      <dc:title>Matplotlib v3.7.1, https://matplotlib.org/</dc:title>
     </cc:Agent>
    </dc:creator>
   </cc:Work>
  </rdf:RDF>
 </metadata>
 <defs>
  <style type="text/css">*{stroke-linejoin: round; stroke-linecap: butt}</style>
 </defs>
 <g id="figure_1">
  <g id="patch_1">
   <path d="M 0 360 
L 504 360 
L 504 0 
L 0 0 
z
" style="fill: #ffffff"/>
  </g>
  <g id="axes_1">
   <g id="patch_2">
    <path d="M 68.64 302.448 
L 439.36 302.448 
L 439.36 10.8 
L 68.64 10.8 
z
" style="fill: #ffffff"/>
   </g>
   <g id="PolyCollection_1">
    <defs>
     <path id="mec306b5f52" d="M 85.490909 -335.943273 
L 85.490909 -335.94326 
L 86.61806 -335.943249 
L 87.745211 -335.943236 
L 88.872362 -335.943222 
L 89.999514 -335.943207 
L 91.126665 -335.943189 
L 92.253816 -335.94317 
L 93.380967 -335.943148 
L 94.508118 -335.943124 
L 95.635269 -335.943097 
L 96.76242 -335.943068 
L 97.889571 -335.943035 
L 99.016722 -335.942998 
L 100.143874 -335.942956 
L 101.271025 -335.942911 
L 102.398176 -335.942859 
L 103.525327 -335.942803 
L 104.652478 -335.942739 
L 105.779629 -335.942669 
L 106.90678 -335.94259 
L 108.033931 -335.942503 
L 109.161082 -335.942405 
L 110.288234 -335.942297 
L 111.415385 -335.942176 
L 112.542536 -335.942041 
L 113.669687 -335.941891 
L 114.796838 -335.941724 
L 115.923989 -335.941538 
L 117.05114 -335.941331 
L 118.178291 -335.9411 
L 119.305442 -335.940843 
L 120.432593 -335.940557 
L 121.559745 -335.940239 
L 122.686896 -335.939884 
L 123.814047 -335.939489 
L 124.941198 -335.939049 
L 126.068349 -335.938559 
L 127.1955 -335.938013 
L 128.322651 -335.937405 
L 129.449802 -335.936729 
L 130.576953 -335.935975 
L 131.704105 -335.935136 
L 132.831256 -335.934202 
L 133.958407 -335.933162 
L 135.085558 -335.932003 
L 136.212709 -335.930714 
L 137.33986 -335.929278 
L 138.467011 -335.927679 
L 139.594162 -335.925899 
L 140.721313 -335.923917 
L 141.848465 -335.921711 
L 142.975616 -335.919254 
L 144.102767 -335.91652 
L 145.229918 -335.913476 
L 146.357069 -335.910087 
L 147.48422 -335.906315 
L 148.611371 -335.902117 
L 149.738522 -335.897444 
L 150.865673 -335.892243 
L 151.992825 -335.886454 
L 153.119976 -335.880012 
L 154.247127 -335.872844 
L 155.374278 -335.864867 
L 156.501429 -335.855991 
L 157.62858 -335.846115 
L 158.755731 -335.835128 
L 159.882882 -335.822906 
L 161.010033 -335.80931 
L 162.137185 -335.794188 
L 163.264336 -335.777369 
L 164.391487 -335.758666 
L 165.518638 -335.73787 
L 166.645789 -335.714748 
L 167.77294 -335.689044 
L 168.900091 -335.660474 
L 170.027242 -335.628721 
L 171.154393 -335.593438 
L 172.281545 -335.554239 
L 173.408696 -335.510695 
L 174.535847 -335.462335 
L 175.662998 -335.408638 
L 176.790149 -335.349027 
L 177.9173 -335.282868 
L 179.044451 -335.20946 
L 180.171602 -335.128033 
L 181.298753 -335.037736 
L 182.425905 -334.937638 
L 183.553056 -334.826715 
L 184.680207 -334.703842 
L 185.807358 -334.56779 
L 186.934509 -334.417213 
L 188.06166 -334.250643 
L 189.188811 -334.066479 
L 190.315962 -333.862979 
L 191.443113 -333.638256 
L 192.570265 -333.390262 
L 193.697416 -333.11679 
L 194.824567 -332.815461 
L 195.951718 -332.483724 
L 197.078869 -332.118852 
L 198.20602 -331.717938 
L 199.333171 -331.277904 
L 200.460322 -330.795503 
L 201.587473 -330.267327 
L 202.714625 -329.689828 
L 203.841776 -329.059335 
L 204.968927 -328.37208 
L 206.096078 -327.624235 
L 207.223229 -326.81195 
L 208.35038 -325.931407 
L 209.477531 -324.978873 
L 210.604682 -323.950766 
L 211.731833 -322.843728 
L 212.858984 -321.654705 
L 213.986136 -320.381026 
L 215.113287 -319.020492 
L 216.240438 -317.571458 
L 217.367589 -316.032915 
L 218.49474 -314.404562 
L 219.621891 -312.686872 
L 220.749042 -310.881133 
L 221.876193 -308.989479 
L 223.003344 -307.014891 
L 224.130496 -304.96118 
L 225.257647 -302.832935 
L 226.384798 -300.635453 
L 227.511949 -298.374641 
L 228.6391 -296.056897 
L 229.766251 -293.688975 
L 230.893402 -291.277837 
L 232.020553 -288.830506 
L 233.147704 -286.353917 
L 234.274856 -283.854778 
L 235.402007 -281.339448 
L 236.529158 -278.813829 
L 237.656309 -276.283283 
L 238.78346 -273.752573 
L 239.910611 -271.225826 
L 241.037762 -268.706517 
L 242.164913 -266.197481 
L 243.292064 -263.700933 
L 244.419216 -261.218508 
L 245.546367 -258.751317 
L 246.673518 -256.300005 
L 247.800669 -253.864819 
L 248.92782 -251.445682 
L 250.054971 -249.042263 
L 251.182122 -246.654048 
L 252.309273 -244.280411 
L 253.436424 -241.920672 
L 254.563576 -239.574158 
L 255.690727 -237.240238 
L 256.817878 -234.918369 
L 257.945029 -232.608113 
L 259.07218 -230.309149 
L 260.199331 -228.021278 
L 261.326482 -225.744404 
L 262.453633 -223.47852 
L 263.580784 -221.223672 
L 264.707936 -218.979928 
L 265.835087 -216.747334 
L 266.962238 -214.525878 
L 268.089389 -212.315452 
L 269.21654 -210.115823 
L 270.343691 -207.926616 
L 271.470842 -205.747303 
L 272.597993 -203.577209 
L 273.725144 -201.415532 
L 274.852296 -199.261369 
L 275.979447 -197.113754 
L 277.106598 -194.971696 
L 278.233749 -192.834223 
L 279.3609 -190.700417 
L 280.488051 -188.569446 
L 281.615202 -186.440583 
L 282.742353 -184.313213 
L 283.869504 -182.18683 
L 284.996656 -180.061021 
L 286.123807 -177.93544 
L 287.250958 -175.809772 
L 288.378109 -173.683703 
L 289.50526 -171.556876 
L 290.632411 -169.428863 
L 291.759562 -167.29914 
L 292.886713 -165.167068 
L 294.013864 -163.031893 
L 295.141016 -160.892756 
L 296.268167 -158.748708 
L 297.395318 -156.598746 
L 298.522469 -154.441847 
L 299.64962 -152.277011 
L 300.776771 -150.103305 
L 301.903922 -147.919902 
L 303.031073 -145.726122 
L 304.158224 -143.521464 
L 305.285375 -141.305634 
L 306.412527 -139.078573 
L 307.539678 -136.840478 
L 308.666829 -134.591827 
L 309.79398 -132.333406 
L 310.921131 -130.066337 
L 312.048282 -127.792117 
L 313.175433 -125.512655 
L 314.302584 -123.230318 
L 315.429735 -120.947977 
L 316.556887 -118.669041 
L 317.684038 -116.397484 
L 318.811189 -114.137855 
L 319.93834 -111.895247 
L 321.065491 -109.675241 
L 322.192642 -107.483808 
L 323.319793 -105.327163 
L 324.446944 -103.211595 
L 325.574095 -101.143267 
L 326.701247 -99.128013 
L 327.828398 -97.171146 
L 328.955549 -95.277296 
L 330.0827 -93.450297 
L 331.209851 -91.69313 
L 332.337002 -90.007931 
L 333.464153 -88.396051 
L 334.591304 -86.858164 
L 335.718455 -85.394413 
L 336.845607 -84.004561 
L 337.972758 -82.688146 
L 339.099909 -81.444615 
L 340.22706 -80.273432 
L 341.354211 -79.174148 
L 342.481362 -78.146438 
L 343.608513 -77.190096 
L 344.735664 -76.304995 
L 345.862815 -75.491027 
L 346.989967 -74.748009 
L 348.117118 -74.075585 
L 349.244269 -73.473122 
L 350.37142 -72.939608 
L 351.498571 -72.473564 
L 352.625722 -72.072982 
L 353.752873 -71.735282 
L 354.880024 -71.457312 
L 356.007175 -71.235372 
L 357.134327 -71.06528 
L 358.261478 -70.942462 
L 359.388629 -70.862079 
L 360.51578 -70.819154 
L 361.642931 -70.808727 
L 362.770082 -70.82599 
L 363.897233 -70.866419 
L 365.024384 -70.925881 
L 366.151535 -71.000706 
L 367.278687 -71.087724 
L 368.405838 -71.184268 
L 369.532989 -71.28813 
L 370.66014 -71.397495 
L 371.787291 -71.510851 
L 372.914442 -71.62689 
L 374.041593 -71.744413 
L 375.168744 -71.862256 
L 376.295895 -71.979234 
L 377.423047 -72.094125 
L 378.550198 -72.205676 
L 379.677349 -72.312641 
L 380.8045 -72.413834 
L 381.931651 -72.508191 
L 383.058802 -72.594832 
L 384.185953 -72.673107 
L 385.313104 -72.742632 
L 386.440255 -72.8033 
L 387.567407 -72.855274 
L 388.694558 -72.898957 
L 389.821709 -72.934953 
L 390.94886 -72.964014 
L 392.076011 -72.986982 
L 393.203162 -73.004741 
L 394.330313 -73.018161 
L 395.457464 -73.028065 
L 396.584615 -73.035195 
L 397.711766 -73.040198 
L 398.838918 -73.043615 
L 399.966069 -73.045884 
L 401.09322 -73.047347 
L 402.220371 -73.048261 
L 403.347522 -73.048814 
L 404.474673 -73.049138 
L 405.601824 -73.049321 
L 406.728975 -73.04942 
L 407.856126 -73.049471 
L 408.983278 -73.049497 
L 410.110429 -73.04951 
L 411.23758 -73.049515 
L 412.364731 -73.049518 
L 413.491882 -73.049519 
L 414.619033 -73.049519 
L 415.746184 -73.049519 
L 416.873335 -73.049519 
L 418.000486 -73.049519 
L 419.127638 -73.049519 
L 420.254789 -73.049519 
L 421.38194 -73.049519 
L 422.509091 -73.049519 
L 422.509091 -73.049519 
L 422.509091 -73.049519 
L 421.38194 -73.049519 
L 420.254789 -73.049519 
L 419.127638 -73.049519 
L 418.000486 -73.049519 
L 416.873335 -73.04952 
L 415.746184 -73.04952 
L 414.619033 -73.04952 
L 413.491882 -73.04952 
L 412.364731 -73.049522 
L 411.23758 -73.049526 
L 410.110429 -73.049534 
L 408.983278 -73.049553 
L 407.856126 -73.049592 
L 406.728975 -73.049671 
L 405.601824 -73.049821 
L 404.474673 -73.050098 
L 403.347522 -73.050589 
L 402.220371 -73.05143 
L 401.09322 -73.052823 
L 399.966069 -73.055057 
L 398.838918 -73.058535 
L 397.711766 -73.063797 
L 396.584615 -73.071548 
L 395.457464 -73.082678 
L 394.330313 -73.098284 
L 393.203162 -73.119677 
L 392.076011 -73.148389 
L 390.94886 -73.186166 
L 389.821709 -73.234948 
L 388.694558 -73.296851 
L 387.567407 -73.374132 
L 386.440255 -73.469155 
L 385.313104 -73.584354 
L 384.185953 -73.722201 
L 383.058802 -73.885169 
L 381.931651 -74.075712 
L 380.8045 -74.296244 
L 379.677349 -74.549125 
L 378.550198 -74.836648 
L 377.423047 -75.161032 
L 376.295895 -75.524403 
L 375.168744 -75.928765 
L 374.041593 -76.375966 
L 372.914442 -76.867638 
L 371.787291 -77.405134 
L 370.66014 -77.989452 
L 369.532989 -78.621156 
L 368.405838 -79.300316 
L 367.278687 -80.026456 
L 366.151535 -80.798541 
L 365.024384 -81.614994 
L 363.897233 -82.473756 
L 362.770082 -83.372377 
L 361.642931 -84.308139 
L 360.51578 -85.278203 
L 359.388629 -86.279756 
L 358.261478 -87.310167 
L 357.134327 -88.367122 
L 356.007175 -89.44873 
L 354.880024 -90.553609 
L 353.752873 -91.680924 
L 352.625722 -92.830393 
L 351.498571 -94.00225 
L 350.37142 -95.197187 
L 349.244269 -96.416254 
L 348.117118 -97.66076 
L 346.989967 -98.932149 
L 345.862815 -100.231887 
L 344.735664 -101.561349 
L 343.608513 -102.921729 
L 342.481362 -104.313959 
L 341.354211 -105.738655 
L 340.22706 -107.196079 
L 339.099909 -108.68613 
L 337.972758 -110.208344 
L 336.845607 -111.761919 
L 335.718455 -113.345752 
L 334.591304 -114.958483 
L 333.464153 -116.598555 
L 332.337002 -118.264269 
L 331.209851 -119.953842 
L 330.0827 -121.66545 
L 328.955549 -123.397257 
L 327.828398 -125.147432 
L 326.701247 -126.914135 
L 325.574095 -128.695499 
L 324.446944 -130.489588 
L 323.319793 -132.294369 
L 322.192642 -134.107679 
L 321.065491 -135.927228 
L 319.93834 -137.750612 
L 318.811189 -139.57537 
L 317.684038 -141.399058 
L 316.556887 -143.21935 
L 315.429735 -145.034147 
L 314.302584 -146.841684 
L 313.175433 -148.640627 
L 312.048282 -150.430142 
L 310.921131 -152.209944 
L 309.79398 -153.980301 
L 308.666829 -155.742015 
L 307.539678 -157.496364 
L 306.412527 -159.245031 
L 305.285375 -160.989999 
L 304.158224 -162.733454 
L 303.031073 -164.477669 
L 301.903922 -166.224902 
L 300.776771 -167.977297 
L 299.64962 -169.736809 
L 298.522469 -171.505136 
L 297.395318 -173.283677 
L 296.268167 -175.073507 
L 295.141016 -176.875375 
L 294.013864 -178.689713 
L 292.886713 -180.516665 
L 291.759562 -182.356125 
L 290.632411 -184.207783 
L 289.50526 -186.071174 
L 288.378109 -187.945729 
L 287.250958 -189.830829 
L 286.123807 -191.725838 
L 284.996656 -193.630151 
L 283.869504 -195.543214 
L 282.742353 -197.464542 
L 281.615202 -199.393735 
L 280.488051 -201.330476 
L 279.3609 -203.27453 
L 278.233749 -205.225735 
L 277.106598 -207.184 
L 275.979447 -209.14929 
L 274.852296 -211.121622 
L 273.725144 -213.101062 
L 272.597993 -215.087717 
L 271.470842 -217.08173 
L 270.343691 -219.083283 
L 269.21654 -221.092588 
L 268.089389 -223.109881 
L 266.962238 -225.135421 
L 265.835087 -227.169483 
L 264.707936 -229.212349 
L 263.580784 -231.264315 
L 262.453633 -233.325683 
L 261.326482 -235.396767 
L 260.199331 -237.477901 
L 259.07218 -239.569448 
L 257.945029 -241.671807 
L 256.817878 -243.785418 
L 255.690727 -245.910772 
L 254.563576 -248.048402 
L 253.436424 -250.198876 
L 252.309273 -252.362778 
L 251.182122 -254.540685 
L 250.054971 -256.733126 
L 248.92782 -258.940547 
L 247.800669 -261.163258 
L 246.673518 -263.401385 
L 245.546367 -265.654809 
L 244.419216 -267.923114 
L 243.292064 -270.205526 
L 242.164913 -272.500861 
L 241.037762 -274.807467 
L 239.910611 -277.123183 
L 238.78346 -279.445301 
L 237.656309 -281.770538 
L 236.529158 -284.095026 
L 235.402007 -286.414319 
L 234.274856 -288.723423 
L 233.147704 -291.016843 
L 232.020553 -293.288659 
L 230.893402 -295.532621 
L 229.766251 -297.742267 
L 228.6391 -299.911052 
L 227.511949 -302.03249 
L 226.384798 -304.100301 
L 225.257647 -306.108549 
L 224.130496 -308.051776 
L 223.003344 -309.925112 
L 221.876193 -311.724371 
L 220.749042 -313.44612 
L 219.621891 -315.087717 
L 218.49474 -316.64733 
L 217.367589 -318.123926 
L 216.240438 -319.517244 
L 215.113287 -320.82774 
L 213.986136 -322.05653 
L 212.858984 -323.205311 
L 211.731833 -324.276285 
L 210.604682 -325.272074 
L 209.477531 -326.19564 
L 208.35038 -327.050205 
L 207.223229 -327.83918 
L 206.096078 -328.566095 
L 204.968927 -329.234539 
L 203.841776 -329.848112 
L 202.714625 -330.410379 
L 201.587473 -330.92483 
L 200.460322 -331.394854 
L 199.333171 -331.823718 
L 198.20602 -332.214544 
L 197.078869 -332.5703 
L 195.951718 -332.893793 
L 194.824567 -333.187665 
L 193.697416 -333.454389 
L 192.570265 -333.696274 
L 191.443113 -333.915467 
L 190.315962 -334.113957 
L 189.188811 -334.293584 
L 188.06166 -334.456045 
L 186.934509 -334.6029 
L 185.807358 -334.735581 
L 184.680207 -334.855401 
L 183.553056 -334.96356 
L 182.425905 -335.061155 
L 181.298753 -335.149186 
L 180.171602 -335.228563 
L 179.044451 -335.300116 
L 177.9173 -335.364596 
L 176.790149 -335.422689 
L 175.662998 -335.475014 
L 174.535847 -335.522132 
L 173.408696 -335.564555 
L 172.281545 -335.602741 
L 171.154393 -335.637109 
L 170.027242 -335.668035 
L 168.900091 -335.695859 
L 167.77294 -335.720889 
L 166.645789 -335.743402 
L 165.518638 -335.76365 
L 164.391487 -335.781858 
L 163.264336 -335.79823 
L 162.137185 -335.81295 
L 161.010033 -335.826183 
L 159.882882 -335.838078 
L 158.755731 -335.84877 
L 157.62858 -335.85838 
L 156.501429 -335.867017 
L 155.374278 -335.874778 
L 154.247127 -335.881753 
L 153.119976 -335.88802 
L 151.992825 -335.893651 
L 150.865673 -335.89871 
L 149.738522 -335.903256 
L 148.611371 -335.90734 
L 147.48422 -335.911008 
L 146.357069 -335.914304 
L 145.229918 -335.917264 
L 144.102767 -335.919924 
L 142.975616 -335.922312 
L 141.848465 -335.924458 
L 140.721313 -335.926385 
L 139.594162 -335.928116 
L 138.467011 -335.92967 
L 137.33986 -335.931067 
L 136.212709 -335.93232 
L 135.085558 -335.933447 
L 133.958407 -335.934458 
L 132.831256 -335.935366 
L 131.704105 -335.936182 
L 130.576953 -335.936914 
L 129.449802 -335.937572 
L 128.322651 -335.938163 
L 127.1955 -335.938693 
L 126.068349 -335.93917 
L 124.941198 -335.939597 
L 123.814047 -335.939981 
L 122.686896 -335.940326 
L 121.559745 -335.940636 
L 120.432593 -335.940914 
L 119.305442 -335.941164 
L 118.178291 -335.941388 
L 117.05114 -335.941589 
L 115.923989 -335.94177 
L 114.796838 -335.941932 
L 113.669687 -335.942078 
L 112.542536 -335.942209 
L 111.415385 -335.942327 
L 110.288234 -335.942432 
L 109.161082 -335.942527 
L 108.033931 -335.942612 
L 106.90678 -335.942688 
L 105.779629 -335.942757 
L 104.652478 -335.942818 
L 103.525327 -335.942874 
L 102.398176 -335.942923 
L 101.271025 -335.942968 
L 100.143874 -335.943008 
L 99.016722 -335.943044 
L 97.889571 -335.943076 
L 96.76242 -335.943105 
L 95.635269 -335.943131 
L 94.508118 -335.943154 
L 93.380967 -335.943175 
L 92.253816 -335.943194 
L 91.126665 -335.943211 
L 89.999514 -335.943226 
L 88.872362 -335.94324 
L 87.745211 -335.943252 
L 86.61806 -335.943263 
L 85.490909 -335.943273 
z
" style="stroke: #ffa500; stroke-opacity: 0.2"/>
    </defs>
    <g clip-path="url(#pd31a842d18)">
     <use xlink:href="#mec306b5f52" x="0" y="360" style="fill: #ffa500; fill-opacity: 0.2; stroke: #ffa500; stroke-opacity: 0.2"/>
    </g>
   </g>
   <g id="PolyCollection_2">
    <defs>
     <path id="ma36e138e73" d="M 85.490909 -335.943247 
L 85.490909 -335.943247 
L 86.61806 -335.943235 
L 87.745211 -335.943221 
L 88.872362 -335.943205 
L 89.999514 -335.943187 
L 91.126665 -335.943168 
L 92.253816 -335.943146 
L 93.380967 -335.943121 
L 94.508118 -335.943094 
L 95.635269 -335.943064 
L 96.76242 -335.943031 
L 97.889571 -335.942993 
L 99.016722 -335.942951 
L 100.143874 -335.942905 
L 101.271025 -335.942853 
L 102.398176 -335.942796 
L 103.525327 -335.942732 
L 104.652478 -335.94266 
L 105.779629 -335.94258 
L 106.90678 -335.942492 
L 108.033931 -335.942393 
L 109.161082 -335.942283 
L 110.288234 -335.942161 
L 111.415385 -335.942024 
L 112.542536 -335.941872 
L 113.669687 -335.941703 
L 114.796838 -335.941515 
L 115.923989 -335.941305 
L 117.05114 -335.941071 
L 118.178291 -335.94081 
L 119.305442 -335.94052 
L 120.432593 -335.940197 
L 121.559745 -335.939837 
L 122.686896 -335.939437 
L 123.814047 -335.93899 
L 124.941198 -335.938493 
L 126.068349 -335.937939 
L 127.1955 -335.937323 
L 128.322651 -335.936636 
L 129.449802 -335.935871 
L 130.576953 -335.935019 
L 131.704105 -335.93407 
L 132.831256 -335.933013 
L 133.958407 -335.931836 
L 135.085558 -335.930526 
L 136.212709 -335.929066 
L 137.33986 -335.92744 
L 138.467011 -335.92563 
L 139.594162 -335.923614 
L 140.721313 -335.921368 
L 141.848465 -335.918868 
L 142.975616 -335.916083 
L 144.102767 -335.912982 
L 145.229918 -335.909529 
L 146.357069 -335.905683 
L 147.48422 -335.901401 
L 148.611371 -335.896632 
L 149.738522 -335.891322 
L 150.865673 -335.88541 
L 151.992825 -335.878826 
L 153.119976 -335.871496 
L 154.247127 -335.863334 
L 155.374278 -335.854246 
L 156.501429 -335.844128 
L 157.62858 -335.832864 
L 158.755731 -335.820323 
L 159.882882 -335.806363 
L 161.010033 -335.790821 
L 162.137185 -335.773521 
L 163.264336 -335.754264 
L 164.391487 -335.73283 
L 165.518638 -335.708974 
L 166.645789 -335.682424 
L 167.77294 -335.652878 
L 168.900091 -335.62 
L 170.027242 -335.583416 
L 171.154393 -335.542713 
L 172.281545 -335.497431 
L 173.408696 -335.44706 
L 174.535847 -335.391033 
L 175.662998 -335.328725 
L 176.790149 -335.259438 
L 177.9173 -335.182402 
L 179.044451 -335.096765 
L 180.171602 -335.001582 
L 181.298753 -334.895809 
L 182.425905 -334.778291 
L 183.553056 -334.647753 
L 184.680207 -334.502789 
L 185.807358 -334.341848 
L 186.934509 -334.163221 
L 188.06166 -333.96503 
L 189.188811 -333.745211 
L 190.315962 -333.501497 
L 191.443113 -333.231409 
L 192.570265 -332.932233 
L 193.697416 -332.601007 
L 194.824567 -332.234508 
L 195.951718 -331.829231 
L 197.078869 -331.38138 
L 198.20602 -330.886856 
L 199.333171 -330.341244 
L 200.460322 -329.73981 
L 201.587473 -329.077499 
L 202.714625 -328.34894 
L 203.841776 -327.548455 
L 204.968927 -326.670084 
L 206.096078 -325.707613 
L 207.223229 -324.654618 
L 208.35038 -323.504521 
L 209.477531 -322.250665 
L 210.604682 -320.886406 
L 211.731833 -319.405216 
L 212.858984 -317.80082 
L 213.986136 -316.067337 
L 215.113287 -314.199449 
L 216.240438 -312.192582 
L 217.367589 -310.043099 
L 218.49474 -307.748501 
L 219.621891 -305.307623 
L 220.749042 -302.720824 
L 221.876193 -299.990154 
L 223.003344 -297.119485 
L 224.130496 -294.114598 
L 225.257647 -290.983217 
L 226.384798 -287.734961 
L 227.511949 -284.381237 
L 228.6391 -280.93504 
L 229.766251 -277.410679 
L 230.893402 -273.823431 
L 232.020553 -270.189139 
L 233.147704 -266.523767 
L 234.274856 -262.842947 
L 235.402007 -259.161528 
L 236.529158 -255.493172 
L 237.656309 -251.850008 
L 238.78346 -248.242372 
L 239.910611 -244.678645 
L 241.037762 -241.165196 
L 242.164913 -237.706423 
L 243.292064 -234.304888 
L 244.419216 -230.961526 
L 245.546367 -227.675904 
L 246.673518 -224.446511 
L 247.800669 -221.271046 
L 248.92782 -218.146699 
L 250.054971 -215.070392 
L 251.182122 -212.038983 
L 252.309273 -209.049416 
L 253.436424 -206.098832 
L 254.563576 -203.184627 
L 255.690727 -200.304488 
L 256.817878 -197.456392 
L 257.945029 -194.638589 
L 259.07218 -191.849582 
L 260.199331 -189.088089 
L 261.326482 -186.353017 
L 262.453633 -183.643432 
L 263.580784 -180.958529 
L 264.707936 -178.297613 
L 265.835087 -175.660073 
L 266.962238 -173.045361 
L 268.089389 -170.452968 
L 269.21654 -167.882398 
L 270.343691 -165.33313 
L 271.470842 -162.804581 
L 272.597993 -160.296043 
L 273.725144 -157.806622 
L 274.852296 -155.335154 
L 275.979447 -152.880111 
L 277.106598 -150.4395 
L 278.233749 -148.010765 
L 279.3609 -145.5907 
L 280.488051 -143.175386 
L 281.615202 -140.760179 
L 282.742353 -138.339756 
L 283.869504 -135.90824 
L 284.996656 -133.459415 
L 286.123807 -130.987035 
L 287.250958 -128.485211 
L 288.378109 -125.948885 
L 289.50526 -123.374331 
L 290.632411 -120.759675 
L 291.759562 -118.10538 
L 292.886713 -115.414651 
L 294.013864 -112.693725 
L 295.141016 -109.952004 
L 296.268167 -107.202008 
L 297.395318 -104.459135 
L 298.522469 -101.741235 
L 299.64962 -99.068009 
L 300.776771 -96.460276 
L 301.903922 -93.939138 
L 303.031073 -91.525112 
L 304.158224 -89.237268 
L 305.285375 -87.092431 
L 306.412527 -85.104504 
L 307.539678 -83.283942 
L 308.666829 -81.637401 
L 309.79398 -80.167593 
L 310.921131 -78.873332 
L 312.048282 -77.74977 
L 313.175433 -76.788791 
L 314.302584 -75.979544 
L 315.429735 -75.309057 
L 316.556887 -74.762912 
L 317.684038 -74.325914 
L 318.811189 -73.982734 
L 319.93834 -73.718478 
L 321.065491 -73.519157 
L 322.192642 -73.372049 
L 323.319793 -73.265934 
L 324.446944 -73.191212 
L 325.574095 -73.139918 
L 326.701247 -73.105636 
L 327.828398 -73.083363 
L 328.955549 -73.069317 
L 330.0827 -73.060734 
L 331.209851 -73.055659 
L 332.337002 -73.052762 
L 333.464153 -73.051168 
L 334.591304 -73.050325 
L 335.718455 -73.049897 
L 336.845607 -73.049688 
L 337.972758 -73.049592 
L 339.099909 -73.049549 
L 340.22706 -73.049531 
L 341.354211 -73.049524 
L 342.481362 -73.049521 
L 343.608513 -73.04952 
L 344.735664 -73.04952 
L 345.862815 -73.04952 
L 346.989967 -73.049519 
L 348.117118 -73.049519 
L 349.244269 -73.049519 
L 350.37142 -73.049519 
L 351.498571 -73.049519 
L 352.625722 -73.049519 
L 353.752873 -73.049519 
L 354.880024 -73.049519 
L 356.007175 -73.049519 
L 357.134327 -73.049519 
L 358.261478 -73.049519 
L 359.388629 -73.049519 
L 360.51578 -73.049519 
L 361.642931 -73.049519 
L 362.770082 -73.049519 
L 363.897233 -73.049519 
L 365.024384 -73.049519 
L 366.151535 -73.049519 
L 367.278687 -73.049519 
L 368.405838 -73.049519 
L 369.532989 -73.049519 
L 370.66014 -73.049519 
L 371.787291 -73.049519 
L 372.914442 -73.049519 
L 374.041593 -73.049519 
L 375.168744 -73.049519 
L 376.295895 -73.049519 
L 377.423047 -73.049519 
L 378.550198 -73.049519 
L 379.677349 -73.049519 
L 380.8045 -73.049519 
L 381.931651 -73.049519 
L 383.058802 -73.049519 
L 384.185953 -73.049519 
L 385.313104 -73.049519 
L 386.440255 -73.049519 
L 387.567407 -73.049519 
L 388.694558 -73.049519 
L 389.821709 -73.049519 
L 390.94886 -73.049519 
L 392.076011 -73.049519 
L 393.203162 -73.049519 
L 394.330313 -73.049519 
L 395.457464 -73.049519 
L 396.584615 -73.049519 
L 397.711766 -73.049519 
L 398.838918 -73.049519 
L 399.966069 -73.049519 
L 401.09322 -73.049519 
L 402.220371 -73.049519 
L 403.347522 -73.049519 
L 404.474673 -73.049519 
L 405.601824 -73.049519 
L 406.728975 -73.049519 
L 407.856126 -73.049519 
L 408.983278 -73.049519 
L 410.110429 -73.049519 
L 411.23758 -73.049519 
L 412.364731 -73.049519 
L 413.491882 -73.049519 
L 414.619033 -73.049519 
L 415.746184 -73.049519 
L 416.873335 -73.049519 
L 418.000486 -73.049519 
L 419.127638 -73.049519 
L 420.254789 -73.049519 
L 421.38194 -73.049519 
L 422.509091 -73.049519 
L 422.509091 -73.049519 
L 422.509091 -73.049519 
L 421.38194 -73.049519 
L 420.254789 -73.049519 
L 419.127638 -73.049519 
L 418.000486 -73.049519 
L 416.873335 -73.049519 
L 415.746184 -73.049519 
L 414.619033 -73.049519 
L 413.491882 -73.049519 
L 412.364731 -73.049519 
L 411.23758 -73.049519 
L 410.110429 -73.049519 
L 408.983278 -73.049519 
L 407.856126 -73.049519 
L 406.728975 -73.049519 
L 405.601824 -73.049519 
L 404.474673 -73.049519 
L 403.347522 -73.049519 
L 402.220371 -73.049519 
L 401.09322 -73.049519 
L 399.966069 -73.049519 
L 398.838918 -73.049519 
L 397.711766 -73.049519 
L 396.584615 -73.049519 
L 395.457464 -73.049519 
L 394.330313 -73.049519 
L 393.203162 -73.049519 
L 392.076011 -73.049519 
L 390.94886 -73.049519 
L 389.821709 -73.049519 
L 388.694558 -73.049519 
L 387.567407 -73.049519 
L 386.440255 -73.049519 
L 385.313104 -73.049519 
L 384.185953 -73.049519 
L 383.058802 -73.049519 
L 381.931651 -73.049519 
L 380.8045 -73.049519 
L 379.677349 -73.049519 
L 378.550198 -73.049519 
L 377.423047 -73.049519 
L 376.295895 -73.049519 
L 375.168744 -73.049519 
L 374.041593 -73.049519 
L 372.914442 -73.049519 
L 371.787291 -73.049519 
L 370.66014 -73.049519 
L 369.532989 -73.049519 
L 368.405838 -73.049519 
L 367.278687 -73.049519 
L 366.151535 -73.049519 
L 365.024384 -73.049519 
L 363.897233 -73.049519 
L 362.770082 -73.049519 
L 361.642931 -73.049519 
L 360.51578 -73.049519 
L 359.388629 -73.049519 
L 358.261478 -73.049519 
L 357.134327 -73.049519 
L 356.007175 -73.049519 
L 354.880024 -73.049519 
L 353.752873 -73.049519 
L 352.625722 -73.049519 
L 351.498571 -73.049519 
L 350.37142 -73.049519 
L 349.244269 -73.049519 
L 348.117118 -73.049519 
L 346.989967 -73.049519 
L 345.862815 -73.04952 
L 344.735664 -73.04952 
L 343.608513 -73.04952 
L 342.481362 -73.049521 
L 341.354211 -73.049524 
L 340.22706 -73.049531 
L 339.099909 -73.049549 
L 337.972758 -73.049592 
L 336.845607 -73.049688 
L 335.718455 -73.049897 
L 334.591304 -73.050325 
L 333.464153 -73.051168 
L 332.337002 -73.052762 
L 331.209851 -73.055659 
L 330.0827 -73.060734 
L 328.955549 -73.069317 
L 327.828398 -73.083363 
L 326.701247 -73.105636 
L 325.574095 -73.139918 
L 324.446944 -73.191212 
L 323.319793 -73.265934 
L 322.192642 -73.372049 
L 321.065491 -73.519157 
L 319.93834 -73.718478 
L 318.811189 -73.982734 
L 317.684038 -74.325914 
L 316.556887 -74.762912 
L 315.429735 -75.309057 
L 314.302584 -75.979544 
L 313.175433 -76.788791 
L 312.048282 -77.74977 
L 310.921131 -78.873332 
L 309.79398 -80.167593 
L 308.666829 -81.637401 
L 307.539678 -83.283942 
L 306.412527 -85.104504 
L 305.285375 -87.092431 
L 304.158224 -89.237268 
L 303.031073 -91.525112 
L 301.903922 -93.939138 
L 300.776771 -96.460276 
L 299.64962 -99.068009 
L 298.522469 -101.741235 
L 297.395318 -104.459135 
L 296.268167 -107.202008 
L 295.141016 -109.952004 
L 294.013864 -112.693725 
L 292.886713 -115.414651 
L 291.759562 -118.10538 
L 290.632411 -120.759675 
L 289.50526 -123.374331 
L 288.378109 -125.948885 
L 287.250958 -128.485211 
L 286.123807 -130.987035 
L 284.996656 -133.459415 
L 283.869504 -135.90824 
L 282.742353 -138.339756 
L 281.615202 -140.760179 
L 280.488051 -143.175386 
L 279.3609 -145.5907 
L 278.233749 -148.010765 
L 277.106598 -150.4395 
L 275.979447 -152.880111 
L 274.852296 -155.335154 
L 273.725144 -157.806622 
L 272.597993 -160.296043 
L 271.470842 -162.804581 
L 270.343691 -165.33313 
L 269.21654 -167.882398 
L 268.089389 -170.452968 
L 266.962238 -173.045361 
L 265.835087 -175.660073 
L 264.707936 -178.297613 
L 263.580784 -180.958529 
L 262.453633 -183.643432 
L 261.326482 -186.353017 
L 260.199331 -189.088089 
L 259.07218 -191.849582 
L 257.945029 -194.638589 
L 256.817878 -197.456392 
L 255.690727 -200.304488 
L 254.563576 -203.184627 
L 253.436424 -206.098832 
L 252.309273 -209.049416 
L 251.182122 -212.038983 
L 250.054971 -215.070392 
L 248.92782 -218.146699 
L 247.800669 -221.271046 
L 246.673518 -224.446511 
L 245.546367 -227.675904 
L 244.419216 -230.961526 
L 243.292064 -234.304888 
L 242.164913 -237.706423 
L 241.037762 -241.165196 
L 239.910611 -244.678645 
L 238.78346 -248.242372 
L 237.656309 -251.850008 
L 236.529158 -255.493172 
L 235.402007 -259.161528 
L 234.274856 -262.842947 
L 233.147704 -266.523767 
L 232.020553 -270.189139 
L 230.893402 -273.823431 
L 229.766251 -277.410679 
L 228.6391 -280.93504 
L 227.511949 -284.381237 
L 226.384798 -287.734961 
L 225.257647 -290.983217 
L 224.130496 -294.114598 
L 223.003344 -297.119485 
L 221.876193 -299.990154 
L 220.749042 -302.720824 
L 219.621891 -305.307623 
L 218.49474 -307.748501 
L 217.367589 -310.043099 
L 216.240438 -312.192582 
L 215.113287 -314.199449 
L 213.986136 -316.067337 
L 212.858984 -317.80082 
L 211.731833 -319.405216 
L 210.604682 -320.886406 
L 209.477531 -322.250665 
L 208.35038 -323.504521 
L 207.223229 -324.654618 
L 206.096078 -325.707613 
L 204.968927 -326.670084 
L 203.841776 -327.548455 
L 202.714625 -328.34894 
L 201.587473 -329.077499 
L 200.460322 -329.73981 
L 199.333171 -330.341244 
L 198.20602 -330.886856 
L 197.078869 -331.38138 
L 195.951718 -331.829231 
L 194.824567 -332.234508 
L 193.697416 -332.601007 
L 192.570265 -332.932233 
L 191.443113 -333.231409 
L 190.315962 -333.501497 
L 189.188811 -333.745211 
L 188.06166 -333.96503 
L 186.934509 -334.163221 
L 185.807358 -334.341848 
L 184.680207 -334.502789 
L 183.553056 -334.647753 
L 182.425905 -334.778291 
L 181.298753 -334.895809 
L 180.171602 -335.001582 
L 179.044451 -335.096765 
L 177.9173 -335.182402 
L 176.790149 -335.259438 
L 175.662998 -335.328725 
L 174.535847 -335.391033 
L 173.408696 -335.44706 
L 172.281545 -335.497431 
L 171.154393 -335.542713 
L 170.027242 -335.583416 
L 168.900091 -335.62 
L 167.77294 -335.652878 
L 166.645789 -335.682424 
L 165.518638 -335.708974 
L 164.391487 -335.73283 
L 163.264336 -335.754264 
L 162.137185 -335.773521 
L 161.010033 -335.790821 
L 159.882882 -335.806363 
L 158.755731 -335.820323 
L 157.62858 -335.832864 
L 156.501429 -335.844128 
L 155.374278 -335.854246 
L 154.247127 -335.863334 
L 153.119976 -335.871496 
L 151.992825 -335.878826 
L 150.865673 -335.88541 
L 149.738522 -335.891322 
L 148.611371 -335.896632 
L 147.48422 -335.901401 
L 146.357069 -335.905683 
L 145.229918 -335.909529 
L 144.102767 -335.912982 
L 142.975616 -335.916083 
L 141.848465 -335.918868 
L 140.721313 -335.921368 
L 139.594162 -335.923614 
L 138.467011 -335.92563 
L 137.33986 -335.92744 
L 136.212709 -335.929066 
L 135.085558 -335.930526 
L 133.958407 -335.931836 
L 132.831256 -335.933013 
L 131.704105 -335.93407 
L 130.576953 -335.935019 
L 129.449802 -335.935871 
L 128.322651 -335.936636 
L 127.1955 -335.937323 
L 126.068349 -335.937939 
L 124.941198 -335.938493 
L 123.814047 -335.93899 
L 122.686896 -335.939437 
L 121.559745 -335.939837 
L 120.432593 -335.940197 
L 119.305442 -335.94052 
L 118.178291 -335.94081 
L 117.05114 -335.941071 
L 115.923989 -335.941305 
L 114.796838 -335.941515 
L 113.669687 -335.941703 
L 112.542536 -335.941872 
L 111.415385 -335.942024 
L 110.288234 -335.942161 
L 109.161082 -335.942283 
L 108.033931 -335.942393 
L 106.90678 -335.942492 
L 105.779629 -335.94258 
L 104.652478 -335.94266 
L 103.525327 -335.942732 
L 102.398176 -335.942796 
L 101.271025 -335.942853 
L 100.143874 -335.942905 
L 99.016722 -335.942951 
L 97.889571 -335.942993 
L 96.76242 -335.943031 
L 95.635269 -335.943064 
L 94.508118 -335.943094 
L 93.380967 -335.943121 
L 92.253816 -335.943146 
L 91.126665 -335.943168 
L 89.999514 -335.943187 
L 88.872362 -335.943205 
L 87.745211 -335.943221 
L 86.61806 -335.943235 
L 85.490909 -335.943247 
z
" style="stroke: #008000; stroke-opacity: 0.2"/>
    </defs>
    <g clip-path="url(#pd31a842d18)">
     <use xlink:href="#ma36e138e73" x="0" y="360" style="fill: #008000; fill-opacity: 0.2; stroke: #008000; stroke-opacity: 0.2"/>
    </g>
   </g>
   <g id="PolyCollection_3">
    <defs>
     <path id="m1759e1b340" d="M 85.490909 -335.94312 
L 85.490909 -335.943046 
L 86.61806 -335.94301 
L 87.745211 -335.94297 
L 88.872362 -335.942926 
L 89.999514 -335.942877 
L 91.126665 -335.942822 
L 92.253816 -335.942761 
L 93.380967 -335.942693 
L 94.508118 -335.942617 
L 95.635269 -335.942533 
L 96.76242 -335.942439 
L 97.889571 -335.942334 
L 99.016722 -335.942218 
L 100.143874 -335.942088 
L 101.271025 -335.941943 
L 102.398176 -335.941782 
L 103.525327 -335.941603 
L 104.652478 -335.941404 
L 105.779629 -335.941181 
L 106.90678 -335.940934 
L 108.033931 -335.940658 
L 109.161082 -335.940351 
L 110.288234 -335.94001 
L 111.415385 -335.939629 
L 112.542536 -335.939206 
L 113.669687 -335.938734 
L 114.796838 -335.938209 
L 115.923989 -335.937624 
L 117.05114 -335.936973 
L 118.178291 -335.936248 
L 119.305442 -335.935442 
L 120.432593 -335.934543 
L 121.559745 -335.933544 
L 122.686896 -335.932431 
L 123.814047 -335.931192 
L 124.941198 -335.929812 
L 126.068349 -335.928277 
L 127.1955 -335.926569 
L 128.322651 -335.924667 
L 129.449802 -335.922551 
L 130.576953 -335.920196 
L 131.704105 -335.917575 
L 132.831256 -335.914658 
L 133.958407 -335.911413 
L 135.085558 -335.907802 
L 136.212709 -335.903785 
L 137.33986 -335.899316 
L 138.467011 -335.894344 
L 139.594162 -335.888814 
L 140.721313 -335.882663 
L 141.848465 -335.875822 
L 142.975616 -335.868214 
L 144.102767 -335.859754 
L 145.229918 -335.850348 
L 146.357069 -335.839891 
L 147.48422 -335.828266 
L 148.611371 -335.815344 
L 149.738522 -335.800984 
L 150.865673 -335.785026 
L 151.992825 -335.767295 
L 153.119976 -335.747597 
L 154.247127 -335.725718 
L 155.374278 -335.701418 
L 156.501429 -335.674436 
L 157.62858 -335.644481 
L 158.755731 -335.611231 
L 159.882882 -335.574331 
L 161.010033 -335.53339 
L 162.137185 -335.487976 
L 163.264336 -335.437611 
L 164.391487 -335.381771 
L 165.518638 -335.319877 
L 166.645789 -335.251293 
L 167.77294 -335.17532 
L 168.900091 -335.091188 
L 170.027242 -334.998054 
L 171.154393 -334.894992 
L 172.281545 -334.780991 
L 173.408696 -334.654941 
L 174.535847 -334.515632 
L 175.662998 -334.36174 
L 176.790149 -334.191826 
L 177.9173 -334.004322 
L 179.044451 -333.797525 
L 180.171602 -333.569589 
L 181.298753 -333.318515 
L 182.425905 -333.042145 
L 183.553056 -332.738153 
L 184.680207 -332.404038 
L 185.807358 -332.03712 
L 186.934509 -331.634534 
L 188.06166 -331.193226 
L 189.188811 -330.709953 
L 190.315962 -330.181285 
L 191.443113 -329.603607 
L 192.570265 -328.97313 
L 193.697416 -328.285896 
L 194.824567 -327.537801 
L 195.951718 -326.72461 
L 197.078869 -325.841986 
L 198.20602 -324.885516 
L 199.333171 -323.850757 
L 200.460322 -322.733271 
L 201.587473 -321.528679 
L 202.714625 -320.232713 
L 203.841776 -318.84128 
L 204.968927 -317.350524 
L 206.096078 -315.756897 
L 207.223229 -314.057223 
L 208.35038 -312.248775 
L 209.477531 -310.329338 
L 210.604682 -308.297271 
L 211.731833 -306.151565 
L 212.858984 -303.891887 
L 213.986136 -301.518612 
L 215.113287 -299.032841 
L 216.240438 -296.436401 
L 217.367589 -293.731831 
L 218.49474 -290.92234 
L 219.621891 -288.011759 
L 220.749042 -285.004464 
L 221.876193 -281.905292 
L 223.003344 -278.719442 
L 224.130496 -275.452368 
L 225.257647 -272.109665 
L 226.384798 -268.696959 
L 227.511949 -265.219799 
L 228.6391 -261.683557 
L 229.766251 -258.093337 
L 230.893402 -254.453902 
L 232.020553 -250.769612 
L 233.147704 -247.044385 
L 234.274856 -243.281667 
L 235.402007 -239.484428 
L 236.529158 -235.655169 
L 237.656309 -231.795944 
L 238.78346 -227.908404 
L 239.910611 -223.993842 
L 241.037762 -220.053262 
L 242.164913 -216.087451 
L 243.292064 -212.097063 
L 244.419216 -208.082706 
L 245.546367 -204.045038 
L 246.673518 -199.984863 
L 247.800669 -195.903228 
L 248.92782 -191.801522 
L 250.054971 -187.681558 
L 251.182122 -183.545664 
L 252.309273 -179.396753 
L 253.436424 -175.238385 
L 254.563576 -171.074816 
L 255.690727 -166.911028 
L 256.817878 -162.752748 
L 257.945029 -158.606442 
L 259.07218 -154.479297 
L 260.199331 -150.379179 
L 261.326482 -146.314574 
L 262.453633 -142.294509 
L 263.580784 -138.328455 
L 264.707936 -134.426204 
L 265.835087 -130.597736 
L 266.962238 -126.853068 
L 268.089389 -123.202081 
L 269.21654 -119.654348 
L 270.343691 -116.218959 
L 271.470842 -112.904342 
L 272.597993 -109.718104 
L 273.725144 -106.666894 
L 274.852296 -103.756285 
L 275.979447 -100.9907 
L 277.106598 -98.373362 
L 278.233749 -95.906283 
L 279.3609 -93.590294 
L 280.488051 -91.425085 
L 281.615202 -89.409287 
L 282.742353 -87.540552 
L 283.869504 -85.815655 
L 284.996656 -84.230593 
L 286.123807 -82.780684 
L 287.250958 -81.460667 
L 288.378109 -80.264788 
L 289.50526 -79.186898 
L 290.632411 -78.220527 
L 291.759562 -77.358972 
L 292.886713 -76.595374 
L 294.013864 -75.922796 
L 295.141016 -75.334302 
L 296.268167 -74.823028 
L 297.395318 -74.382251 
L 298.522469 -74.005455 
L 299.64962 -73.686384 
L 300.776771 -73.41909 
L 301.903922 -73.197964 
L 303.031073 -73.017761 
L 304.158224 -72.873614 
L 305.285375 -72.761032 
L 306.412527 -72.675898 
L 307.539678 -72.614458 
L 308.666829 -72.573297 
L 309.79398 -72.54933 
L 310.921131 -72.539771 
L 312.048282 -72.542118 
L 313.175433 -72.55413 
L 314.302584 -72.573805 
L 315.429735 -72.599363 
L 316.556887 -72.62923 
L 317.684038 -72.662019 
L 318.811189 -72.696522 
L 319.93834 -72.731695 
L 321.065491 -72.766651 
L 322.192642 -72.80065 
L 323.319793 -72.833091 
L 324.446944 -72.86351 
L 325.574095 -72.891563 
L 326.701247 -72.917025 
L 327.828398 -72.939778 
L 328.955549 -72.959797 
L 330.0827 -72.977139 
L 331.209851 -72.991928 
L 332.337002 -73.004342 
L 333.464153 -73.014595 
L 334.591304 -73.022925 
L 335.718455 -73.029581 
L 336.845607 -73.034809 
L 337.972758 -73.038844 
L 339.099909 -73.041904 
L 340.22706 -73.044182 
L 341.354211 -73.045847 
L 342.481362 -73.047041 
L 343.608513 -73.047881 
L 344.735664 -73.048459 
L 345.862815 -73.048848 
L 346.989967 -73.049105 
L 348.117118 -73.04927 
L 349.244269 -73.049373 
L 350.37142 -73.049436 
L 351.498571 -73.049474 
L 352.625722 -73.049495 
L 353.752873 -73.049507 
L 354.880024 -73.049513 
L 356.007175 -73.049517 
L 357.134327 -73.049518 
L 358.261478 -73.049519 
L 359.388629 -73.049519 
L 360.51578 -73.049519 
L 361.642931 -73.049519 
L 362.770082 -73.049519 
L 363.897233 -73.049519 
L 365.024384 -73.049519 
L 366.151535 -73.049519 
L 367.278687 -73.049519 
L 368.405838 -73.049519 
L 369.532989 -73.049519 
L 370.66014 -73.049519 
L 371.787291 -73.049519 
L 372.914442 -73.049519 
L 374.041593 -73.049519 
L 375.168744 -73.049519 
L 376.295895 -73.049519 
L 377.423047 -73.049519 
L 378.550198 -73.049519 
L 379.677349 -73.049519 
L 380.8045 -73.049519 
L 381.931651 -73.049519 
L 383.058802 -73.049519 
L 384.185953 -73.049519 
L 385.313104 -73.049519 
L 386.440255 -73.049519 
L 387.567407 -73.049519 
L 388.694558 -73.049519 
L 389.821709 -73.049519 
L 390.94886 -73.049519 
L 392.076011 -73.049519 
L 393.203162 -73.049519 
L 394.330313 -73.049519 
L 395.457464 -73.049519 
L 396.584615 -73.049519 
L 397.711766 -73.049519 
L 398.838918 -73.049519 
L 399.966069 -73.049519 
L 401.09322 -73.049519 
L 402.220371 -73.049519 
L 403.347522 -73.049519 
L 404.474673 -73.049519 
L 405.601824 -73.049519 
L 406.728975 -73.049519 
L 407.856126 -73.049519 
L 408.983278 -73.049519 
L 410.110429 -73.049519 
L 411.23758 -73.049519 
L 412.364731 -73.049519 
L 413.491882 -73.049519 
L 414.619033 -73.049519 
L 415.746184 -73.049519 
L 416.873335 -73.049519 
L 418.000486 -73.049519 
L 419.127638 -73.049519 
L 420.254789 -73.049519 
L 421.38194 -73.049519 
L 422.509091 -73.049519 
L 422.509091 -73.049519 
L 422.509091 -73.049519 
L 421.38194 -73.049519 
L 420.254789 -73.049519 
L 419.127638 -73.049519 
L 418.000486 -73.049519 
L 416.873335 -73.049519 
L 415.746184 -73.049519 
L 414.619033 -73.049519 
L 413.491882 -73.049519 
L 412.364731 -73.049519 
L 411.23758 -73.049519 
L 410.110429 -73.049519 
L 408.983278 -73.049519 
L 407.856126 -73.049519 
L 406.728975 -73.049519 
L 405.601824 -73.049519 
L 404.474673 -73.049519 
L 403.347522 -73.049519 
L 402.220371 -73.049519 
L 401.09322 -73.049519 
L 399.966069 -73.049519 
L 398.838918 -73.049519 
L 397.711766 -73.049519 
L 396.584615 -73.049519 
L 395.457464 -73.049519 
L 394.330313 -73.049519 
L 393.203162 -73.049519 
L 392.076011 -73.049519 
L 390.94886 -73.049519 
L 389.821709 -73.049519 
L 388.694558 -73.049519 
L 387.567407 -73.049519 
L 386.440255 -73.049519 
L 385.313104 -73.049519 
L 384.185953 -73.049519 
L 383.058802 -73.049519 
L 381.931651 -73.049519 
L 380.8045 -73.049519 
L 379.677349 -73.049519 
L 378.550198 -73.049519 
L 377.423047 -73.049519 
L 376.295895 -73.049519 
L 375.168744 -73.049519 
L 374.041593 -73.049519 
L 372.914442 -73.049519 
L 371.787291 -73.049519 
L 370.66014 -73.049519 
L 369.532989 -73.049519 
L 368.405838 -73.049519 
L 367.278687 -73.049519 
L 366.151535 -73.049519 
L 365.024384 -73.049519 
L 363.897233 -73.049519 
L 362.770082 -73.049519 
L 361.642931 -73.04952 
L 360.51578 -73.04952 
L 359.388629 -73.04952 
L 358.261478 -73.04952 
L 357.134327 -73.049521 
L 356.007175 -73.049523 
L 354.880024 -73.049527 
L 353.752873 -73.049536 
L 352.625722 -73.049551 
L 351.498571 -73.04958 
L 350.37142 -73.04963 
L 349.244269 -73.049716 
L 348.117118 -73.049859 
L 346.989967 -73.05009 
L 345.862815 -73.050456 
L 344.735664 -73.051019 
L 343.608513 -73.051867 
L 342.481362 -73.053117 
L 341.354211 -73.054924 
L 340.22706 -73.057484 
L 339.099909 -73.061042 
L 337.972758 -73.0659 
L 336.845607 -73.072418 
L 335.718455 -73.08102 
L 334.591304 -73.092191 
L 333.464153 -73.106479 
L 332.337002 -73.124492 
L 331.209851 -73.146894 
L 330.0827 -73.174398 
L 328.955549 -73.207764 
L 327.828398 -73.247797 
L 326.701247 -73.295339 
L 325.574095 -73.351276 
L 324.446944 -73.416539 
L 323.319793 -73.492116 
L 322.192642 -73.579056 
L 321.065491 -73.678493 
L 319.93834 -73.791659 
L 318.811189 -73.919911 
L 317.684038 -74.06475 
L 316.556887 -74.227852 
L 315.429735 -74.411089 
L 314.302584 -74.616558 
L 313.175433 -74.846601 
L 312.048282 -75.103834 
L 310.921131 -75.391158 
L 309.79398 -75.711779 
L 308.666829 -76.069218 
L 307.539678 -76.467314 
L 306.412527 -76.910227 
L 305.285375 -77.402423 
L 304.158224 -77.948662 
L 303.031073 -78.553968 
L 301.903922 -79.223595 
L 300.776771 -79.96298 
L 299.64962 -80.777691 
L 298.522469 -81.673369 
L 297.395318 -82.655658 
L 296.268167 -83.730136 
L 295.141016 -84.90224 
L 294.013864 -86.177194 
L 292.886713 -87.55993 
L 291.759562 -89.055021 
L 290.632411 -90.666604 
L 289.50526 -92.398324 
L 288.378109 -94.253273 
L 287.250958 -96.233945 
L 286.123807 -98.342197 
L 284.996656 -100.579229 
L 283.869504 -102.945566 
L 282.742353 -105.441064 
L 281.615202 -108.064917 
L 280.488051 -110.815675 
L 279.3609 -113.69127 
L 278.233749 -116.689038 
L 277.106598 -119.805744 
L 275.979447 -123.037593 
L 274.852296 -126.380238 
L 273.725144 -129.828777 
L 272.597993 -133.377742 
L 271.470842 -137.02108 
L 270.343691 -140.752134 
L 269.21654 -144.563642 
L 268.089389 -148.447737 
L 266.962238 -152.395979 
L 265.835087 -156.399408 
L 264.707936 -160.448638 
L 263.580784 -164.533969 
L 262.453633 -168.645531 
L 261.326482 -172.773451 
L 260.199331 -176.908025 
L 259.07218 -181.039893 
L 257.945029 -185.160205 
L 256.817878 -189.260773 
L 255.690727 -193.334189 
L 254.563576 -197.373924 
L 253.436424 -201.374388 
L 252.309273 -205.330956 
L 251.182122 -209.239966 
L 250.054971 -213.098687 
L 248.92782 -216.905259 
L 247.800669 -220.658617 
L 246.673518 -224.358391 
L 245.546367 -228.004806 
L 244.419216 -231.59856 
L 243.292064 -235.140711 
L 242.164913 -238.632552 
L 241.037762 -242.075498 
L 239.910611 -245.470971 
L 238.78346 -248.820294 
L 237.656309 -252.124596 
L 236.529158 -255.384718 
L 235.402007 -258.601147 
L 234.274856 -261.773948 
L 233.147704 -264.902722 
L 232.020553 -267.986575 
L 230.893402 -271.024104 
L 229.766251 -274.013405 
L 228.6391 -276.952099 
L 227.511949 -279.837368 
L 226.384798 -282.666018 
L 225.257647 -285.43455 
L 224.130496 -288.139245 
L 223.003344 -290.776259 
L 221.876193 -293.341721 
L 220.749042 -295.831836 
L 219.621891 -298.242984 
L 218.49474 -300.571812 
L 217.367589 -302.81532 
L 216.240438 -304.970932 
L 215.113287 -307.036555 
L 213.986136 -309.01062 
L 212.858984 -310.892113 
L 211.731833 -312.680581 
L 210.604682 -314.376131 
L 209.477531 -315.979413 
L 208.35038 -317.491591 
L 207.223229 -318.914302 
L 206.096078 -320.249616 
L 204.968927 -321.499979 
L 203.841776 -322.668162 
L 202.714625 -323.757205 
L 201.587473 -324.770364 
L 200.460322 -325.711055 
L 199.333171 -326.582806 
L 198.20602 -327.389211 
L 197.078869 -328.133889 
L 195.951718 -328.820443 
L 194.824567 -329.452433 
L 193.697416 -330.033345 
L 192.570265 -330.566567 
L 191.443113 -331.055378 
L 190.315962 -331.502923 
L 189.188811 -331.912211 
L 188.06166 -332.286102 
L 186.934509 -332.627307 
L 185.807358 -332.93838 
L 184.680207 -333.221724 
L 183.553056 -333.47959 
L 182.425905 -333.71408 
L 181.298753 -333.927152 
L 180.171602 -334.120625 
L 179.044451 -334.296183 
L 177.9173 -334.455387 
L 176.790149 -334.599674 
L 175.662998 -334.73037 
L 174.535847 -334.848694 
L 173.408696 -334.955765 
L 172.281545 -335.052608 
L 171.154393 -335.140163 
L 170.027242 -335.219289 
L 168.900091 -335.29077 
L 167.77294 -335.355322 
L 166.645789 -335.413596 
L 165.518638 -335.466188 
L 164.391487 -335.513636 
L 163.264336 -335.556432 
L 162.137185 -335.595022 
L 161.010033 -335.629811 
L 159.882882 -335.661166 
L 158.755731 -335.68942 
L 157.62858 -335.714874 
L 156.501429 -335.737801 
L 155.374278 -335.758449 
L 154.247127 -335.77704 
L 153.119976 -335.793777 
L 151.992825 -335.808843 
L 150.865673 -335.822402 
L 149.738522 -335.834604 
L 148.611371 -335.845583 
L 147.48422 -335.85546 
L 146.357069 -335.864345 
L 145.229918 -335.872336 
L 144.102767 -335.879524 
L 142.975616 -335.885987 
L 141.848465 -335.891799 
L 140.721313 -335.897025 
L 139.594162 -335.901723 
L 138.467011 -335.905947 
L 137.33986 -335.909743 
L 136.212709 -335.913156 
L 135.085558 -335.916224 
L 133.958407 -335.91898 
L 132.831256 -335.921458 
L 131.704105 -335.923684 
L 130.576953 -335.925685 
L 129.449802 -335.927483 
L 128.322651 -335.929098 
L 127.1955 -335.930549 
L 126.068349 -335.931853 
L 124.941198 -335.933025 
L 123.814047 -335.934077 
L 122.686896 -335.935022 
L 121.559745 -335.935872 
L 120.432593 -335.936634 
L 119.305442 -335.93732 
L 118.178291 -335.937935 
L 117.05114 -335.938488 
L 115.923989 -335.938985 
L 114.796838 -335.939431 
L 113.669687 -335.939831 
L 112.542536 -335.940191 
L 111.415385 -335.940514 
L 110.288234 -335.940805 
L 109.161082 -335.941065 
L 108.033931 -335.941299 
L 106.90678 -335.941509 
L 105.779629 -335.941698 
L 104.652478 -335.941868 
L 103.525327 -335.94202 
L 102.398176 -335.942157 
L 101.271025 -335.942279 
L 100.143874 -335.94239 
L 99.016722 -335.942489 
L 97.889571 -335.942578 
L 96.76242 -335.942657 
L 95.635269 -335.942729 
L 94.508118 -335.942793 
L 93.380967 -335.942851 
L 92.253816 -335.942903 
L 91.126665 -335.94295 
L 89.999514 -335.942992 
L 88.872362 -335.943029 
L 87.745211 -335.943063 
L 86.61806 -335.943093 
L 85.490909 -335.94312 
z
" style="stroke: #a52a2a; stroke-opacity: 0.2"/>
    </defs>
    <g clip-path="url(#pd31a842d18)">
     <use xlink:href="#m1759e1b340" x="0" y="360" style="fill: #a52a2a; fill-opacity: 0.2; stroke: #a52a2a; stroke-opacity: 0.2"/>
    </g>
   </g>
   <g id="matplotlib.axis_1">
    <g id="xtick_1">
     <g id="line2d_1">
      <defs>
       <path id="m6d4b86e508" d="M 0 0 
L 0 7.5 
" style="stroke: #000000; stroke-width: 1.7"/>
      </defs>
      <g>
       <use xlink:href="#m6d4b86e508" x="85.490909" y="302.448" style="stroke: #000000; stroke-width: 1.7"/>
      </g>
     </g>
     <g id="text_1">
      <!-- $\mathdefault{10^{-3}}$ -->
      <g transform="translate(70.430909 322.566125) scale(0.12 -0.12)">
       <defs>
        <path id="DejaVuSans-Bold-31" d="M 750 831 
L 1813 831 
L 1813 3847 
L 722 3622 
L 722 4441 
L 1806 4666 
L 2950 4666 
L 2950 831 
L 4013 831 
L 4013 0 
L 750 0 
L 750 831 
z
" transform="scale(0.015625)"/>
        <path id="DejaVuSans-Bold-30" d="M 2944 2338 
Q 2944 3213 2780 3570 
Q 2616 3928 2228 3928 
Q 1841 3928 1675 3570 
Q 1509 3213 1509 2338 
Q 1509 1453 1675 1090 
Q 1841 728 2228 728 
Q 2613 728 2778 1090 
Q 2944 1453 2944 2338 
z
M 4147 2328 
Q 4147 1169 3647 539 
Q 3147 -91 2228 -91 
Q 1306 -91 806 539 
Q 306 1169 306 2328 
Q 306 3491 806 4120 
Q 1306 4750 2228 4750 
Q 3147 4750 3647 4120 
Q 4147 3491 4147 2328 
z
" transform="scale(0.015625)"/>
        <path id="DejaVuSans-Bold-2212" d="M 678 2375 
L 4684 2375 
L 4684 1638 
L 678 1638 
L 678 2375 
z
" transform="scale(0.015625)"/>
        <path id="DejaVuSans-Bold-33" d="M 2981 2516 
Q 3453 2394 3698 2092 
Q 3944 1791 3944 1325 
Q 3944 631 3412 270 
Q 2881 -91 1863 -91 
Q 1503 -91 1142 -33 
Q 781 25 428 141 
L 428 1069 
Q 766 900 1098 814 
Q 1431 728 1753 728 
Q 2231 728 2486 893 
Q 2741 1059 2741 1369 
Q 2741 1688 2480 1852 
Q 2219 2016 1709 2016 
L 1228 2016 
L 1228 2791 
L 1734 2791 
Q 2188 2791 2409 2933 
Q 2631 3075 2631 3366 
Q 2631 3634 2415 3781 
Q 2200 3928 1806 3928 
Q 1516 3928 1219 3862 
Q 922 3797 628 3669 
L 628 4550 
Q 984 4650 1334 4700 
Q 1684 4750 2022 4750 
Q 2931 4750 3382 4451 
Q 3834 4153 3834 3553 
Q 3834 3144 3618 2883 
Q 3403 2622 2981 2516 
z
" transform="scale(0.015625)"/>
       </defs>
       <use xlink:href="#DejaVuSans-Bold-31" transform="translate(0 0.765625)"/>
       <use xlink:href="#DejaVuSans-Bold-30" transform="translate(69.580078 0.765625)"/>
       <use xlink:href="#DejaVuSans-Bold-2212" transform="translate(140.117188 39.046875) scale(0.7)"/>
       <use xlink:href="#DejaVuSans-Bold-33" transform="translate(198.769531 39.046875) scale(0.7)"/>
      </g>
     </g>
    </g>
    <g id="xtick_2">
     <g id="line2d_2">
      <g>
       <use xlink:href="#m6d4b86e508" x="133.636364" y="302.448" style="stroke: #000000; stroke-width: 1.7"/>
      </g>
     </g>
     <g id="text_2">
      <!-- $\mathdefault{10^{-2}}$ -->
      <g transform="translate(118.576364 322.566125) scale(0.12 -0.12)">
       <defs>
        <path id="DejaVuSans-Bold-32" d="M 1844 884 
L 3897 884 
L 3897 0 
L 506 0 
L 506 884 
L 2209 2388 
Q 2438 2594 2547 2791 
Q 2656 2988 2656 3200 
Q 2656 3528 2436 3728 
Q 2216 3928 1850 3928 
Q 1569 3928 1234 3808 
Q 900 3688 519 3450 
L 519 4475 
Q 925 4609 1322 4679 
Q 1719 4750 2100 4750 
Q 2938 4750 3402 4381 
Q 3866 4013 3866 3353 
Q 3866 2972 3669 2642 
Q 3472 2313 2841 1759 
L 1844 884 
z
" transform="scale(0.015625)"/>
       </defs>
       <use xlink:href="#DejaVuSans-Bold-31" transform="translate(0 0.765625)"/>
       <use xlink:href="#DejaVuSans-Bold-30" transform="translate(69.580078 0.765625)"/>
       <use xlink:href="#DejaVuSans-Bold-2212" transform="translate(140.117188 39.046875) scale(0.7)"/>
       <use xlink:href="#DejaVuSans-Bold-32" transform="translate(198.769531 39.046875) scale(0.7)"/>
      </g>
     </g>
    </g>
    <g id="xtick_3">
     <g id="line2d_3">
      <g>
       <use xlink:href="#m6d4b86e508" x="181.781818" y="302.448" style="stroke: #000000; stroke-width: 1.7"/>
      </g>
     </g>
     <g id="text_3">
      <!-- $\mathdefault{10^{-1}}$ -->
      <g transform="translate(166.721818 322.566125) scale(0.12 -0.12)">
       <use xlink:href="#DejaVuSans-Bold-31" transform="translate(0 0.684375)"/>
       <use xlink:href="#DejaVuSans-Bold-30" transform="translate(69.580078 0.684375)"/>
       <use xlink:href="#DejaVuSans-Bold-2212" transform="translate(140.117188 38.965625) scale(0.7)"/>
       <use xlink:href="#DejaVuSans-Bold-31" transform="translate(198.769531 38.965625) scale(0.7)"/>
      </g>
     </g>
    </g>
    <g id="xtick_4">
     <g id="line2d_4">
      <g>
       <use xlink:href="#m6d4b86e508" x="229.927273" y="302.448" style="stroke: #000000; stroke-width: 1.7"/>
      </g>
     </g>
     <g id="text_4">
      <!-- $\mathdefault{10^{0}}$ -->
      <g transform="translate(218.407273 322.566125) scale(0.12 -0.12)">
       <use xlink:href="#DejaVuSans-Bold-31" transform="translate(0 0.765625)"/>
       <use xlink:href="#DejaVuSans-Bold-30" transform="translate(69.580078 0.765625)"/>
       <use xlink:href="#DejaVuSans-Bold-30" transform="translate(140.117188 39.046875) scale(0.7)"/>
      </g>
     </g>
    </g>
    <g id="xtick_5">
     <g id="line2d_5">
      <g>
       <use xlink:href="#m6d4b86e508" x="278.072727" y="302.448" style="stroke: #000000; stroke-width: 1.7"/>
      </g>
     </g>
     <g id="text_5">
      <!-- $\mathdefault{10^{1}}$ -->
      <g transform="translate(266.552727 322.566125) scale(0.12 -0.12)">
       <use xlink:href="#DejaVuSans-Bold-31" transform="translate(0 0.684375)"/>
       <use xlink:href="#DejaVuSans-Bold-30" transform="translate(69.580078 0.684375)"/>
       <use xlink:href="#DejaVuSans-Bold-31" transform="translate(140.117188 38.965625) scale(0.7)"/>
      </g>
     </g>
    </g>
    <g id="xtick_6">
     <g id="line2d_6">
      <g>
       <use xlink:href="#m6d4b86e508" x="326.218182" y="302.448" style="stroke: #000000; stroke-width: 1.7"/>
      </g>
     </g>
     <g id="text_6">
      <!-- $\mathdefault{10^{2}}$ -->
      <g transform="translate(314.698182 322.566125) scale(0.12 -0.12)">
       <use xlink:href="#DejaVuSans-Bold-31" transform="translate(0 0.765625)"/>
       <use xlink:href="#DejaVuSans-Bold-30" transform="translate(69.580078 0.765625)"/>
       <use xlink:href="#DejaVuSans-Bold-32" transform="translate(140.117188 39.046875) scale(0.7)"/>
      </g>
     </g>
    </g>
    <g id="xtick_7">
     <g id="line2d_7">
      <g>
       <use xlink:href="#m6d4b86e508" x="374.363636" y="302.448" style="stroke: #000000; stroke-width: 1.7"/>
      </g>
     </g>
     <g id="text_7">
      <!-- $\mathdefault{10^{3}}$ -->
      <g transform="translate(362.843636 322.566125) scale(0.12 -0.12)">
       <use xlink:href="#DejaVuSans-Bold-31" transform="translate(0 0.765625)"/>
       <use xlink:href="#DejaVuSans-Bold-30" transform="translate(69.580078 0.765625)"/>
       <use xlink:href="#DejaVuSans-Bold-33" transform="translate(140.117188 39.046875) scale(0.7)"/>
      </g>
     </g>
    </g>
    <g id="xtick_8">
     <g id="line2d_8">
      <g>
       <use xlink:href="#m6d4b86e508" x="422.509091" y="302.448" style="stroke: #000000; stroke-width: 1.7"/>
      </g>
     </g>
     <g id="text_8">
      <!-- $\mathdefault{10^{4}}$ -->
      <g transform="translate(410.989091 322.566125) scale(0.12 -0.12)">
       <defs>
        <path id="DejaVuSans-Bold-34" d="M 2356 3675 
L 1038 1722 
L 2356 1722 
L 2356 3675 
z
M 2156 4666 
L 3494 4666 
L 3494 1722 
L 4159 1722 
L 4159 850 
L 3494 850 
L 3494 0 
L 2356 0 
L 2356 850 
L 288 850 
L 288 1881 
L 2156 4666 
z
" transform="scale(0.015625)"/>
       </defs>
       <use xlink:href="#DejaVuSans-Bold-31" transform="translate(0 0.684375)"/>
       <use xlink:href="#DejaVuSans-Bold-30" transform="translate(69.580078 0.684375)"/>
       <use xlink:href="#DejaVuSans-Bold-34" transform="translate(140.117188 38.965625) scale(0.7)"/>
      </g>
     </g>
    </g>
    <g id="xtick_9">
     <g id="line2d_9">
      <defs>
       <path id="mb48bbc9f51" d="M 0 0 
L 0 4 
" style="stroke: #000000; stroke-width: 1.7"/>
      </defs>
      <g>
       <use xlink:href="#mb48bbc9f51" x="70.997683" y="302.448" style="stroke: #000000; stroke-width: 1.7"/>
      </g>
     </g>
    </g>
    <g id="xtick_10">
     <g id="line2d_10">
      <g>
       <use xlink:href="#mb48bbc9f51" x="74.8099" y="302.448" style="stroke: #000000; stroke-width: 1.7"/>
      </g>
     </g>
    </g>
    <g id="xtick_11">
     <g id="line2d_11">
      <g>
       <use xlink:href="#mb48bbc9f51" x="78.033084" y="302.448" style="stroke: #000000; stroke-width: 1.7"/>
      </g>
     </g>
    </g>
    <g id="xtick_12">
     <g id="line2d_12">
      <g>
       <use xlink:href="#mb48bbc9f51" x="80.825132" y="302.448" style="stroke: #000000; stroke-width: 1.7"/>
      </g>
     </g>
    </g>
    <g id="xtick_13">
     <g id="line2d_13">
      <g>
       <use xlink:href="#mb48bbc9f51" x="83.287894" y="302.448" style="stroke: #000000; stroke-width: 1.7"/>
      </g>
     </g>
    </g>
    <g id="xtick_14">
     <g id="line2d_14">
      <g>
       <use xlink:href="#mb48bbc9f51" x="99.984135" y="302.448" style="stroke: #000000; stroke-width: 1.7"/>
      </g>
     </g>
    </g>
    <g id="xtick_15">
     <g id="line2d_15">
      <g>
       <use xlink:href="#mb48bbc9f51" x="108.462129" y="302.448" style="stroke: #000000; stroke-width: 1.7"/>
      </g>
     </g>
    </g>
    <g id="xtick_16">
     <g id="line2d_16">
      <g>
       <use xlink:href="#mb48bbc9f51" x="114.477361" y="302.448" style="stroke: #000000; stroke-width: 1.7"/>
      </g>
     </g>
    </g>
    <g id="xtick_17">
     <g id="line2d_17">
      <g>
       <use xlink:href="#mb48bbc9f51" x="119.143138" y="302.448" style="stroke: #000000; stroke-width: 1.7"/>
      </g>
     </g>
    </g>
    <g id="xtick_18">
     <g id="line2d_18">
      <g>
       <use xlink:href="#mb48bbc9f51" x="122.955355" y="302.448" style="stroke: #000000; stroke-width: 1.7"/>
      </g>
     </g>
    </g>
    <g id="xtick_19">
     <g id="line2d_19">
      <g>
       <use xlink:href="#mb48bbc9f51" x="126.178538" y="302.448" style="stroke: #000000; stroke-width: 1.7"/>
      </g>
     </g>
    </g>
    <g id="xtick_20">
     <g id="line2d_20">
      <g>
       <use xlink:href="#mb48bbc9f51" x="128.970587" y="302.448" style="stroke: #000000; stroke-width: 1.7"/>
      </g>
     </g>
    </g>
    <g id="xtick_21">
     <g id="line2d_21">
      <g>
       <use xlink:href="#mb48bbc9f51" x="131.433348" y="302.448" style="stroke: #000000; stroke-width: 1.7"/>
      </g>
     </g>
    </g>
    <g id="xtick_22">
     <g id="line2d_22">
      <g>
       <use xlink:href="#mb48bbc9f51" x="148.12959" y="302.448" style="stroke: #000000; stroke-width: 1.7"/>
      </g>
     </g>
    </g>
    <g id="xtick_23">
     <g id="line2d_23">
      <g>
       <use xlink:href="#mb48bbc9f51" x="156.607583" y="302.448" style="stroke: #000000; stroke-width: 1.7"/>
      </g>
     </g>
    </g>
    <g id="xtick_24">
     <g id="line2d_24">
      <g>
       <use xlink:href="#mb48bbc9f51" x="162.622816" y="302.448" style="stroke: #000000; stroke-width: 1.7"/>
      </g>
     </g>
    </g>
    <g id="xtick_25">
     <g id="line2d_25">
      <g>
       <use xlink:href="#mb48bbc9f51" x="167.288592" y="302.448" style="stroke: #000000; stroke-width: 1.7"/>
      </g>
     </g>
    </g>
    <g id="xtick_26">
     <g id="line2d_26">
      <g>
       <use xlink:href="#mb48bbc9f51" x="171.100809" y="302.448" style="stroke: #000000; stroke-width: 1.7"/>
      </g>
     </g>
    </g>
    <g id="xtick_27">
     <g id="line2d_27">
      <g>
       <use xlink:href="#mb48bbc9f51" x="174.323993" y="302.448" style="stroke: #000000; stroke-width: 1.7"/>
      </g>
     </g>
    </g>
    <g id="xtick_28">
     <g id="line2d_28">
      <g>
       <use xlink:href="#mb48bbc9f51" x="177.116042" y="302.448" style="stroke: #000000; stroke-width: 1.7"/>
      </g>
     </g>
    </g>
    <g id="xtick_29">
     <g id="line2d_29">
      <g>
       <use xlink:href="#mb48bbc9f51" x="179.578803" y="302.448" style="stroke: #000000; stroke-width: 1.7"/>
      </g>
     </g>
    </g>
    <g id="xtick_30">
     <g id="line2d_30">
      <g>
       <use xlink:href="#mb48bbc9f51" x="196.275044" y="302.448" style="stroke: #000000; stroke-width: 1.7"/>
      </g>
     </g>
    </g>
    <g id="xtick_31">
     <g id="line2d_31">
      <g>
       <use xlink:href="#mb48bbc9f51" x="204.753038" y="302.448" style="stroke: #000000; stroke-width: 1.7"/>
      </g>
     </g>
    </g>
    <g id="xtick_32">
     <g id="line2d_32">
      <g>
       <use xlink:href="#mb48bbc9f51" x="210.76827" y="302.448" style="stroke: #000000; stroke-width: 1.7"/>
      </g>
     </g>
    </g>
    <g id="xtick_33">
     <g id="line2d_33">
      <g>
       <use xlink:href="#mb48bbc9f51" x="215.434047" y="302.448" style="stroke: #000000; stroke-width: 1.7"/>
      </g>
     </g>
    </g>
    <g id="xtick_34">
     <g id="line2d_34">
      <g>
       <use xlink:href="#mb48bbc9f51" x="219.246264" y="302.448" style="stroke: #000000; stroke-width: 1.7"/>
      </g>
     </g>
    </g>
    <g id="xtick_35">
     <g id="line2d_35">
      <g>
       <use xlink:href="#mb48bbc9f51" x="222.469447" y="302.448" style="stroke: #000000; stroke-width: 1.7"/>
      </g>
     </g>
    </g>
    <g id="xtick_36">
     <g id="line2d_36">
      <g>
       <use xlink:href="#mb48bbc9f51" x="225.261496" y="302.448" style="stroke: #000000; stroke-width: 1.7"/>
      </g>
     </g>
    </g>
    <g id="xtick_37">
     <g id="line2d_37">
      <g>
       <use xlink:href="#mb48bbc9f51" x="227.724258" y="302.448" style="stroke: #000000; stroke-width: 1.7"/>
      </g>
     </g>
    </g>
    <g id="xtick_38">
     <g id="line2d_38">
      <g>
       <use xlink:href="#mb48bbc9f51" x="244.420499" y="302.448" style="stroke: #000000; stroke-width: 1.7"/>
      </g>
     </g>
    </g>
    <g id="xtick_39">
     <g id="line2d_39">
      <g>
       <use xlink:href="#mb48bbc9f51" x="252.898492" y="302.448" style="stroke: #000000; stroke-width: 1.7"/>
      </g>
     </g>
    </g>
    <g id="xtick_40">
     <g id="line2d_40">
      <g>
       <use xlink:href="#mb48bbc9f51" x="258.913725" y="302.448" style="stroke: #000000; stroke-width: 1.7"/>
      </g>
     </g>
    </g>
    <g id="xtick_41">
     <g id="line2d_41">
      <g>
       <use xlink:href="#mb48bbc9f51" x="263.579501" y="302.448" style="stroke: #000000; stroke-width: 1.7"/>
      </g>
     </g>
    </g>
    <g id="xtick_42">
     <g id="line2d_42">
      <g>
       <use xlink:href="#mb48bbc9f51" x="267.391718" y="302.448" style="stroke: #000000; stroke-width: 1.7"/>
      </g>
     </g>
    </g>
    <g id="xtick_43">
     <g id="line2d_43">
      <g>
       <use xlink:href="#mb48bbc9f51" x="270.614902" y="302.448" style="stroke: #000000; stroke-width: 1.7"/>
      </g>
     </g>
    </g>
    <g id="xtick_44">
     <g id="line2d_44">
      <g>
       <use xlink:href="#mb48bbc9f51" x="273.406951" y="302.448" style="stroke: #000000; stroke-width: 1.7"/>
      </g>
     </g>
    </g>
    <g id="xtick_45">
     <g id="line2d_45">
      <g>
       <use xlink:href="#mb48bbc9f51" x="275.869712" y="302.448" style="stroke: #000000; stroke-width: 1.7"/>
      </g>
     </g>
    </g>
    <g id="xtick_46">
     <g id="line2d_46">
      <g>
       <use xlink:href="#mb48bbc9f51" x="292.565953" y="302.448" style="stroke: #000000; stroke-width: 1.7"/>
      </g>
     </g>
    </g>
    <g id="xtick_47">
     <g id="line2d_47">
      <g>
       <use xlink:href="#mb48bbc9f51" x="301.043947" y="302.448" style="stroke: #000000; stroke-width: 1.7"/>
      </g>
     </g>
    </g>
    <g id="xtick_48">
     <g id="line2d_48">
      <g>
       <use xlink:href="#mb48bbc9f51" x="307.059179" y="302.448" style="stroke: #000000; stroke-width: 1.7"/>
      </g>
     </g>
    </g>
    <g id="xtick_49">
     <g id="line2d_49">
      <g>
       <use xlink:href="#mb48bbc9f51" x="311.724956" y="302.448" style="stroke: #000000; stroke-width: 1.7"/>
      </g>
     </g>
    </g>
    <g id="xtick_50">
     <g id="line2d_50">
      <g>
       <use xlink:href="#mb48bbc9f51" x="315.537173" y="302.448" style="stroke: #000000; stroke-width: 1.7"/>
      </g>
     </g>
    </g>
    <g id="xtick_51">
     <g id="line2d_51">
      <g>
       <use xlink:href="#mb48bbc9f51" x="318.760357" y="302.448" style="stroke: #000000; stroke-width: 1.7"/>
      </g>
     </g>
    </g>
    <g id="xtick_52">
     <g id="line2d_52">
      <g>
       <use xlink:href="#mb48bbc9f51" x="321.552405" y="302.448" style="stroke: #000000; stroke-width: 1.7"/>
      </g>
     </g>
    </g>
    <g id="xtick_53">
     <g id="line2d_53">
      <g>
       <use xlink:href="#mb48bbc9f51" x="324.015167" y="302.448" style="stroke: #000000; stroke-width: 1.7"/>
      </g>
     </g>
    </g>
    <g id="xtick_54">
     <g id="line2d_54">
      <g>
       <use xlink:href="#mb48bbc9f51" x="340.711408" y="302.448" style="stroke: #000000; stroke-width: 1.7"/>
      </g>
     </g>
    </g>
    <g id="xtick_55">
     <g id="line2d_55">
      <g>
       <use xlink:href="#mb48bbc9f51" x="349.189401" y="302.448" style="stroke: #000000; stroke-width: 1.7"/>
      </g>
     </g>
    </g>
    <g id="xtick_56">
     <g id="line2d_56">
      <g>
       <use xlink:href="#mb48bbc9f51" x="355.204634" y="302.448" style="stroke: #000000; stroke-width: 1.7"/>
      </g>
     </g>
    </g>
    <g id="xtick_57">
     <g id="line2d_57">
      <g>
       <use xlink:href="#mb48bbc9f51" x="359.87041" y="302.448" style="stroke: #000000; stroke-width: 1.7"/>
      </g>
     </g>
    </g>
    <g id="xtick_58">
     <g id="line2d_58">
      <g>
       <use xlink:href="#mb48bbc9f51" x="363.682627" y="302.448" style="stroke: #000000; stroke-width: 1.7"/>
      </g>
     </g>
    </g>
    <g id="xtick_59">
     <g id="line2d_59">
      <g>
       <use xlink:href="#mb48bbc9f51" x="366.905811" y="302.448" style="stroke: #000000; stroke-width: 1.7"/>
      </g>
     </g>
    </g>
    <g id="xtick_60">
     <g id="line2d_60">
      <g>
       <use xlink:href="#mb48bbc9f51" x="369.69786" y="302.448" style="stroke: #000000; stroke-width: 1.7"/>
      </g>
     </g>
    </g>
    <g id="xtick_61">
     <g id="line2d_61">
      <g>
       <use xlink:href="#mb48bbc9f51" x="372.160621" y="302.448" style="stroke: #000000; stroke-width: 1.7"/>
      </g>
     </g>
    </g>
    <g id="xtick_62">
     <g id="line2d_62">
      <g>
       <use xlink:href="#mb48bbc9f51" x="388.856862" y="302.448" style="stroke: #000000; stroke-width: 1.7"/>
      </g>
     </g>
    </g>
    <g id="xtick_63">
     <g id="line2d_63">
      <g>
       <use xlink:href="#mb48bbc9f51" x="397.334856" y="302.448" style="stroke: #000000; stroke-width: 1.7"/>
      </g>
     </g>
    </g>
    <g id="xtick_64">
     <g id="line2d_64">
      <g>
       <use xlink:href="#mb48bbc9f51" x="403.350088" y="302.448" style="stroke: #000000; stroke-width: 1.7"/>
      </g>
     </g>
    </g>
    <g id="xtick_65">
     <g id="line2d_65">
      <g>
       <use xlink:href="#mb48bbc9f51" x="408.015865" y="302.448" style="stroke: #000000; stroke-width: 1.7"/>
      </g>
     </g>
    </g>
    <g id="xtick_66">
     <g id="line2d_66">
      <g>
       <use xlink:href="#mb48bbc9f51" x="411.828082" y="302.448" style="stroke: #000000; stroke-width: 1.7"/>
      </g>
     </g>
    </g>
    <g id="xtick_67">
     <g id="line2d_67">
      <g>
       <use xlink:href="#mb48bbc9f51" x="415.051266" y="302.448" style="stroke: #000000; stroke-width: 1.7"/>
      </g>
     </g>
    </g>
    <g id="xtick_68">
     <g id="line2d_68">
      <g>
       <use xlink:href="#mb48bbc9f51" x="417.843314" y="302.448" style="stroke: #000000; stroke-width: 1.7"/>
      </g>
     </g>
    </g>
    <g id="xtick_69">
     <g id="line2d_69">
      <g>
       <use xlink:href="#mb48bbc9f51" x="420.306076" y="302.448" style="stroke: #000000; stroke-width: 1.7"/>
      </g>
     </g>
    </g>
    <g id="xtick_70">
     <g id="line2d_70">
      <g>
       <use xlink:href="#mb48bbc9f51" x="437.002317" y="302.448" style="stroke: #000000; stroke-width: 1.7"/>
      </g>
     </g>
    </g>
    <g id="text_9">
     <!-- $\mathbf{\tau}$ -->
     <g transform="translate(248.4704 342.19185) scale(0.1728 -0.1728)">
      <defs>
       <path id="DejaVuSans-Bold-3c4" d="M 134 2700 
L 134 3500 
L 3916 3500 
L 3916 2700 
L 2584 2700 
L 2584 1131 
Q 2584 731 2661 631 
Q 2738 531 2913 531 
Q 3091 531 3191 544 
L 3191 -44 
Q 2997 -122 2334 -122 
Q 2125 -122 1922 -63 
Q 1597 34 1506 319 
Q 1466 459 1466 728 
L 1466 2700 
L 134 2700 
z
" transform="scale(0.015625)"/>
      </defs>
      <use xlink:href="#DejaVuSans-Bold-3c4" transform="translate(0 0.3125)"/>
     </g>
    </g>
   </g>
   <g id="matplotlib.axis_2">
    <g id="ytick_1">
     <g id="line2d_71">
      <defs>
       <path id="m27862eb83c" d="M 0 0 
L -7.5 0 
" style="stroke: #000000; stroke-width: 1.7"/>
      </defs>
      <g>
       <use xlink:href="#m27862eb83c" x="68.64" y="286.950481" style="stroke: #000000; stroke-width: 1.7"/>
      </g>
     </g>
     <g id="text_10">
      <!-- 0.0 -->
      <g transform="translate(32.13175 292.421356) scale(0.144 -0.144)">
       <defs>
        <path id="DejaVuSans-Bold-2e" d="M 653 1209 
L 1778 1209 
L 1778 0 
L 653 0 
L 653 1209 
z
" transform="scale(0.015625)"/>
       </defs>
       <use xlink:href="#DejaVuSans-Bold-30"/>
       <use xlink:href="#DejaVuSans-Bold-2e" x="69.580078"/>
       <use xlink:href="#DejaVuSans-Bold-30" x="107.568359"/>
      </g>
     </g>
    </g>
    <g id="ytick_2">
     <g id="line2d_72">
      <g>
       <use xlink:href="#m27862eb83c" x="68.64" y="199.319227" style="stroke: #000000; stroke-width: 1.7"/>
      </g>
     </g>
     <g id="text_11">
      <!-- 0.3 -->
      <g transform="translate(32.13175 204.790102) scale(0.144 -0.144)">
       <use xlink:href="#DejaVuSans-Bold-30"/>
       <use xlink:href="#DejaVuSans-Bold-2e" x="69.580078"/>
       <use xlink:href="#DejaVuSans-Bold-33" x="107.568359"/>
      </g>
     </g>
    </g>
    <g id="ytick_3">
     <g id="line2d_73">
      <g>
       <use xlink:href="#m27862eb83c" x="68.64" y="111.687973" style="stroke: #000000; stroke-width: 1.7"/>
      </g>
     </g>
     <g id="text_12">
      <!-- 0.7 -->
      <g transform="translate(32.13175 117.158848) scale(0.144 -0.144)">
       <defs>
        <path id="DejaVuSans-Bold-37" d="M 428 4666 
L 3944 4666 
L 3944 3988 
L 2125 0 
L 953 0 
L 2675 3781 
L 428 3781 
L 428 4666 
z
" transform="scale(0.015625)"/>
       </defs>
       <use xlink:href="#DejaVuSans-Bold-30"/>
       <use xlink:href="#DejaVuSans-Bold-2e" x="69.580078"/>
       <use xlink:href="#DejaVuSans-Bold-37" x="107.568359"/>
      </g>
     </g>
    </g>
    <g id="ytick_4">
     <g id="line2d_74">
      <g>
       <use xlink:href="#m27862eb83c" x="68.64" y="24.05672" style="stroke: #000000; stroke-width: 1.7"/>
      </g>
     </g>
     <g id="text_13">
      <!-- 1.0 -->
      <g transform="translate(32.13175 29.527595) scale(0.144 -0.144)">
       <use xlink:href="#DejaVuSans-Bold-31"/>
       <use xlink:href="#DejaVuSans-Bold-2e" x="69.580078"/>
       <use xlink:href="#DejaVuSans-Bold-30" x="107.568359"/>
      </g>
     </g>
    </g>
    <g id="text_14">
     <!-- $\mathbf{S}$ -->
     <g transform="translate(24.53805 162.9312) rotate(-90) scale(0.1728 -0.1728)">
      <defs>
       <path id="DejaVuSans-Bold-53" d="M 3834 4519 
L 3834 3531 
Q 3450 3703 3084 3790 
Q 2719 3878 2394 3878 
Q 1963 3878 1756 3759 
Q 1550 3641 1550 3391 
Q 1550 3203 1689 3098 
Q 1828 2994 2194 2919 
L 2706 2816 
Q 3484 2659 3812 2340 
Q 4141 2022 4141 1434 
Q 4141 663 3683 286 
Q 3225 -91 2284 -91 
Q 1841 -91 1394 -6 
Q 947 78 500 244 
L 500 1259 
Q 947 1022 1364 901 
Q 1781 781 2169 781 
Q 2563 781 2772 912 
Q 2981 1044 2981 1288 
Q 2981 1506 2839 1625 
Q 2697 1744 2272 1838 
L 1806 1941 
Q 1106 2091 782 2419 
Q 459 2747 459 3303 
Q 459 4000 909 4375 
Q 1359 4750 2203 4750 
Q 2588 4750 2994 4692 
Q 3400 4634 3834 4519 
z
" transform="scale(0.015625)"/>
      </defs>
      <use xlink:href="#DejaVuSans-Bold-53" transform="translate(0 0.78125)"/>
     </g>
    </g>
   </g>
   <g id="line2d_75">
    <path d="M 85.490909 24.056734 
L 158.755731 24.158051 
L 171.154393 24.384726 
L 179.044451 24.745212 
L 184.680207 25.220378 
L 189.188811 25.819969 
L 192.570265 26.456732 
L 195.951718 27.311241 
L 199.333171 28.449189 
L 201.587473 29.403922 
L 203.841776 30.546276 
L 206.096078 31.904835 
L 208.35038 33.509194 
L 210.604682 35.38858 
L 212.858984 37.569992 
L 215.113287 40.075884 
L 217.367589 42.921579 
L 219.621891 46.112705 
L 221.876193 49.643075 
L 224.130496 53.493522 
L 227.511949 59.796434 
L 230.893402 66.594771 
L 236.529158 78.545572 
L 246.673518 100.149305 
L 253.436424 113.940226 
L 260.199331 127.25041 
L 268.089389 142.287334 
L 277.106598 158.922152 
L 288.378109 179.185284 
L 299.64962 198.99309 
L 310.921131 218.86186 
L 325.574095 245.080617 
L 328.955549 250.662724 
L 332.337002 255.8639 
L 335.718455 260.629918 
L 339.099909 264.934627 
L 342.481362 268.769801 
L 345.862815 272.138543 
L 349.244269 275.055312 
L 352.625722 277.548313 
L 356.007175 279.657949 
L 359.388629 281.429083 
L 362.770082 282.900817 
L 366.151535 284.100377 
L 369.532989 285.045357 
L 372.914442 285.752736 
L 376.295895 286.248182 
L 380.8045 286.644961 
L 386.440255 286.863773 
L 396.584615 286.946628 
L 422.509091 286.950481 
L 422.509091 286.950481 
" clip-path="url(#pd31a842d18)" style="fill: none; stroke: #ffa500; stroke-opacity: 0.7; stroke-width: 4; stroke-linecap: square"/>
   </g>
   <g id="line2d_76">
    <path d="M 85.490909 24.056753 
L 157.62858 24.167136 
L 168.900091 24.38 
L 176.790149 24.740562 
L 182.425905 25.221709 
L 186.934509 25.836779 
L 190.315962 26.498503 
L 193.697416 27.398993 
L 195.951718 28.170769 
L 198.20602 29.113144 
L 200.460322 30.26019 
L 202.714625 31.65106 
L 204.968927 33.329916 
L 207.223229 35.345382 
L 209.477531 37.749335 
L 211.731833 40.594784 
L 213.986136 43.932663 
L 216.240438 47.807418 
L 218.49474 52.251499 
L 220.749042 57.279176 
L 223.003344 62.880515 
L 225.257647 69.016783 
L 228.6391 79.06496 
L 233.147704 93.476233 
L 239.910611 115.321355 
L 244.419216 129.038474 
L 248.92782 141.853301 
L 253.436424 153.901168 
L 257.945029 165.361411 
L 263.580784 179.041471 
L 269.21654 192.117602 
L 274.852296 204.664846 
L 290.632411 239.240325 
L 295.141016 250.047996 
L 300.776771 263.539724 
L 303.031073 268.474888 
L 305.285375 272.907569 
L 307.539678 276.716058 
L 309.79398 279.832407 
L 310.921131 281.126668 
L 312.048282 282.25023 
L 313.175433 283.211209 
L 314.302584 284.020456 
L 316.556887 285.237088 
L 318.811189 286.017266 
L 321.065491 286.480843 
L 323.319793 286.734066 
L 326.701247 286.894364 
L 334.591304 286.949675 
L 422.509091 286.950481 
L 422.509091 286.950481 
" clip-path="url(#pd31a842d18)" style="fill: none; stroke: #008000; stroke-opacity: 0.7; stroke-width: 4; stroke-linecap: square"/>
   </g>
   <g id="line2d_77">
    <path d="M 85.490909 24.056917 
L 148.611371 24.169536 
L 161.010033 24.418399 
L 168.900091 24.809021 
L 174.535847 25.317837 
L 179.044451 25.953146 
L 182.425905 26.621887 
L 185.807358 27.51225 
L 189.188811 28.688918 
L 191.443113 29.670507 
L 193.697416 30.84038 
L 195.951718 32.227473 
L 198.20602 33.862636 
L 200.460322 35.777837 
L 202.714625 38.005041 
L 204.968927 40.574748 
L 207.223229 43.514237 
L 209.477531 46.845624 
L 211.731833 50.583927 
L 213.986136 54.735384 
L 216.240438 59.296333 
L 218.49474 64.252924 
L 221.876193 72.376493 
L 225.257647 81.227893 
L 228.6391 90.682172 
L 233.147704 104.026446 
L 237.656309 118.03973 
L 243.292064 136.381113 
L 248.92782 155.64661 
L 254.563576 175.77563 
L 265.835087 216.501428 
L 269.21654 227.891005 
L 272.597993 238.452077 
L 274.852296 244.931739 
L 277.106598 250.910447 
L 279.3609 256.359218 
L 281.615202 261.262898 
L 283.869504 265.619389 
L 286.123807 269.438559 
L 288.378109 272.740969 
L 290.632411 275.556435 
L 292.886713 277.922348 
L 295.141016 279.881729 
L 297.395318 281.481045 
L 299.64962 282.767962 
L 301.903922 283.789221 
L 304.158224 284.588862 
L 306.412527 285.206937 
L 309.79398 285.869446 
L 313.175433 286.299634 
L 317.684038 286.636615 
L 324.446944 286.859975 
L 335.718455 286.9447 
L 413.491882 286.950481 
L 422.509091 286.950481 
L 422.509091 286.950481 
" clip-path="url(#pd31a842d18)" style="fill: none; stroke: #a52a2a; stroke-opacity: 0.7; stroke-width: 4; stroke-linecap: square"/>
   </g>
   <g id="patch_3">
    <path d="M 68.64 302.448 
L 68.64 10.8 
" style="fill: none; stroke: #000000; stroke-width: 0.8; stroke-linejoin: miter; stroke-linecap: square"/>
   </g>
   <g id="patch_4">
    <path d="M 439.36 302.448 
L 439.36 10.8 
" style="fill: none; stroke: #000000; stroke-width: 0.8; stroke-linejoin: miter; stroke-linecap: square"/>
   </g>
   <g id="patch_5">
    <path d="M 68.64 302.448 
L 439.36 302.448 
" style="fill: none; stroke: #000000; stroke-width: 0.8; stroke-linejoin: miter; stroke-linecap: square"/>
   </g>
   <g id="patch_6">
    <path d="M 68.64 10.8 
L 439.36 10.8 
" style="fill: none; stroke: #000000; stroke-width: 0.8; stroke-linejoin: miter; stroke-linecap: square"/>
   </g>
   <g id="legend_1">
    <g id="patch_7">
     <path d="M 295.91125 86.3055 
L 429.28 86.3055 
Q 432.16 86.3055 432.16 83.4255 
L 432.16 20.88 
Q 432.16 18 429.28 18 
L 295.91125 18 
Q 293.03125 18 293.03125 20.88 
L 293.03125 83.4255 
Q 293.03125 86.3055 295.91125 86.3055 
z
" style="fill: #ffffff; opacity: 0.8; stroke: #cccccc; stroke-linejoin: miter"/>
    </g>
    <g id="line2d_78">
     <path d="M 298.79125 30.23775 
L 313.19125 30.23775 
L 327.59125 30.23775 
" style="fill: none; stroke: #ffa500; stroke-opacity: 0.7; stroke-width: 4; stroke-linecap: square"/>
    </g>
    <g id="text_15">
     <!-- ErdsRnyi -->
     <g transform="translate(339.11125 35.27775) scale(0.144 -0.144)">
      <defs>
       <path id="DejaVuSans-45" d="M 628 4666 
L 3578 4666 
L 3578 4134 
L 1259 4134 
L 1259 2753 
L 3481 2753 
L 3481 2222 
L 1259 2222 
L 1259 531 
L 3634 531 
L 3634 0 
L 628 0 
L 628 4666 
z
" transform="scale(0.015625)"/>
       <path id="DejaVuSans-72" d="M 2631 2963 
Q 2534 3019 2420 3045 
Q 2306 3072 2169 3072 
Q 1681 3072 1420 2755 
Q 1159 2438 1159 1844 
L 1159 0 
L 581 0 
L 581 3500 
L 1159 3500 
L 1159 2956 
Q 1341 3275 1631 3429 
Q 1922 3584 2338 3584 
Q 2397 3584 2469 3576 
Q 2541 3569 2628 3553 
L 2631 2963 
z
" transform="scale(0.015625)"/>
       <path id="DejaVuSans-64" d="M 2906 2969 
L 2906 4863 
L 3481 4863 
L 3481 0 
L 2906 0 
L 2906 525 
Q 2725 213 2448 61 
Q 2172 -91 1784 -91 
Q 1150 -91 751 415 
Q 353 922 353 1747 
Q 353 2572 751 3078 
Q 1150 3584 1784 3584 
Q 2172 3584 2448 3432 
Q 2725 3281 2906 2969 
z
M 947 1747 
Q 947 1113 1208 752 
Q 1469 391 1925 391 
Q 2381 391 2643 752 
Q 2906 1113 2906 1747 
Q 2906 2381 2643 2742 
Q 2381 3103 1925 3103 
Q 1469 3103 1208 2742 
Q 947 2381 947 1747 
z
" transform="scale(0.015625)"/>
       <path id="DejaVuSans-151" d="M 2892 5119 
L 3448 5119 
L 2673 3944 
L 2251 3944 
L 2892 5119 
z
M 1848 5119 
L 2379 5119 
L 1682 3944 
L 1254 3944 
L 1848 5119 
z
M 1959 3097 
Q 1497 3097 1228 2736 
Q 959 2375 959 1747 
Q 959 1119 1226 758 
Q 1494 397 1959 397 
Q 2419 397 2687 759 
Q 2956 1122 2956 1747 
Q 2956 2369 2687 2733 
Q 2419 3097 1959 3097 
z
M 1959 3584 
Q 2709 3584 3137 3096 
Q 3566 2609 3566 1747 
Q 3566 888 3137 398 
Q 2709 -91 1959 -91 
Q 1206 -91 779 398 
Q 353 888 353 1747 
Q 353 2609 779 3096 
Q 1206 3584 1959 3584 
z
" transform="scale(0.015625)"/>
       <path id="DejaVuSans-73" d="M 2834 3397 
L 2834 2853 
Q 2591 2978 2328 3040 
Q 2066 3103 1784 3103 
Q 1356 3103 1142 2972 
Q 928 2841 928 2578 
Q 928 2378 1081 2264 
Q 1234 2150 1697 2047 
L 1894 2003 
Q 2506 1872 2764 1633 
Q 3022 1394 3022 966 
Q 3022 478 2636 193 
Q 2250 -91 1575 -91 
Q 1294 -91 989 -36 
Q 684 19 347 128 
L 347 722 
Q 666 556 975 473 
Q 1284 391 1588 391 
Q 1994 391 2212 530 
Q 2431 669 2431 922 
Q 2431 1156 2273 1281 
Q 2116 1406 1581 1522 
L 1381 1569 
Q 847 1681 609 1914 
Q 372 2147 372 2553 
Q 372 3047 722 3315 
Q 1072 3584 1716 3584 
Q 2034 3584 2315 3537 
Q 2597 3491 2834 3397 
z
" transform="scale(0.015625)"/>
       <path id="DejaVuSans-2013" d="M 313 1978 
L 2888 1978 
L 2888 1528 
L 313 1528 
L 313 1978 
z
" transform="scale(0.015625)"/>
       <path id="DejaVuSans-52" d="M 2841 2188 
Q 3044 2119 3236 1894 
Q 3428 1669 3622 1275 
L 4263 0 
L 3584 0 
L 2988 1197 
Q 2756 1666 2539 1819 
Q 2322 1972 1947 1972 
L 1259 1972 
L 1259 0 
L 628 0 
L 628 4666 
L 2053 4666 
Q 2853 4666 3247 4331 
Q 3641 3997 3641 3322 
Q 3641 2881 3436 2590 
Q 3231 2300 2841 2188 
z
M 1259 4147 
L 1259 2491 
L 2053 2491 
Q 2509 2491 2742 2702 
Q 2975 2913 2975 3322 
Q 2975 3731 2742 3939 
Q 2509 4147 2053 4147 
L 1259 4147 
z
" transform="scale(0.015625)"/>
       <path id="DejaVuSans-e9" d="M 3597 1894 
L 3597 1613 
L 953 1613 
Q 991 1019 1311 708 
Q 1631 397 2203 397 
Q 2534 397 2845 478 
Q 3156 559 3463 722 
L 3463 178 
Q 3153 47 2828 -22 
Q 2503 -91 2169 -91 
Q 1331 -91 842 396 
Q 353 884 353 1716 
Q 353 2575 817 3079 
Q 1281 3584 2069 3584 
Q 2775 3584 3186 3129 
Q 3597 2675 3597 1894 
z
M 3022 2063 
Q 3016 2534 2758 2815 
Q 2500 3097 2075 3097 
Q 1594 3097 1305 2825 
Q 1016 2553 972 2059 
L 3022 2063 
z
M 2466 5119 
L 3088 5119 
L 2070 3944 
L 1591 3944 
L 2466 5119 
z
" transform="scale(0.015625)"/>
       <path id="DejaVuSans-6e" d="M 3513 2113 
L 3513 0 
L 2938 0 
L 2938 2094 
Q 2938 2591 2744 2837 
Q 2550 3084 2163 3084 
Q 1697 3084 1428 2787 
Q 1159 2491 1159 1978 
L 1159 0 
L 581 0 
L 581 3500 
L 1159 3500 
L 1159 2956 
Q 1366 3272 1645 3428 
Q 1925 3584 2291 3584 
Q 2894 3584 3203 3211 
Q 3513 2838 3513 2113 
z
" transform="scale(0.015625)"/>
       <path id="DejaVuSans-79" d="M 2059 -325 
Q 1816 -950 1584 -1140 
Q 1353 -1331 966 -1331 
L 506 -1331 
L 506 -850 
L 844 -850 
Q 1081 -850 1212 -737 
Q 1344 -625 1503 -206 
L 1606 56 
L 191 3500 
L 800 3500 
L 1894 763 
L 2988 3500 
L 3597 3500 
L 2059 -325 
z
" transform="scale(0.015625)"/>
       <path id="DejaVuSans-69" d="M 603 3500 
L 1178 3500 
L 1178 0 
L 603 0 
L 603 3500 
z
M 603 4863 
L 1178 4863 
L 1178 4134 
L 603 4134 
L 603 4863 
z
" transform="scale(0.015625)"/>
      </defs>
      <use xlink:href="#DejaVuSans-45"/>
      <use xlink:href="#DejaVuSans-72" x="63.183594"/>
      <use xlink:href="#DejaVuSans-64" x="102.546875"/>
      <use xlink:href="#DejaVuSans-151" x="166.023438"/>
      <use xlink:href="#DejaVuSans-73" x="227.205078"/>
      <use xlink:href="#DejaVuSans-2013" x="279.304688"/>
      <use xlink:href="#DejaVuSans-52" x="329.304688"/>
      <use xlink:href="#DejaVuSans-e9" x="394.287109"/>
      <use xlink:href="#DejaVuSans-6e" x="455.810547"/>
      <use xlink:href="#DejaVuSans-79" x="519.189453"/>
      <use xlink:href="#DejaVuSans-69" x="578.369141"/>
     </g>
    </g>
    <g id="line2d_79">
     <path d="M 298.79125 51.37425 
L 313.19125 51.37425 
L 327.59125 51.37425 
" style="fill: none; stroke: #008000; stroke-opacity: 0.7; stroke-width: 4; stroke-linecap: square"/>
    </g>
    <g id="text_16">
     <!-- Small-world -->
     <g transform="translate(339.11125 56.41425) scale(0.144 -0.144)">
      <defs>
       <path id="DejaVuSans-53" d="M 3425 4513 
L 3425 3897 
Q 3066 4069 2747 4153 
Q 2428 4238 2131 4238 
Q 1616 4238 1336 4038 
Q 1056 3838 1056 3469 
Q 1056 3159 1242 3001 
Q 1428 2844 1947 2747 
L 2328 2669 
Q 3034 2534 3370 2195 
Q 3706 1856 3706 1288 
Q 3706 609 3251 259 
Q 2797 -91 1919 -91 
Q 1588 -91 1214 -16 
Q 841 59 441 206 
L 441 856 
Q 825 641 1194 531 
Q 1563 422 1919 422 
Q 2459 422 2753 634 
Q 3047 847 3047 1241 
Q 3047 1584 2836 1778 
Q 2625 1972 2144 2069 
L 1759 2144 
Q 1053 2284 737 2584 
Q 422 2884 422 3419 
Q 422 4038 858 4394 
Q 1294 4750 2059 4750 
Q 2388 4750 2728 4690 
Q 3069 4631 3425 4513 
z
" transform="scale(0.015625)"/>
       <path id="DejaVuSans-6d" d="M 3328 2828 
Q 3544 3216 3844 3400 
Q 4144 3584 4550 3584 
Q 5097 3584 5394 3201 
Q 5691 2819 5691 2113 
L 5691 0 
L 5113 0 
L 5113 2094 
Q 5113 2597 4934 2840 
Q 4756 3084 4391 3084 
Q 3944 3084 3684 2787 
Q 3425 2491 3425 1978 
L 3425 0 
L 2847 0 
L 2847 2094 
Q 2847 2600 2669 2842 
Q 2491 3084 2119 3084 
Q 1678 3084 1418 2786 
Q 1159 2488 1159 1978 
L 1159 0 
L 581 0 
L 581 3500 
L 1159 3500 
L 1159 2956 
Q 1356 3278 1631 3431 
Q 1906 3584 2284 3584 
Q 2666 3584 2933 3390 
Q 3200 3197 3328 2828 
z
" transform="scale(0.015625)"/>
       <path id="DejaVuSans-61" d="M 2194 1759 
Q 1497 1759 1228 1600 
Q 959 1441 959 1056 
Q 959 750 1161 570 
Q 1363 391 1709 391 
Q 2188 391 2477 730 
Q 2766 1069 2766 1631 
L 2766 1759 
L 2194 1759 
z
M 3341 1997 
L 3341 0 
L 2766 0 
L 2766 531 
Q 2569 213 2275 61 
Q 1981 -91 1556 -91 
Q 1019 -91 701 211 
Q 384 513 384 1019 
Q 384 1609 779 1909 
Q 1175 2209 1959 2209 
L 2766 2209 
L 2766 2266 
Q 2766 2663 2505 2880 
Q 2244 3097 1772 3097 
Q 1472 3097 1187 3025 
Q 903 2953 641 2809 
L 641 3341 
Q 956 3463 1253 3523 
Q 1550 3584 1831 3584 
Q 2591 3584 2966 3190 
Q 3341 2797 3341 1997 
z
" transform="scale(0.015625)"/>
       <path id="DejaVuSans-6c" d="M 603 4863 
L 1178 4863 
L 1178 0 
L 603 0 
L 603 4863 
z
" transform="scale(0.015625)"/>
       <path id="DejaVuSans-2d" d="M 313 2009 
L 1997 2009 
L 1997 1497 
L 313 1497 
L 313 2009 
z
" transform="scale(0.015625)"/>
       <path id="DejaVuSans-77" d="M 269 3500 
L 844 3500 
L 1563 769 
L 2278 3500 
L 2956 3500 
L 3675 769 
L 4391 3500 
L 4966 3500 
L 4050 0 
L 3372 0 
L 2619 2869 
L 1863 0 
L 1184 0 
L 269 3500 
z
" transform="scale(0.015625)"/>
       <path id="DejaVuSans-6f" d="M 1959 3097 
Q 1497 3097 1228 2736 
Q 959 2375 959 1747 
Q 959 1119 1226 758 
Q 1494 397 1959 397 
Q 2419 397 2687 759 
Q 2956 1122 2956 1747 
Q 2956 2369 2687 2733 
Q 2419 3097 1959 3097 
z
M 1959 3584 
Q 2709 3584 3137 3096 
Q 3566 2609 3566 1747 
Q 3566 888 3137 398 
Q 2709 -91 1959 -91 
Q 1206 -91 779 398 
Q 353 888 353 1747 
Q 353 2609 779 3096 
Q 1206 3584 1959 3584 
z
" transform="scale(0.015625)"/>
      </defs>
      <use xlink:href="#DejaVuSans-53"/>
      <use xlink:href="#DejaVuSans-6d" x="63.476562"/>
      <use xlink:href="#DejaVuSans-61" x="160.888672"/>
      <use xlink:href="#DejaVuSans-6c" x="222.167969"/>
      <use xlink:href="#DejaVuSans-6c" x="249.951172"/>
      <use xlink:href="#DejaVuSans-2d" x="277.734375"/>
      <use xlink:href="#DejaVuSans-77" x="313.818359"/>
      <use xlink:href="#DejaVuSans-6f" x="395.605469"/>
      <use xlink:href="#DejaVuSans-72" x="456.787109"/>
      <use xlink:href="#DejaVuSans-6c" x="497.900391"/>
      <use xlink:href="#DejaVuSans-64" x="525.683594"/>
     </g>
    </g>
    <g id="line2d_80">
     <path d="M 298.79125 72.51075 
L 313.19125 72.51075 
L 327.59125 72.51075 
" style="fill: none; stroke: #a52a2a; stroke-opacity: 0.7; stroke-width: 4; stroke-linecap: square"/>
    </g>
    <g id="text_17">
     <!-- 2D-Grid -->
     <g transform="translate(339.11125 77.55075) scale(0.144 -0.144)">
      <defs>
       <path id="DejaVuSans-32" d="M 1228 531 
L 3431 531 
L 3431 0 
L 469 0 
L 469 531 
Q 828 903 1448 1529 
Q 2069 2156 2228 2338 
Q 2531 2678 2651 2914 
Q 2772 3150 2772 3378 
Q 2772 3750 2511 3984 
Q 2250 4219 1831 4219 
Q 1534 4219 1204 4116 
Q 875 4013 500 3803 
L 500 4441 
Q 881 4594 1212 4672 
Q 1544 4750 1819 4750 
Q 2544 4750 2975 4387 
Q 3406 4025 3406 3419 
Q 3406 3131 3298 2873 
Q 3191 2616 2906 2266 
Q 2828 2175 2409 1742 
Q 1991 1309 1228 531 
z
" transform="scale(0.015625)"/>
       <path id="DejaVuSans-44" d="M 1259 4147 
L 1259 519 
L 2022 519 
Q 2988 519 3436 956 
Q 3884 1394 3884 2338 
Q 3884 3275 3436 3711 
Q 2988 4147 2022 4147 
L 1259 4147 
z
M 628 4666 
L 1925 4666 
Q 3281 4666 3915 4102 
Q 4550 3538 4550 2338 
Q 4550 1131 3912 565 
Q 3275 0 1925 0 
L 628 0 
L 628 4666 
z
" transform="scale(0.015625)"/>
       <path id="DejaVuSans-47" d="M 3809 666 
L 3809 1919 
L 2778 1919 
L 2778 2438 
L 4434 2438 
L 4434 434 
Q 4069 175 3628 42 
Q 3188 -91 2688 -91 
Q 1594 -91 976 548 
Q 359 1188 359 2328 
Q 359 3472 976 4111 
Q 1594 4750 2688 4750 
Q 3144 4750 3555 4637 
Q 3966 4525 4313 4306 
L 4313 3634 
Q 3963 3931 3569 4081 
Q 3175 4231 2741 4231 
Q 1884 4231 1454 3753 
Q 1025 3275 1025 2328 
Q 1025 1384 1454 906 
Q 1884 428 2741 428 
Q 3075 428 3337 486 
Q 3600 544 3809 666 
z
" transform="scale(0.015625)"/>
      </defs>
      <use xlink:href="#DejaVuSans-32"/>
      <use xlink:href="#DejaVuSans-44" x="63.623047"/>
      <use xlink:href="#DejaVuSans-2d" x="140.625"/>
      <use xlink:href="#DejaVuSans-47" x="180.333984"/>
      <use xlink:href="#DejaVuSans-72" x="257.824219"/>
      <use xlink:href="#DejaVuSans-69" x="298.9375"/>
      <use xlink:href="#DejaVuSans-64" x="326.720703"/>
     </g>
    </g>
   </g>
  </g>
  <g id="axes_2">
   <g id="matplotlib.axis_3">
    <g id="ytick_5">
     <g id="line2d_81">
      <defs>
       <path id="m6144be197e" d="M 0 0 
L 3.5 0 
" style="stroke: #000000; stroke-width: 0.8"/>
      </defs>
      <g>
       <use xlink:href="#m6144be197e" x="439.36" y="289.191273" style="stroke: #000000; stroke-width: 0.8"/>
      </g>
     </g>
     <g id="text_18">
      <!-- 0.0 -->
      <g transform="translate(446.36 294.662148) scale(0.144 -0.144)">
       <use xlink:href="#DejaVuSans-Bold-30"/>
       <use xlink:href="#DejaVuSans-Bold-2e" x="69.580078"/>
       <use xlink:href="#DejaVuSans-Bold-30" x="107.568359"/>
      </g>
     </g>
    </g>
    <g id="ytick_6">
     <g id="line2d_82">
      <g>
       <use xlink:href="#m6144be197e" x="439.36" y="200.813091" style="stroke: #000000; stroke-width: 0.8"/>
      </g>
     </g>
     <g id="text_19">
      <!-- 0.1 -->
      <g transform="translate(446.36 206.283966) scale(0.144 -0.144)">
       <use xlink:href="#DejaVuSans-Bold-30"/>
       <use xlink:href="#DejaVuSans-Bold-2e" x="69.580078"/>
       <use xlink:href="#DejaVuSans-Bold-31" x="107.568359"/>
      </g>
     </g>
    </g>
    <g id="ytick_7">
     <g id="line2d_83">
      <g>
       <use xlink:href="#m6144be197e" x="439.36" y="112.434909" style="stroke: #000000; stroke-width: 0.8"/>
      </g>
     </g>
     <g id="text_20">
      <!-- 0.2 -->
      <g transform="translate(446.36 117.905784) scale(0.144 -0.144)">
       <use xlink:href="#DejaVuSans-Bold-30"/>
       <use xlink:href="#DejaVuSans-Bold-2e" x="69.580078"/>
       <use xlink:href="#DejaVuSans-Bold-32" x="107.568359"/>
      </g>
     </g>
    </g>
    <g id="ytick_8">
     <g id="line2d_84">
      <g>
       <use xlink:href="#m6144be197e" x="439.36" y="24.056727" style="stroke: #000000; stroke-width: 0.8"/>
      </g>
     </g>
     <g id="text_21">
      <!-- 0.3 -->
      <g transform="translate(446.36 29.527602) scale(0.144 -0.144)">
       <use xlink:href="#DejaVuSans-Bold-30"/>
       <use xlink:href="#DejaVuSans-Bold-2e" x="69.580078"/>
       <use xlink:href="#DejaVuSans-Bold-33" x="107.568359"/>
      </g>
     </g>
    </g>
    <g id="text_22">
     <!-- C -->
     <g transform="translate(488.99835 162.96495) rotate(-90) scale(0.1728 -0.1728)">
      <defs>
       <path id="DejaVuSans-Bold-43" d="M 4288 256 
Q 3956 84 3597 -3 
Q 3238 -91 2847 -91 
Q 1681 -91 1000 561 
Q 319 1213 319 2328 
Q 319 3447 1000 4098 
Q 1681 4750 2847 4750 
Q 3238 4750 3597 4662 
Q 3956 4575 4288 4403 
L 4288 3438 
Q 3953 3666 3628 3772 
Q 3303 3878 2944 3878 
Q 2300 3878 1931 3465 
Q 1563 3053 1563 2328 
Q 1563 1606 1931 1193 
Q 2300 781 2944 781 
Q 3303 781 3628 887 
Q 3953 994 4288 1222 
L 4288 256 
z
" transform="scale(0.015625)"/>
      </defs>
      <use xlink:href="#DejaVuSans-Bold-43"/>
     </g>
    </g>
   </g>
   <g id="line2d_85">
    <path d="M 85.490909 289.190629 
L 139.594162 289.078319 
L 150.865673 288.861184 
L 158.755731 288.493864 
L 164.391487 288.003896 
L 168.900091 287.377204 
L 172.281545 286.702033 
L 175.662998 285.781066 
L 177.9173 284.989357 
L 180.171602 284.019285 
L 182.425905 282.833092 
L 184.680207 281.386129 
L 186.934509 279.62612 
L 189.188811 277.492609 
L 191.443113 274.91677 
L 193.697416 271.821818 
L 195.951718 268.124354 
L 198.20602 263.737054 
L 200.460322 258.573179 
L 202.714625 252.553414 
L 204.968927 245.615413 
L 207.223229 237.726167 
L 209.477531 228.896724 
L 211.731833 219.19794 
L 215.113287 203.359452 
L 221.876193 170.585184 
L 224.130496 160.745587 
L 226.384798 152.113794 
L 227.511949 148.350542 
L 228.6391 144.994442 
L 229.766251 142.063668 
L 230.893402 139.567052 
L 232.020553 137.504035 
L 233.147704 135.865054 
L 234.274856 134.632315 
L 235.402007 133.780892 
L 236.529158 133.28005 
L 237.656309 133.094709 
L 238.78346 133.186937 
L 239.910611 133.517392 
L 241.037762 134.046644 
L 243.292064 135.550133 
L 245.546367 137.419384 
L 252.309273 143.289755 
L 255.690727 145.807069 
L 259.07218 148.027936 
L 264.707936 151.398046 
L 269.21654 153.90302 
L 272.597993 155.56087 
L 275.979447 156.932234 
L 279.3609 158.01565 
L 286.123807 159.77587 
L 296.268167 162.42863 
L 298.522469 162.706911 
L 300.776771 162.704459 
L 303.031073 162.373586 
L 305.285375 161.711863 
L 307.539678 160.775387 
L 313.175433 158.192149 
L 314.302584 157.852981 
L 315.429735 157.648667 
L 316.556887 157.612021 
L 317.684038 157.773696 
L 318.811189 158.160813 
L 319.93834 158.795685 
L 321.065491 159.694728 
L 322.192642 160.867668 
L 323.319793 162.317104 
L 324.446944 164.038495 
L 325.574095 166.020573 
L 327.828398 170.693367 
L 330.0827 176.149806 
L 332.337002 182.174907 
L 335.718455 191.850011 
L 348.117118 228.173217 
L 351.498571 237.139622 
L 353.752873 242.62619 
L 356.007175 247.6783 
L 358.261478 252.312269 
L 361.642931 258.612646 
L 365.024384 264.371972 
L 368.405838 269.776424 
L 371.787291 274.803394 
L 374.041593 277.844113 
L 376.295895 280.543949 
L 378.550198 282.839831 
L 380.8045 284.702747 
L 383.058802 286.143093 
L 385.313104 287.204561 
L 387.567407 287.951054 
L 389.821709 288.45247 
L 393.203162 288.884453 
L 397.711766 289.116661 
L 405.601824 289.188899 
L 422.509091 289.191273 
L 422.509091 289.191273 
" clip-path="url(#pd31a842d18)" style="fill: none; stroke-dasharray: 5.55,2.4; stroke-dashoffset: 0; stroke: #ffa500; stroke-width: 1.5"/>
   </g>
   <g id="line2d_86">
    <path d="M 85.490909 289.190498 
L 137.33986 289.081125 
L 148.611371 288.868202 
L 156.501429 288.505852 
L 162.137185 288.019404 
L 166.645789 287.393043 
L 170.027242 286.713744 
L 173.408696 285.780531 
L 175.662998 284.972738 
L 177.9173 283.976471 
L 180.171602 282.74913 
L 182.425905 281.239157 
L 184.680207 279.384501 
L 186.934509 277.110984 
L 189.188811 274.330691 
L 191.443113 270.940558 
L 193.697416 266.821443 
L 195.951718 261.838113 
L 198.20602 255.840776 
L 200.460322 248.669001 
L 202.714625 240.159116 
L 204.968927 230.156344 
L 207.223229 218.532989 
L 209.477531 205.213616 
L 211.731833 190.207254 
L 213.986136 173.644839 
L 217.367589 146.571397 
L 223.003344 100.532591 
L 225.257647 84.297021 
L 226.384798 77.129296 
L 227.511949 70.743266 
L 228.6391 65.23273 
L 229.766251 60.671675 
L 230.893402 57.110104 
L 232.020553 54.570897 
L 233.147704 53.048031 
L 234.274856 52.506423 
L 235.402007 52.883475 
L 236.529158 54.092312 
L 237.656309 56.026482 
L 238.78346 58.565781 
L 239.910611 61.582739 
L 242.164913 68.54267 
L 246.673518 83.190484 
L 248.92782 89.76559 
L 251.182122 95.552725 
L 253.436424 100.583348 
L 255.690727 104.980892 
L 257.945029 108.890178 
L 260.199331 112.438512 
L 263.580784 117.289015 
L 266.962238 121.751343 
L 270.343691 125.910549 
L 273.725144 129.674429 
L 275.979447 131.777717 
L 277.106598 132.627938 
L 278.233749 133.294009 
L 279.3609 133.73224 
L 280.488051 133.896458 
L 281.615202 133.741416 
L 282.742353 133.227282 
L 283.869504 132.324988 
L 284.996656 131.022063 
L 286.123807 129.328415 
L 287.250958 127.281423 
L 289.50526 122.434714 
L 291.759562 117.41915 
L 292.886713 115.266277 
L 294.013864 113.61069 
L 295.141016 112.654443 
L 296.268167 112.59074 
L 297.395318 113.591667 
L 298.522469 115.79661 
L 299.64962 119.302276 
L 300.776771 124.155168 
L 301.903922 130.347101 
L 303.031073 137.814145 
L 304.158224 146.439045 
L 306.412527 166.463809 
L 313.175433 232.018226 
L 315.429735 249.862934 
L 316.556887 257.395594 
L 317.684038 263.947208 
L 318.811189 269.5264 
L 319.93834 274.175472 
L 321.065491 277.963652 
L 322.192642 280.97952 
L 323.319793 283.323283 
L 324.446944 285.099484 
L 325.574095 286.410664 
L 326.701247 287.352329 
L 327.828398 288.00942 
L 328.955549 288.454298 
L 331.209851 288.931233 
L 333.464153 289.111624 
L 337.972758 289.186691 
L 387.567407 289.191273 
L 422.509091 289.191273 
L 422.509091 289.191273 
" clip-path="url(#pd31a842d18)" style="fill: none; stroke-dasharray: 5.55,2.4; stroke-dashoffset: 0; stroke: #008000; stroke-width: 1.5"/>
   </g>
   <g id="line2d_87">
    <path d="M 85.490909 289.189361 
L 128.322651 289.077723 
L 139.594162 288.86104 
L 147.48422 288.497105 
L 153.119976 288.015069 
L 157.62858 287.402635 
L 161.010033 286.746794 
L 164.391487 285.857428 
L 166.645789 285.096831 
L 168.900091 284.169001 
L 171.154393 283.039631 
L 173.408696 281.668356 
L 175.662998 280.008072 
L 177.9173 278.004365 
L 180.171602 275.595132 
L 182.425905 272.710545 
L 184.680207 269.27352 
L 186.934509 265.200942 
L 189.188811 260.40589 
L 191.443113 254.801161 
L 193.697416 248.304377 
L 195.951718 240.844852 
L 198.20602 232.372254 
L 200.460322 222.866771 
L 202.714625 212.350057 
L 204.968927 200.895663 
L 208.35038 182.265277 
L 218.49474 123.909248 
L 220.749042 112.397456 
L 223.003344 101.970964 
L 225.257647 92.740192 
L 227.511949 84.708488 
L 229.766251 77.777483 
L 232.020553 71.7669 
L 234.274856 66.444645 
L 237.656309 59.211493 
L 245.546367 42.708308 
L 248.92782 35.574745 
L 251.182122 31.212573 
L 252.309273 29.273052 
L 253.436424 27.560521 
L 254.563576 26.128221 
L 255.690727 25.030786 
L 256.817878 24.322712 
L 257.945029 24.056727 
L 259.07218 24.28213 
L 260.199331 25.043164 
L 261.326482 26.377505 
L 262.453633 28.314936 
L 263.580784 30.876283 
L 264.707936 34.072673 
L 265.835087 37.905145 
L 266.962238 42.364656 
L 268.089389 47.432445 
L 270.343691 59.273828 
L 272.597993 73.118661 
L 274.852296 88.569509 
L 278.233749 113.787004 
L 287.250958 182.805412 
L 289.50526 198.474704 
L 291.759562 212.94476 
L 294.013864 226.03378 
L 296.268167 237.629893 
L 298.522469 247.693709 
L 300.776771 256.254049 
L 303.031073 263.397008 
L 305.285375 269.250449 
L 307.539678 273.967032 
L 309.79398 277.708674 
L 312.048282 280.634298 
L 314.302584 282.891435 
L 316.556887 284.6113 
L 318.811189 285.906578 
L 321.065491 286.871163 
L 323.319793 287.581274 
L 325.574095 288.097448 
L 328.955549 288.608529 
L 333.464153 288.9692 
L 339.099909 289.141347 
L 350.37142 289.190689 
L 422.509091 289.191273 
L 422.509091 289.191273 
" clip-path="url(#pd31a842d18)" style="fill: none; stroke-dasharray: 5.55,2.4; stroke-dashoffset: 0; stroke: #a52a2a; stroke-width: 1.5"/>
   </g>
   <g id="patch_8">
    <path d="M 68.64 302.448 
L 68.64 10.8 
" style="fill: none; stroke: #000000; stroke-width: 0.8; stroke-linejoin: miter; stroke-linecap: square"/>
   </g>
   <g id="patch_9">
    <path d="M 439.36 302.448 
L 439.36 10.8 
" style="fill: none; stroke: #000000; stroke-width: 0.8; stroke-linejoin: miter; stroke-linecap: square"/>
   </g>
   <g id="patch_10">
    <path d="M 68.64 302.448 
L 439.36 302.448 
" style="fill: none; stroke: #000000; stroke-width: 0.8; stroke-linejoin: miter; stroke-linecap: square"/>
   </g>
   <g id="patch_11">
    <path d="M 68.64 10.8 
L 439.36 10.8 
" style="fill: none; stroke: #000000; stroke-width: 0.8; stroke-linejoin: miter; stroke-linecap: square"/>
   </g>
  </g>
 </g>
 <defs>
  <clipPath id="pd31a842d18">
   <rect x="68.64" y="10.8" width="370.72" height="291.648"/>
  </clipPath>
 </defs>
</svg>
