<?xml version="1.0" encoding="utf-8" standalone="no"?>
<!DOCTYPE svg PUBLIC "-//W3C//DTD SVG 1.1//EN"
  "http://www.w3.org/Graphics/SVG/1.1/DTD/svg11.dtd">
<svg xmlns:xlink="http://www.w3.org/1999/xlink" width="352.740169pt" height="277.546406pt" viewBox="0 0 352.740169 277.546406" xmlns="http://www.w3.org/2000/svg" version="1.1">
 <metadata>
  <rdf:RDF xmlns:dc="http://purl.org/dc/elements/1.1/" xmlns:cc="http://creativecommons.org/ns#" xmlns:rdf="http://www.w3.org/1999/02/22-rdf-syntax-ns#">
   <cc:Work>
    <dc:type rdf:resource="http://purl.org/dc/dcmitype/StillImage"/>
    <dc:date>2023-12-16T10:46:20.719156</dc:date>
    <dc:format>image/svg+xml</dc:format>
    <dc:creator>
     <cc:Agent>
      <dc:title>Matplotlib v3.7.1, https://matplotlib.org/</dc:title>
     </cc:Agent>
    </dc:creator>
   </cc:Work>
  </rdf:RDF>
 </metadata>
 <defs>
  <style type="text/css">*{stroke-linejoin: round; stroke-linecap: butt}</style>
 </defs>
 <g id="figure_1">
  <g id="patch_1">
   <path d="M 0 277.546406 
L 352.740169 277.546406 
L 352.740169 0 
L 0 0 
z
" style="fill: #ffffff"/>
  </g>
  <g id="axes_1">
   <g id="patch_2">
    <path d="M 126.534375 197.277656 
L 345.540169 197.277656 
L 345.540169 18.597656 
L 126.534375 18.597656 
z
" style="fill: #ffffff"/>
   </g>
   <g id="matplotlib.axis_1">
    <g id="xtick_1">
     <g id="line2d_1">
      <defs>
       <path id="mdfe714b49e" d="M 0 0 
L 0 7.5 
" style="stroke: #000000; stroke-width: 2"/>
      </defs>
      <g>
       <use xlink:href="#mdfe714b49e" x="136.500395" y="197.277656" style="stroke: #000000; stroke-width: 2"/>
      </g>
     </g>
     <g id="text_1">
      <!-- $\mathdefault{10^{-1}}$ -->
      <g transform="translate(98.850395 231.072969) scale(0.3 -0.3)">
       <defs>
        <path id="DejaVuSans-Bold-31" d="M 750 831 
L 1813 831 
L 1813 3847 
L 722 3622 
L 722 4441 
L 1806 4666 
L 2950 4666 
L 2950 831 
L 4013 831 
L 4013 0 
L 750 0 
L 750 831 
z
" transform="scale(0.015625)"/>
        <path id="DejaVuSans-Bold-30" d="M 2944 2338 
Q 2944 3213 2780 3570 
Q 2616 3928 2228 3928 
Q 1841 3928 1675 3570 
Q 1509 3213 1509 2338 
Q 1509 1453 1675 1090 
Q 1841 728 2228 728 
Q 2613 728 2778 1090 
Q 2944 1453 2944 2338 
z
M 4147 2328 
Q 4147 1169 3647 539 
Q 3147 -91 2228 -91 
Q 1306 -91 806 539 
Q 306 1169 306 2328 
Q 306 3491 806 4120 
Q 1306 4750 2228 4750 
Q 3147 4750 3647 4120 
Q 4147 3491 4147 2328 
z
" transform="scale(0.015625)"/>
        <path id="DejaVuSans-Bold-2212" d="M 678 2375 
L 4684 2375 
L 4684 1638 
L 678 1638 
L 678 2375 
z
" transform="scale(0.015625)"/>
       </defs>
       <use xlink:href="#DejaVuSans-Bold-31" transform="translate(0 0.684375)"/>
       <use xlink:href="#DejaVuSans-Bold-30" transform="translate(69.580078 0.684375)"/>
       <use xlink:href="#DejaVuSans-Bold-2212" transform="translate(140.117188 38.965625) scale(0.7)"/>
       <use xlink:href="#DejaVuSans-Bold-31" transform="translate(198.769531 38.965625) scale(0.7)"/>
      </g>
     </g>
    </g>
    <g id="xtick_2">
     <g id="line2d_2">
      <g>
       <use xlink:href="#mdfe714b49e" x="241.117716" y="197.277656" style="stroke: #000000; stroke-width: 2"/>
      </g>
     </g>
     <g id="text_2">
      <!-- $\mathdefault{10^{0}}$ -->
      <g transform="translate(212.317716 231.072969) scale(0.3 -0.3)">
       <use xlink:href="#DejaVuSans-Bold-31" transform="translate(0 0.765625)"/>
       <use xlink:href="#DejaVuSans-Bold-30" transform="translate(69.580078 0.765625)"/>
       <use xlink:href="#DejaVuSans-Bold-30" transform="translate(140.117188 39.046875) scale(0.7)"/>
      </g>
     </g>
    </g>
    <g id="xtick_3">
     <g id="line2d_3">
      <defs>
       <path id="m2f998ac19c" d="M 0 0 
L 0 4 
" style="stroke: #000000; stroke-width: 2"/>
      </defs>
      <g>
       <use xlink:href="#m2f998ac19c" x="131.713369" y="197.277656" style="stroke: #000000; stroke-width: 2"/>
      </g>
     </g>
    </g>
    <g id="xtick_4">
     <g id="line2d_4">
      <g>
       <use xlink:href="#m2f998ac19c" x="167.993347" y="197.277656" style="stroke: #000000; stroke-width: 2"/>
      </g>
     </g>
    </g>
    <g id="xtick_5">
     <g id="line2d_5">
      <g>
       <use xlink:href="#m2f998ac19c" x="186.415542" y="197.277656" style="stroke: #000000; stroke-width: 2"/>
      </g>
     </g>
    </g>
    <g id="xtick_6">
     <g id="line2d_6">
      <g>
       <use xlink:href="#m2f998ac19c" x="199.486298" y="197.277656" style="stroke: #000000; stroke-width: 2"/>
      </g>
     </g>
    </g>
    <g id="xtick_7">
     <g id="line2d_7">
      <g>
       <use xlink:href="#m2f998ac19c" x="209.624764" y="197.277656" style="stroke: #000000; stroke-width: 2"/>
      </g>
     </g>
    </g>
    <g id="xtick_8">
     <g id="line2d_8">
      <g>
       <use xlink:href="#m2f998ac19c" x="217.908494" y="197.277656" style="stroke: #000000; stroke-width: 2"/>
      </g>
     </g>
    </g>
    <g id="xtick_9">
     <g id="line2d_9">
      <g>
       <use xlink:href="#m2f998ac19c" x="224.912288" y="197.277656" style="stroke: #000000; stroke-width: 2"/>
      </g>
     </g>
    </g>
    <g id="xtick_10">
     <g id="line2d_10">
      <g>
       <use xlink:href="#m2f998ac19c" x="230.97925" y="197.277656" style="stroke: #000000; stroke-width: 2"/>
      </g>
     </g>
    </g>
    <g id="xtick_11">
     <g id="line2d_11">
      <g>
       <use xlink:href="#m2f998ac19c" x="236.33069" y="197.277656" style="stroke: #000000; stroke-width: 2"/>
      </g>
     </g>
    </g>
    <g id="xtick_12">
     <g id="line2d_12">
      <g>
       <use xlink:href="#m2f998ac19c" x="272.610668" y="197.277656" style="stroke: #000000; stroke-width: 2"/>
      </g>
     </g>
    </g>
    <g id="xtick_13">
     <g id="line2d_13">
      <g>
       <use xlink:href="#m2f998ac19c" x="291.032863" y="197.277656" style="stroke: #000000; stroke-width: 2"/>
      </g>
     </g>
    </g>
    <g id="xtick_14">
     <g id="line2d_14">
      <g>
       <use xlink:href="#m2f998ac19c" x="304.103619" y="197.277656" style="stroke: #000000; stroke-width: 2"/>
      </g>
     </g>
    </g>
    <g id="xtick_15">
     <g id="line2d_15">
      <g>
       <use xlink:href="#m2f998ac19c" x="314.242085" y="197.277656" style="stroke: #000000; stroke-width: 2"/>
      </g>
     </g>
    </g>
    <g id="xtick_16">
     <g id="line2d_16">
      <g>
       <use xlink:href="#m2f998ac19c" x="322.525815" y="197.277656" style="stroke: #000000; stroke-width: 2"/>
      </g>
     </g>
    </g>
    <g id="xtick_17">
     <g id="line2d_17">
      <g>
       <use xlink:href="#m2f998ac19c" x="329.529609" y="197.277656" style="stroke: #000000; stroke-width: 2"/>
      </g>
     </g>
    </g>
    <g id="xtick_18">
     <g id="line2d_18">
      <g>
       <use xlink:href="#m2f998ac19c" x="335.596571" y="197.277656" style="stroke: #000000; stroke-width: 2"/>
      </g>
     </g>
    </g>
    <g id="xtick_19">
     <g id="line2d_19">
      <g>
       <use xlink:href="#m2f998ac19c" x="340.948011" y="197.277656" style="stroke: #000000; stroke-width: 2"/>
      </g>
     </g>
    </g>
    <g id="text_3">
     <!-- $\mathbf{\lambda}$ -->
     <g transform="translate(226.437272 264.107344) scale(0.3 -0.3)">
      <defs>
       <path id="DejaVuSans-Bold-3bb" d="M 1544 3188 
L 1350 3713 
Q 1263 3953 1145 4040 
Q 1028 4128 734 4128 
L 384 4128 
L 384 4863 
L 1031 4863 
Q 1600 4863 1908 4622 
Q 2216 4381 2428 3813 
L 3859 0 
L 2741 0 
L 2044 1838 
L 1309 0 
L 191 0 
L 1544 3188 
z
" transform="scale(0.015625)"/>
      </defs>
      <use xlink:href="#DejaVuSans-Bold-3bb" transform="translate(0 0.015625)"/>
     </g>
    </g>
   </g>
   <g id="matplotlib.axis_2">
    <g id="ytick_1">
     <g id="line2d_20">
      <defs>
       <path id="m87540bcb1b" d="M 0 0 
L -7.5 0 
" style="stroke: #000000; stroke-width: 2"/>
      </defs>
      <g>
       <use xlink:href="#m87540bcb1b" x="126.534375" y="173.312088" style="stroke: #000000; stroke-width: 2"/>
      </g>
     </g>
     <g id="text_4">
      <!-- $\mathdefault{10^{-2}}$ -->
      <g transform="translate(40.234375 184.709744) scale(0.3 -0.3)">
       <defs>
        <path id="DejaVuSans-Bold-32" d="M 1844 884 
L 3897 884 
L 3897 0 
L 506 0 
L 506 884 
L 2209 2388 
Q 2438 2594 2547 2791 
Q 2656 2988 2656 3200 
Q 2656 3528 2436 3728 
Q 2216 3928 1850 3928 
Q 1569 3928 1234 3808 
Q 900 3688 519 3450 
L 519 4475 
Q 925 4609 1322 4679 
Q 1719 4750 2100 4750 
Q 2938 4750 3402 4381 
Q 3866 4013 3866 3353 
Q 3866 2972 3669 2642 
Q 3472 2313 2841 1759 
L 1844 884 
z
" transform="scale(0.015625)"/>
       </defs>
       <use xlink:href="#DejaVuSans-Bold-31" transform="translate(0 0.765625)"/>
       <use xlink:href="#DejaVuSans-Bold-30" transform="translate(69.580078 0.765625)"/>
       <use xlink:href="#DejaVuSans-Bold-2212" transform="translate(140.117188 39.046875) scale(0.7)"/>
       <use xlink:href="#DejaVuSans-Bold-32" transform="translate(198.769531 39.046875) scale(0.7)"/>
      </g>
     </g>
    </g>
    <g id="ytick_2">
     <g id="line2d_21">
      <g>
       <use xlink:href="#m87540bcb1b" x="126.534375" y="18.597656" style="stroke: #000000; stroke-width: 2"/>
      </g>
     </g>
     <g id="text_5">
      <!-- $\mathdefault{10^{-1}}$ -->
      <g transform="translate(40.234375 29.995313) scale(0.3 -0.3)">
       <use xlink:href="#DejaVuSans-Bold-31" transform="translate(0 0.684375)"/>
       <use xlink:href="#DejaVuSans-Bold-30" transform="translate(69.580078 0.684375)"/>
       <use xlink:href="#DejaVuSans-Bold-2212" transform="translate(140.117188 38.965625) scale(0.7)"/>
       <use xlink:href="#DejaVuSans-Bold-31" transform="translate(198.769531 38.965625) scale(0.7)"/>
      </g>
     </g>
    </g>
    <g id="ytick_3">
     <g id="line2d_22">
      <defs>
       <path id="mfc04e2c742" d="M 0 0 
L -4 0 
" style="stroke: #000000; stroke-width: 2"/>
      </defs>
      <g>
       <use xlink:href="#mfc04e2c742" x="126.534375" y="197.277656" style="stroke: #000000; stroke-width: 2"/>
      </g>
     </g>
    </g>
    <g id="ytick_4">
     <g id="line2d_23">
      <g>
       <use xlink:href="#mfc04e2c742" x="126.534375" y="188.305465" style="stroke: #000000; stroke-width: 2"/>
      </g>
     </g>
    </g>
    <g id="ytick_5">
     <g id="line2d_24">
      <g>
       <use xlink:href="#mfc04e2c742" x="126.534375" y="180.391432" style="stroke: #000000; stroke-width: 2"/>
      </g>
     </g>
    </g>
    <g id="ytick_6">
     <g id="line2d_25">
      <g>
       <use xlink:href="#mfc04e2c742" x="126.534375" y="126.738403" style="stroke: #000000; stroke-width: 2"/>
      </g>
     </g>
    </g>
    <g id="ytick_7">
     <g id="line2d_26">
      <g>
       <use xlink:href="#mfc04e2c742" x="126.534375" y="99.494544" style="stroke: #000000; stroke-width: 2"/>
      </g>
     </g>
    </g>
    <g id="ytick_8">
     <g id="line2d_27">
      <g>
       <use xlink:href="#mfc04e2c742" x="126.534375" y="80.164718" style="stroke: #000000; stroke-width: 2"/>
      </g>
     </g>
    </g>
    <g id="ytick_9">
     <g id="line2d_28">
      <g>
       <use xlink:href="#mfc04e2c742" x="126.534375" y="65.171341" style="stroke: #000000; stroke-width: 2"/>
      </g>
     </g>
    </g>
    <g id="ytick_10">
     <g id="line2d_29">
      <g>
       <use xlink:href="#mfc04e2c742" x="126.534375" y="52.920859" style="stroke: #000000; stroke-width: 2"/>
      </g>
     </g>
    </g>
    <g id="ytick_11">
     <g id="line2d_30">
      <g>
       <use xlink:href="#mfc04e2c742" x="126.534375" y="42.563225" style="stroke: #000000; stroke-width: 2"/>
      </g>
     </g>
    </g>
    <g id="ytick_12">
     <g id="line2d_31">
      <g>
       <use xlink:href="#mfc04e2c742" x="126.534375" y="33.591034" style="stroke: #000000; stroke-width: 2"/>
      </g>
     </g>
    </g>
    <g id="ytick_13">
     <g id="line2d_32">
      <g>
       <use xlink:href="#mfc04e2c742" x="126.534375" y="25.677" style="stroke: #000000; stroke-width: 2"/>
      </g>
     </g>
    </g>
    <g id="text_6">
     <!-- $\mathbf{P(\lambda})$ -->
     <g transform="translate(29.995312 141.237656) rotate(-90) scale(0.3 -0.3)">
      <defs>
       <path id="DejaVuSans-Bold-50" d="M 588 4666 
L 2584 4666 
Q 3475 4666 3951 4270 
Q 4428 3875 4428 3144 
Q 4428 2409 3951 2014 
Q 3475 1619 2584 1619 
L 1791 1619 
L 1791 0 
L 588 0 
L 588 4666 
z
M 1791 3794 
L 1791 2491 
L 2456 2491 
Q 2806 2491 2997 2661 
Q 3188 2831 3188 3144 
Q 3188 3456 2997 3625 
Q 2806 3794 2456 3794 
L 1791 3794 
z
" transform="scale(0.015625)"/>
       <path id="DejaVuSans-Bold-28" d="M 2413 -844 
L 1484 -844 
Q 1006 -72 778 623 
Q 550 1319 550 2003 
Q 550 2688 779 3389 
Q 1009 4091 1484 4856 
L 2413 4856 
Q 2013 4116 1813 3408 
Q 1613 2700 1613 2009 
Q 1613 1319 1811 609 
Q 2009 -100 2413 -844 
z
" transform="scale(0.015625)"/>
       <path id="DejaVuSans-29" d="M 513 4856 
L 1013 4856 
Q 1481 4119 1714 3412 
Q 1947 2706 1947 2009 
Q 1947 1309 1714 600 
Q 1481 -109 1013 -844 
L 513 -844 
Q 928 -128 1133 580 
Q 1338 1288 1338 2009 
Q 1338 2731 1133 3434 
Q 928 4138 513 4856 
z
" transform="scale(0.015625)"/>
      </defs>
      <use xlink:href="#DejaVuSans-Bold-50" transform="translate(0 0.015625)"/>
      <use xlink:href="#DejaVuSans-Bold-28" transform="translate(73.291016 0.015625)"/>
      <use xlink:href="#DejaVuSans-Bold-3bb" transform="translate(118.994141 0.015625)"/>
      <use xlink:href="#DejaVuSans-29" transform="translate(182.275391 0.015625)"/>
     </g>
    </g>
   </g>
   <g id="line2d_33">
    <path d="M 136.489184 178.914633 
L 167.982136 182.669332 
L 186.404331 186.646328 
L 199.475087 181.901419 
L 209.613553 185.027175 
L 217.897283 179.648975 
L 224.901077 181.901419 
L 230.968039 181.142184 
L 236.319479 178.18823 
L 241.106505 178.914633 
L 245.436897 176.758567 
L 249.390235 181.142184 
L 253.026953 172.643509 
L 256.394028 175.358691 
L 259.528701 175.358691 
L 262.460991 171.325984 
L 265.215454 170.033797 
L 267.81243 171.325984 
L 270.26896 166.299969 
L 272.599457 170.033797 
L 274.816224 160.503996 
L 276.929848 163.921256 
L 278.949502 166.299969 
L 280.883186 159.950976 
L 282.737922 160.503996 
L 284.519905 157.252154 
L 286.234626 155.168526 
L 287.88698 154.150451 
L 289.481345 153.147573 
L 291.021652 151.670774 
L 292.511449 145.621771 
L 293.953942 144.737658 
L 295.352044 143.865027 
L 296.708405 138.854635 
L 298.025446 139.664183 
L 299.305382 129.481299 
L 300.550247 126.403282 
L 301.761912 125.079266 
L 302.942101 111.476795 
L 304.092408 108.594841 
L 305.21431 90.887297 
L 306.309176 113.653232 
L 307.378278 126.403282 
L 308.4228 128.439548 
L 309.443848 132.340949 
L 310.442454 140.483603 
L 311.419582 140.483603 
L 312.376138 146.517673 
L 313.31297 147.425681 
L 314.230874 145.621771 
L 315.130601 155.683407 
L 316.012857 151.185634 
L 316.878306 156.202263 
L 317.727578 160.503996 
L 318.561266 159.402469 
L 319.379932 159.402469 
L 320.184107 162.190904 
L 320.974296 166.299969 
L 321.750977 166.299969 
L 322.514604 166.299969 
L 323.265608 168.765993 
L 324.004401 167.521668 
L 324.731372 173.987386 
L 325.446894 176.758567 
L 326.151322 170.033797 
L 326.844996 176.758567 
L 327.528238 176.758567 
L 328.201357 178.18823 
L 328.864649 182.669332 
L 329.518398 178.18823 
L 330.162873 181.901419 
L 330.798334 181.142184 
L 331.42503 182.669332 
L 332.043199 188.305465 
L 332.65307 184.231998 
L 333.254863 185.027175 
L 333.84879 186.646328 
L 334.435052 191.751945 
L 335.013846 190.873611 
L 335.58536 194.458014 
" clip-path="url(#paba7da3643)" style="fill: none; stroke: #a52a2a; stroke-opacity: 0.8; stroke-width: 4; stroke-linecap: square"/>
   </g>
   <g id="patch_3">
    <path d="M 126.534375 197.277656 
L 126.534375 18.597656 
" style="fill: none; stroke: #000000; stroke-width: 0.8; stroke-linejoin: miter; stroke-linecap: square"/>
   </g>
   <g id="patch_4">
    <path d="M 345.540169 197.277656 
L 345.540169 18.597656 
" style="fill: none; stroke: #000000; stroke-width: 0.8; stroke-linejoin: miter; stroke-linecap: square"/>
   </g>
   <g id="patch_5">
    <path d="M 126.534375 197.277656 
L 345.540169 197.277656 
" style="fill: none; stroke: #000000; stroke-width: 0.8; stroke-linejoin: miter; stroke-linecap: square"/>
   </g>
   <g id="patch_6">
    <path d="M 126.534375 18.597656 
L 345.540169 18.597656 
" style="fill: none; stroke: #000000; stroke-width: 0.8; stroke-linejoin: miter; stroke-linecap: square"/>
   </g>
  </g>
 </g>
 <defs>
  <clipPath id="paba7da3643">
   <rect x="126.534375" y="18.597656" width="219.005794" height="178.68"/>
  </clipPath>
 </defs>
</svg>
