<?xml version="1.0" encoding="utf-8" standalone="no"?>
<!DOCTYPE svg PUBLIC "-//W3C//DTD SVG 1.1//EN"
  "http://www.w3.org/Graphics/SVG/1.1/DTD/svg11.dtd">
<svg xmlns:xlink="http://www.w3.org/1999/xlink" width="424.8pt" height="352.8pt" viewBox="0 0 424.8 352.8" xmlns="http://www.w3.org/2000/svg" version="1.1">
 <metadata>
  <rdf:RDF xmlns:dc="http://purl.org/dc/elements/1.1/" xmlns:cc="http://creativecommons.org/ns#" xmlns:rdf="http://www.w3.org/1999/02/22-rdf-syntax-ns#">
   <cc:Work>
    <dc:type rdf:resource="http://purl.org/dc/dcmitype/StillImage"/>
    <dc:date>2024-01-14T12:28:11.935389</dc:date>
    <dc:format>image/svg+xml</dc:format>
    <dc:creator>
     <cc:Agent>
      <dc:title>Matplotlib v3.7.1, https://matplotlib.org/</dc:title>
     </cc:Agent>
    </dc:creator>
   </cc:Work>
  </rdf:RDF>
 </metadata>
 <defs>
  <style type="text/css">*{stroke-linejoin: round; stroke-linecap: butt}</style>
 </defs>
 <g id="figure_1">
  <g id="patch_1">
   <path d="M 0 352.8 
L 424.8 352.8 
L 424.8 0 
L 0 0 
z
" style="fill: #ffffff"/>
  </g>
  <g id="axes_1">
   <g id="LineCollection_1">
    <path d="M 320.391129 93.68568 
L 236.217823 260.851552 
" clip-path="url(#p79344076cf)" style="fill: none; stroke: #000000"/>
    <path d="M 320.391129 93.68568 
L 265.280503 102.754723 
" clip-path="url(#p79344076cf)" style="fill: none; stroke: #000000"/>
    <path d="M 320.391129 93.68568 
L 42.813223 140.621807 
" clip-path="url(#p79344076cf)" style="fill: none; stroke: #000000"/>
    <path d="M 320.391129 93.68568 
L 78.618293 77.482641 
" clip-path="url(#p79344076cf)" style="fill: none; stroke: #000000"/>
    <path d="M 320.391129 93.68568 
L 180.727687 209.450634 
" clip-path="url(#p79344076cf)" style="fill: none; stroke: #000000"/>
    <path d="M 320.391129 93.68568 
L 381.986777 192.821054 
" clip-path="url(#p79344076cf)" style="fill: none; stroke: #000000"/>
    <path d="M 320.391129 93.68568 
L 237.769248 164.472962 
" clip-path="url(#p79344076cf)" style="fill: none; stroke: #000000"/>
    <path d="M 320.391129 93.68568 
L 309.428444 181.28315 
" clip-path="url(#p79344076cf)" style="fill: none; stroke: #000000"/>
    <path d="M 320.391129 93.68568 
L 184.201503 261.25529 
" clip-path="url(#p79344076cf)" style="fill: none; stroke: #000000"/>
    <path d="M 320.391129 93.68568 
L 132.562703 71.104277 
" clip-path="url(#p79344076cf)" style="fill: none; stroke: #000000"/>
    <path d="M 320.391129 93.68568 
L 92.693374 162.40986 
" clip-path="url(#p79344076cf)" style="fill: none; stroke: #000000"/>
    <path d="M 320.391129 93.68568 
L 128.526324 282.287888 
" clip-path="url(#p79344076cf)" style="fill: none; stroke: #000000"/>
    <path d="M 320.391129 93.68568 
L 215.837733 99.357119 
" clip-path="url(#p79344076cf)" style="fill: none; stroke: #000000"/>
    <path d="M 320.391129 93.68568 
L 348.092181 145.616418 
" clip-path="url(#p79344076cf)" style="fill: none; stroke: #000000"/>
    <path d="M 320.391129 93.68568 
L 263.392201 215.157965 
" clip-path="url(#p79344076cf)" style="fill: none; stroke: #000000"/>
    <path d="M 320.391129 93.68568 
L 343.487273 262.87311 
" clip-path="url(#p79344076cf)" style="fill: none; stroke: #000000"/>
    <path d="M 320.391129 93.68568 
L 258.445012 52.192753 
" clip-path="url(#p79344076cf)" style="fill: none; stroke: #000000"/>
    <path d="M 320.391129 93.68568 
L 176.692641 162.290267 
" clip-path="url(#p79344076cf)" style="fill: none; stroke: #000000"/>
    <path d="M 236.217823 260.851552 
L 265.280503 102.754723 
" clip-path="url(#p79344076cf)" style="fill: none; stroke: #000000"/>
    <path d="M 236.217823 260.851552 
L 42.813223 140.621807 
" clip-path="url(#p79344076cf)" style="fill: none; stroke: #000000"/>
    <path d="M 236.217823 260.851552 
L 75.091265 213.588122 
" clip-path="url(#p79344076cf)" style="fill: none; stroke: #000000"/>
    <path d="M 236.217823 260.851552 
L 78.618293 77.482641 
" clip-path="url(#p79344076cf)" style="fill: none; stroke: #000000"/>
    <path d="M 236.217823 260.851552 
L 180.727687 209.450634 
" clip-path="url(#p79344076cf)" style="fill: none; stroke: #000000"/>
    <path d="M 236.217823 260.851552 
L 150.542922 123.665149 
" clip-path="url(#p79344076cf)" style="fill: none; stroke: #000000"/>
    <path d="M 236.217823 260.851552 
L 381.986777 192.821054 
" clip-path="url(#p79344076cf)" style="fill: none; stroke: #000000"/>
    <path d="M 236.217823 260.851552 
L 237.769248 164.472962 
" clip-path="url(#p79344076cf)" style="fill: none; stroke: #000000"/>
    <path d="M 236.217823 260.851552 
L 184.201503 261.25529 
" clip-path="url(#p79344076cf)" style="fill: none; stroke: #000000"/>
    <path d="M 236.217823 260.851552 
L 132.562703 71.104277 
" clip-path="url(#p79344076cf)" style="fill: none; stroke: #000000"/>
    <path d="M 236.217823 260.851552 
L 273.147531 316.234711 
" clip-path="url(#p79344076cf)" style="fill: none; stroke: #000000"/>
    <path d="M 236.217823 260.851552 
L 92.693374 162.40986 
" clip-path="url(#p79344076cf)" style="fill: none; stroke: #000000"/>
    <path d="M 236.217823 260.851552 
L 128.526324 282.287888 
" clip-path="url(#p79344076cf)" style="fill: none; stroke: #000000"/>
    <path d="M 236.217823 260.851552 
L 215.837733 99.357119 
" clip-path="url(#p79344076cf)" style="fill: none; stroke: #000000"/>
    <path d="M 236.217823 260.851552 
L 348.092181 145.616418 
" clip-path="url(#p79344076cf)" style="fill: none; stroke: #000000"/>
    <path d="M 236.217823 260.851552 
L 263.392201 215.157965 
" clip-path="url(#p79344076cf)" style="fill: none; stroke: #000000"/>
    <path d="M 236.217823 260.851552 
L 176.692641 162.290267 
" clip-path="url(#p79344076cf)" style="fill: none; stroke: #000000"/>
    <path d="M 182.5869 36.565289 
L 265.280503 102.754723 
" clip-path="url(#p79344076cf)" style="fill: none; stroke: #000000"/>
    <path d="M 182.5869 36.565289 
L 42.813223 140.621807 
" clip-path="url(#p79344076cf)" style="fill: none; stroke: #000000"/>
    <path d="M 182.5869 36.565289 
L 75.091265 213.588122 
" clip-path="url(#p79344076cf)" style="fill: none; stroke: #000000"/>
    <path d="M 182.5869 36.565289 
L 78.618293 77.482641 
" clip-path="url(#p79344076cf)" style="fill: none; stroke: #000000"/>
    <path d="M 182.5869 36.565289 
L 180.727687 209.450634 
" clip-path="url(#p79344076cf)" style="fill: none; stroke: #000000"/>
    <path d="M 182.5869 36.565289 
L 150.542922 123.665149 
" clip-path="url(#p79344076cf)" style="fill: none; stroke: #000000"/>
    <path d="M 182.5869 36.565289 
L 381.986777 192.821054 
" clip-path="url(#p79344076cf)" style="fill: none; stroke: #000000"/>
    <path d="M 182.5869 36.565289 
L 237.769248 164.472962 
" clip-path="url(#p79344076cf)" style="fill: none; stroke: #000000"/>
    <path d="M 182.5869 36.565289 
L 309.428444 181.28315 
" clip-path="url(#p79344076cf)" style="fill: none; stroke: #000000"/>
    <path d="M 182.5869 36.565289 
L 184.201503 261.25529 
" clip-path="url(#p79344076cf)" style="fill: none; stroke: #000000"/>
    <path d="M 182.5869 36.565289 
L 132.562703 71.104277 
" clip-path="url(#p79344076cf)" style="fill: none; stroke: #000000"/>
    <path d="M 182.5869 36.565289 
L 92.693374 162.40986 
" clip-path="url(#p79344076cf)" style="fill: none; stroke: #000000"/>
    <path d="M 182.5869 36.565289 
L 215.837733 99.357119 
" clip-path="url(#p79344076cf)" style="fill: none; stroke: #000000"/>
    <path d="M 182.5869 36.565289 
L 348.092181 145.616418 
" clip-path="url(#p79344076cf)" style="fill: none; stroke: #000000"/>
    <path d="M 182.5869 36.565289 
L 263.392201 215.157965 
" clip-path="url(#p79344076cf)" style="fill: none; stroke: #000000"/>
    <path d="M 182.5869 36.565289 
L 122.483383 236.751178 
" clip-path="url(#p79344076cf)" style="fill: none; stroke: #000000"/>
    <path d="M 182.5869 36.565289 
L 258.445012 52.192753 
" clip-path="url(#p79344076cf)" style="fill: none; stroke: #000000"/>
    <path d="M 182.5869 36.565289 
L 176.692641 162.290267 
" clip-path="url(#p79344076cf)" style="fill: none; stroke: #000000"/>
    <path d="M 265.280503 102.754723 
L 42.813223 140.621807 
" clip-path="url(#p79344076cf)" style="fill: none; stroke: #000000"/>
    <path d="M 265.280503 102.754723 
L 75.091265 213.588122 
" clip-path="url(#p79344076cf)" style="fill: none; stroke: #000000"/>
    <path d="M 265.280503 102.754723 
L 78.618293 77.482641 
" clip-path="url(#p79344076cf)" style="fill: none; stroke: #000000"/>
    <path d="M 265.280503 102.754723 
L 180.727687 209.450634 
" clip-path="url(#p79344076cf)" style="fill: none; stroke: #000000"/>
    <path d="M 265.280503 102.754723 
L 150.542922 123.665149 
" clip-path="url(#p79344076cf)" style="fill: none; stroke: #000000"/>
    <path d="M 265.280503 102.754723 
L 381.986777 192.821054 
" clip-path="url(#p79344076cf)" style="fill: none; stroke: #000000"/>
    <path d="M 265.280503 102.754723 
L 237.769248 164.472962 
" clip-path="url(#p79344076cf)" style="fill: none; stroke: #000000"/>
    <path d="M 265.280503 102.754723 
L 309.428444 181.28315 
" clip-path="url(#p79344076cf)" style="fill: none; stroke: #000000"/>
    <path d="M 265.280503 102.754723 
L 132.562703 71.104277 
" clip-path="url(#p79344076cf)" style="fill: none; stroke: #000000"/>
    <path d="M 265.280503 102.754723 
L 92.693374 162.40986 
" clip-path="url(#p79344076cf)" style="fill: none; stroke: #000000"/>
    <path d="M 265.280503 102.754723 
L 215.837733 99.357119 
" clip-path="url(#p79344076cf)" style="fill: none; stroke: #000000"/>
    <path d="M 265.280503 102.754723 
L 348.092181 145.616418 
" clip-path="url(#p79344076cf)" style="fill: none; stroke: #000000"/>
    <path d="M 265.280503 102.754723 
L 263.392201 215.157965 
" clip-path="url(#p79344076cf)" style="fill: none; stroke: #000000"/>
    <path d="M 265.280503 102.754723 
L 343.487273 262.87311 
" clip-path="url(#p79344076cf)" style="fill: none; stroke: #000000"/>
    <path d="M 265.280503 102.754723 
L 122.483383 236.751178 
" clip-path="url(#p79344076cf)" style="fill: none; stroke: #000000"/>
    <path d="M 265.280503 102.754723 
L 258.445012 52.192753 
" clip-path="url(#p79344076cf)" style="fill: none; stroke: #000000"/>
    <path d="M 265.280503 102.754723 
L 176.692641 162.290267 
" clip-path="url(#p79344076cf)" style="fill: none; stroke: #000000"/>
    <path d="M 42.813223 140.621807 
L 75.091265 213.588122 
" clip-path="url(#p79344076cf)" style="fill: none; stroke: #000000"/>
    <path d="M 42.813223 140.621807 
L 78.618293 77.482641 
" clip-path="url(#p79344076cf)" style="fill: none; stroke: #000000"/>
    <path d="M 42.813223 140.621807 
L 150.542922 123.665149 
" clip-path="url(#p79344076cf)" style="fill: none; stroke: #000000"/>
    <path d="M 42.813223 140.621807 
L 237.769248 164.472962 
" clip-path="url(#p79344076cf)" style="fill: none; stroke: #000000"/>
    <path d="M 42.813223 140.621807 
L 184.201503 261.25529 
" clip-path="url(#p79344076cf)" style="fill: none; stroke: #000000"/>
    <path d="M 42.813223 140.621807 
L 132.562703 71.104277 
" clip-path="url(#p79344076cf)" style="fill: none; stroke: #000000"/>
    <path d="M 42.813223 140.621807 
L 92.693374 162.40986 
" clip-path="url(#p79344076cf)" style="fill: none; stroke: #000000"/>
    <path d="M 42.813223 140.621807 
L 128.526324 282.287888 
" clip-path="url(#p79344076cf)" style="fill: none; stroke: #000000"/>
    <path d="M 42.813223 140.621807 
L 215.837733 99.357119 
" clip-path="url(#p79344076cf)" style="fill: none; stroke: #000000"/>
    <path d="M 42.813223 140.621807 
L 263.392201 215.157965 
" clip-path="url(#p79344076cf)" style="fill: none; stroke: #000000"/>
    <path d="M 42.813223 140.621807 
L 343.487273 262.87311 
" clip-path="url(#p79344076cf)" style="fill: none; stroke: #000000"/>
    <path d="M 42.813223 140.621807 
L 176.692641 162.290267 
" clip-path="url(#p79344076cf)" style="fill: none; stroke: #000000"/>
    <path d="M 75.091265 213.588122 
L 180.727687 209.450634 
" clip-path="url(#p79344076cf)" style="fill: none; stroke: #000000"/>
    <path d="M 75.091265 213.588122 
L 150.542922 123.665149 
" clip-path="url(#p79344076cf)" style="fill: none; stroke: #000000"/>
    <path d="M 75.091265 213.588122 
L 381.986777 192.821054 
" clip-path="url(#p79344076cf)" style="fill: none; stroke: #000000"/>
    <path d="M 75.091265 213.588122 
L 237.769248 164.472962 
" clip-path="url(#p79344076cf)" style="fill: none; stroke: #000000"/>
    <path d="M 75.091265 213.588122 
L 184.201503 261.25529 
" clip-path="url(#p79344076cf)" style="fill: none; stroke: #000000"/>
    <path d="M 75.091265 213.588122 
L 132.562703 71.104277 
" clip-path="url(#p79344076cf)" style="fill: none; stroke: #000000"/>
    <path d="M 75.091265 213.588122 
L 273.147531 316.234711 
" clip-path="url(#p79344076cf)" style="fill: none; stroke: #000000"/>
    <path d="M 75.091265 213.588122 
L 92.693374 162.40986 
" clip-path="url(#p79344076cf)" style="fill: none; stroke: #000000"/>
    <path d="M 75.091265 213.588122 
L 128.526324 282.287888 
" clip-path="url(#p79344076cf)" style="fill: none; stroke: #000000"/>
    <path d="M 75.091265 213.588122 
L 348.092181 145.616418 
" clip-path="url(#p79344076cf)" style="fill: none; stroke: #000000"/>
    <path d="M 75.091265 213.588122 
L 263.392201 215.157965 
" clip-path="url(#p79344076cf)" style="fill: none; stroke: #000000"/>
    <path d="M 75.091265 213.588122 
L 122.483383 236.751178 
" clip-path="url(#p79344076cf)" style="fill: none; stroke: #000000"/>
    <path d="M 75.091265 213.588122 
L 258.445012 52.192753 
" clip-path="url(#p79344076cf)" style="fill: none; stroke: #000000"/>
    <path d="M 75.091265 213.588122 
L 176.692641 162.290267 
" clip-path="url(#p79344076cf)" style="fill: none; stroke: #000000"/>
    <path d="M 78.618293 77.482641 
L 180.727687 209.450634 
" clip-path="url(#p79344076cf)" style="fill: none; stroke: #000000"/>
    <path d="M 78.618293 77.482641 
L 150.542922 123.665149 
" clip-path="url(#p79344076cf)" style="fill: none; stroke: #000000"/>
    <path d="M 78.618293 77.482641 
L 237.769248 164.472962 
" clip-path="url(#p79344076cf)" style="fill: none; stroke: #000000"/>
    <path d="M 78.618293 77.482641 
L 309.428444 181.28315 
" clip-path="url(#p79344076cf)" style="fill: none; stroke: #000000"/>
    <path d="M 78.618293 77.482641 
L 184.201503 261.25529 
" clip-path="url(#p79344076cf)" style="fill: none; stroke: #000000"/>
    <path d="M 78.618293 77.482641 
L 92.693374 162.40986 
" clip-path="url(#p79344076cf)" style="fill: none; stroke: #000000"/>
    <path d="M 78.618293 77.482641 
L 128.526324 282.287888 
" clip-path="url(#p79344076cf)" style="fill: none; stroke: #000000"/>
    <path d="M 78.618293 77.482641 
L 215.837733 99.357119 
" clip-path="url(#p79344076cf)" style="fill: none; stroke: #000000"/>
    <path d="M 78.618293 77.482641 
L 263.392201 215.157965 
" clip-path="url(#p79344076cf)" style="fill: none; stroke: #000000"/>
    <path d="M 78.618293 77.482641 
L 258.445012 52.192753 
" clip-path="url(#p79344076cf)" style="fill: none; stroke: #000000"/>
    <path d="M 78.618293 77.482641 
L 176.692641 162.290267 
" clip-path="url(#p79344076cf)" style="fill: none; stroke: #000000"/>
    <path d="M 180.727687 209.450634 
L 150.542922 123.665149 
" clip-path="url(#p79344076cf)" style="fill: none; stroke: #000000"/>
    <path d="M 180.727687 209.450634 
L 381.986777 192.821054 
" clip-path="url(#p79344076cf)" style="fill: none; stroke: #000000"/>
    <path d="M 180.727687 209.450634 
L 237.769248 164.472962 
" clip-path="url(#p79344076cf)" style="fill: none; stroke: #000000"/>
    <path d="M 180.727687 209.450634 
L 309.428444 181.28315 
" clip-path="url(#p79344076cf)" style="fill: none; stroke: #000000"/>
    <path d="M 180.727687 209.450634 
L 184.201503 261.25529 
" clip-path="url(#p79344076cf)" style="fill: none; stroke: #000000"/>
    <path d="M 180.727687 209.450634 
L 132.562703 71.104277 
" clip-path="url(#p79344076cf)" style="fill: none; stroke: #000000"/>
    <path d="M 180.727687 209.450634 
L 273.147531 316.234711 
" clip-path="url(#p79344076cf)" style="fill: none; stroke: #000000"/>
    <path d="M 180.727687 209.450634 
L 92.693374 162.40986 
" clip-path="url(#p79344076cf)" style="fill: none; stroke: #000000"/>
    <path d="M 180.727687 209.450634 
L 128.526324 282.287888 
" clip-path="url(#p79344076cf)" style="fill: none; stroke: #000000"/>
    <path d="M 180.727687 209.450634 
L 215.837733 99.357119 
" clip-path="url(#p79344076cf)" style="fill: none; stroke: #000000"/>
    <path d="M 180.727687 209.450634 
L 348.092181 145.616418 
" clip-path="url(#p79344076cf)" style="fill: none; stroke: #000000"/>
    <path d="M 180.727687 209.450634 
L 263.392201 215.157965 
" clip-path="url(#p79344076cf)" style="fill: none; stroke: #000000"/>
    <path d="M 180.727687 209.450634 
L 343.487273 262.87311 
" clip-path="url(#p79344076cf)" style="fill: none; stroke: #000000"/>
    <path d="M 180.727687 209.450634 
L 122.483383 236.751178 
" clip-path="url(#p79344076cf)" style="fill: none; stroke: #000000"/>
    <path d="M 180.727687 209.450634 
L 176.692641 162.290267 
" clip-path="url(#p79344076cf)" style="fill: none; stroke: #000000"/>
    <path d="M 150.542922 123.665149 
L 381.986777 192.821054 
" clip-path="url(#p79344076cf)" style="fill: none; stroke: #000000"/>
    <path d="M 150.542922 123.665149 
L 237.769248 164.472962 
" clip-path="url(#p79344076cf)" style="fill: none; stroke: #000000"/>
    <path d="M 150.542922 123.665149 
L 184.201503 261.25529 
" clip-path="url(#p79344076cf)" style="fill: none; stroke: #000000"/>
    <path d="M 150.542922 123.665149 
L 132.562703 71.104277 
" clip-path="url(#p79344076cf)" style="fill: none; stroke: #000000"/>
    <path d="M 150.542922 123.665149 
L 92.693374 162.40986 
" clip-path="url(#p79344076cf)" style="fill: none; stroke: #000000"/>
    <path d="M 150.542922 123.665149 
L 128.526324 282.287888 
" clip-path="url(#p79344076cf)" style="fill: none; stroke: #000000"/>
    <path d="M 150.542922 123.665149 
L 215.837733 99.357119 
" clip-path="url(#p79344076cf)" style="fill: none; stroke: #000000"/>
    <path d="M 150.542922 123.665149 
L 348.092181 145.616418 
" clip-path="url(#p79344076cf)" style="fill: none; stroke: #000000"/>
    <path d="M 150.542922 123.665149 
L 263.392201 215.157965 
" clip-path="url(#p79344076cf)" style="fill: none; stroke: #000000"/>
    <path d="M 150.542922 123.665149 
L 343.487273 262.87311 
" clip-path="url(#p79344076cf)" style="fill: none; stroke: #000000"/>
    <path d="M 150.542922 123.665149 
L 122.483383 236.751178 
" clip-path="url(#p79344076cf)" style="fill: none; stroke: #000000"/>
    <path d="M 150.542922 123.665149 
L 258.445012 52.192753 
" clip-path="url(#p79344076cf)" style="fill: none; stroke: #000000"/>
    <path d="M 150.542922 123.665149 
L 176.692641 162.290267 
" clip-path="url(#p79344076cf)" style="fill: none; stroke: #000000"/>
    <path d="M 381.986777 192.821054 
L 237.769248 164.472962 
" clip-path="url(#p79344076cf)" style="fill: none; stroke: #000000"/>
    <path d="M 381.986777 192.821054 
L 309.428444 181.28315 
" clip-path="url(#p79344076cf)" style="fill: none; stroke: #000000"/>
    <path d="M 381.986777 192.821054 
L 184.201503 261.25529 
" clip-path="url(#p79344076cf)" style="fill: none; stroke: #000000"/>
    <path d="M 381.986777 192.821054 
L 273.147531 316.234711 
" clip-path="url(#p79344076cf)" style="fill: none; stroke: #000000"/>
    <path d="M 381.986777 192.821054 
L 215.837733 99.357119 
" clip-path="url(#p79344076cf)" style="fill: none; stroke: #000000"/>
    <path d="M 381.986777 192.821054 
L 348.092181 145.616418 
" clip-path="url(#p79344076cf)" style="fill: none; stroke: #000000"/>
    <path d="M 381.986777 192.821054 
L 263.392201 215.157965 
" clip-path="url(#p79344076cf)" style="fill: none; stroke: #000000"/>
    <path d="M 381.986777 192.821054 
L 343.487273 262.87311 
" clip-path="url(#p79344076cf)" style="fill: none; stroke: #000000"/>
    <path d="M 381.986777 192.821054 
L 258.445012 52.192753 
" clip-path="url(#p79344076cf)" style="fill: none; stroke: #000000"/>
    <path d="M 381.986777 192.821054 
L 176.692641 162.290267 
" clip-path="url(#p79344076cf)" style="fill: none; stroke: #000000"/>
    <path d="M 237.769248 164.472962 
L 309.428444 181.28315 
" clip-path="url(#p79344076cf)" style="fill: none; stroke: #000000"/>
    <path d="M 237.769248 164.472962 
L 184.201503 261.25529 
" clip-path="url(#p79344076cf)" style="fill: none; stroke: #000000"/>
    <path d="M 237.769248 164.472962 
L 132.562703 71.104277 
" clip-path="url(#p79344076cf)" style="fill: none; stroke: #000000"/>
    <path d="M 237.769248 164.472962 
L 273.147531 316.234711 
" clip-path="url(#p79344076cf)" style="fill: none; stroke: #000000"/>
    <path d="M 237.769248 164.472962 
L 92.693374 162.40986 
" clip-path="url(#p79344076cf)" style="fill: none; stroke: #000000"/>
    <path d="M 237.769248 164.472962 
L 128.526324 282.287888 
" clip-path="url(#p79344076cf)" style="fill: none; stroke: #000000"/>
    <path d="M 237.769248 164.472962 
L 215.837733 99.357119 
" clip-path="url(#p79344076cf)" style="fill: none; stroke: #000000"/>
    <path d="M 237.769248 164.472962 
L 348.092181 145.616418 
" clip-path="url(#p79344076cf)" style="fill: none; stroke: #000000"/>
    <path d="M 237.769248 164.472962 
L 263.392201 215.157965 
" clip-path="url(#p79344076cf)" style="fill: none; stroke: #000000"/>
    <path d="M 237.769248 164.472962 
L 343.487273 262.87311 
" clip-path="url(#p79344076cf)" style="fill: none; stroke: #000000"/>
    <path d="M 237.769248 164.472962 
L 122.483383 236.751178 
" clip-path="url(#p79344076cf)" style="fill: none; stroke: #000000"/>
    <path d="M 237.769248 164.472962 
L 258.445012 52.192753 
" clip-path="url(#p79344076cf)" style="fill: none; stroke: #000000"/>
    <path d="M 237.769248 164.472962 
L 176.692641 162.290267 
" clip-path="url(#p79344076cf)" style="fill: none; stroke: #000000"/>
    <path d="M 309.428444 181.28315 
L 184.201503 261.25529 
" clip-path="url(#p79344076cf)" style="fill: none; stroke: #000000"/>
    <path d="M 309.428444 181.28315 
L 132.562703 71.104277 
" clip-path="url(#p79344076cf)" style="fill: none; stroke: #000000"/>
    <path d="M 309.428444 181.28315 
L 273.147531 316.234711 
" clip-path="url(#p79344076cf)" style="fill: none; stroke: #000000"/>
    <path d="M 309.428444 181.28315 
L 92.693374 162.40986 
" clip-path="url(#p79344076cf)" style="fill: none; stroke: #000000"/>
    <path d="M 309.428444 181.28315 
L 128.526324 282.287888 
" clip-path="url(#p79344076cf)" style="fill: none; stroke: #000000"/>
    <path d="M 309.428444 181.28315 
L 215.837733 99.357119 
" clip-path="url(#p79344076cf)" style="fill: none; stroke: #000000"/>
    <path d="M 309.428444 181.28315 
L 348.092181 145.616418 
" clip-path="url(#p79344076cf)" style="fill: none; stroke: #000000"/>
    <path d="M 309.428444 181.28315 
L 263.392201 215.157965 
" clip-path="url(#p79344076cf)" style="fill: none; stroke: #000000"/>
    <path d="M 309.428444 181.28315 
L 343.487273 262.87311 
" clip-path="url(#p79344076cf)" style="fill: none; stroke: #000000"/>
    <path d="M 309.428444 181.28315 
L 122.483383 236.751178 
" clip-path="url(#p79344076cf)" style="fill: none; stroke: #000000"/>
    <path d="M 309.428444 181.28315 
L 258.445012 52.192753 
" clip-path="url(#p79344076cf)" style="fill: none; stroke: #000000"/>
    <path d="M 184.201503 261.25529 
L 132.562703 71.104277 
" clip-path="url(#p79344076cf)" style="fill: none; stroke: #000000"/>
    <path d="M 184.201503 261.25529 
L 92.693374 162.40986 
" clip-path="url(#p79344076cf)" style="fill: none; stroke: #000000"/>
    <path d="M 184.201503 261.25529 
L 348.092181 145.616418 
" clip-path="url(#p79344076cf)" style="fill: none; stroke: #000000"/>
    <path d="M 184.201503 261.25529 
L 343.487273 262.87311 
" clip-path="url(#p79344076cf)" style="fill: none; stroke: #000000"/>
    <path d="M 184.201503 261.25529 
L 122.483383 236.751178 
" clip-path="url(#p79344076cf)" style="fill: none; stroke: #000000"/>
    <path d="M 184.201503 261.25529 
L 176.692641 162.290267 
" clip-path="url(#p79344076cf)" style="fill: none; stroke: #000000"/>
    <path d="M 132.562703 71.104277 
L 92.693374 162.40986 
" clip-path="url(#p79344076cf)" style="fill: none; stroke: #000000"/>
    <path d="M 132.562703 71.104277 
L 128.526324 282.287888 
" clip-path="url(#p79344076cf)" style="fill: none; stroke: #000000"/>
    <path d="M 132.562703 71.104277 
L 215.837733 99.357119 
" clip-path="url(#p79344076cf)" style="fill: none; stroke: #000000"/>
    <path d="M 132.562703 71.104277 
L 348.092181 145.616418 
" clip-path="url(#p79344076cf)" style="fill: none; stroke: #000000"/>
    <path d="M 132.562703 71.104277 
L 122.483383 236.751178 
" clip-path="url(#p79344076cf)" style="fill: none; stroke: #000000"/>
    <path d="M 132.562703 71.104277 
L 258.445012 52.192753 
" clip-path="url(#p79344076cf)" style="fill: none; stroke: #000000"/>
    <path d="M 132.562703 71.104277 
L 176.692641 162.290267 
" clip-path="url(#p79344076cf)" style="fill: none; stroke: #000000"/>
    <path d="M 273.147531 316.234711 
L 92.693374 162.40986 
" clip-path="url(#p79344076cf)" style="fill: none; stroke: #000000"/>
    <path d="M 273.147531 316.234711 
L 128.526324 282.287888 
" clip-path="url(#p79344076cf)" style="fill: none; stroke: #000000"/>
    <path d="M 273.147531 316.234711 
L 215.837733 99.357119 
" clip-path="url(#p79344076cf)" style="fill: none; stroke: #000000"/>
    <path d="M 273.147531 316.234711 
L 348.092181 145.616418 
" clip-path="url(#p79344076cf)" style="fill: none; stroke: #000000"/>
    <path d="M 273.147531 316.234711 
L 263.392201 215.157965 
" clip-path="url(#p79344076cf)" style="fill: none; stroke: #000000"/>
    <path d="M 273.147531 316.234711 
L 343.487273 262.87311 
" clip-path="url(#p79344076cf)" style="fill: none; stroke: #000000"/>
    <path d="M 273.147531 316.234711 
L 122.483383 236.751178 
" clip-path="url(#p79344076cf)" style="fill: none; stroke: #000000"/>
    <path d="M 273.147531 316.234711 
L 258.445012 52.192753 
" clip-path="url(#p79344076cf)" style="fill: none; stroke: #000000"/>
    <path d="M 273.147531 316.234711 
L 176.692641 162.290267 
" clip-path="url(#p79344076cf)" style="fill: none; stroke: #000000"/>
    <path d="M 92.693374 162.40986 
L 128.526324 282.287888 
" clip-path="url(#p79344076cf)" style="fill: none; stroke: #000000"/>
    <path d="M 92.693374 162.40986 
L 215.837733 99.357119 
" clip-path="url(#p79344076cf)" style="fill: none; stroke: #000000"/>
    <path d="M 92.693374 162.40986 
L 263.392201 215.157965 
" clip-path="url(#p79344076cf)" style="fill: none; stroke: #000000"/>
    <path d="M 92.693374 162.40986 
L 122.483383 236.751178 
" clip-path="url(#p79344076cf)" style="fill: none; stroke: #000000"/>
    <path d="M 92.693374 162.40986 
L 258.445012 52.192753 
" clip-path="url(#p79344076cf)" style="fill: none; stroke: #000000"/>
    <path d="M 92.693374 162.40986 
L 176.692641 162.290267 
" clip-path="url(#p79344076cf)" style="fill: none; stroke: #000000"/>
    <path d="M 128.526324 282.287888 
L 215.837733 99.357119 
" clip-path="url(#p79344076cf)" style="fill: none; stroke: #000000"/>
    <path d="M 128.526324 282.287888 
L 263.392201 215.157965 
" clip-path="url(#p79344076cf)" style="fill: none; stroke: #000000"/>
    <path d="M 128.526324 282.287888 
L 122.483383 236.751178 
" clip-path="url(#p79344076cf)" style="fill: none; stroke: #000000"/>
    <path d="M 128.526324 282.287888 
L 258.445012 52.192753 
" clip-path="url(#p79344076cf)" style="fill: none; stroke: #000000"/>
    <path d="M 128.526324 282.287888 
L 176.692641 162.290267 
" clip-path="url(#p79344076cf)" style="fill: none; stroke: #000000"/>
    <path d="M 215.837733 99.357119 
L 348.092181 145.616418 
" clip-path="url(#p79344076cf)" style="fill: none; stroke: #000000"/>
    <path d="M 215.837733 99.357119 
L 343.487273 262.87311 
" clip-path="url(#p79344076cf)" style="fill: none; stroke: #000000"/>
    <path d="M 215.837733 99.357119 
L 122.483383 236.751178 
" clip-path="url(#p79344076cf)" style="fill: none; stroke: #000000"/>
    <path d="M 215.837733 99.357119 
L 258.445012 52.192753 
" clip-path="url(#p79344076cf)" style="fill: none; stroke: #000000"/>
    <path d="M 215.837733 99.357119 
L 176.692641 162.290267 
" clip-path="url(#p79344076cf)" style="fill: none; stroke: #000000"/>
    <path d="M 348.092181 145.616418 
L 263.392201 215.157965 
" clip-path="url(#p79344076cf)" style="fill: none; stroke: #000000"/>
    <path d="M 348.092181 145.616418 
L 343.487273 262.87311 
" clip-path="url(#p79344076cf)" style="fill: none; stroke: #000000"/>
    <path d="M 348.092181 145.616418 
L 122.483383 236.751178 
" clip-path="url(#p79344076cf)" style="fill: none; stroke: #000000"/>
    <path d="M 348.092181 145.616418 
L 258.445012 52.192753 
" clip-path="url(#p79344076cf)" style="fill: none; stroke: #000000"/>
    <path d="M 348.092181 145.616418 
L 176.692641 162.290267 
" clip-path="url(#p79344076cf)" style="fill: none; stroke: #000000"/>
    <path d="M 263.392201 215.157965 
L 343.487273 262.87311 
" clip-path="url(#p79344076cf)" style="fill: none; stroke: #000000"/>
    <path d="M 263.392201 215.157965 
L 122.483383 236.751178 
" clip-path="url(#p79344076cf)" style="fill: none; stroke: #000000"/>
    <path d="M 263.392201 215.157965 
L 258.445012 52.192753 
" clip-path="url(#p79344076cf)" style="fill: none; stroke: #000000"/>
    <path d="M 343.487273 262.87311 
L 122.483383 236.751178 
" clip-path="url(#p79344076cf)" style="fill: none; stroke: #000000"/>
    <path d="M 343.487273 262.87311 
L 176.692641 162.290267 
" clip-path="url(#p79344076cf)" style="fill: none; stroke: #000000"/>
    <path d="M 122.483383 236.751178 
L 258.445012 52.192753 
" clip-path="url(#p79344076cf)" style="fill: none; stroke: #000000"/>
    <path d="M 122.483383 236.751178 
L 176.692641 162.290267 
" clip-path="url(#p79344076cf)" style="fill: none; stroke: #000000"/>
    <path d="M 258.445012 52.192753 
L 176.692641 162.290267 
" clip-path="url(#p79344076cf)" style="fill: none; stroke: #000000"/>
   </g>
   <g id="PathCollection_1">
    <defs>
     <path id="m631d38e4a6" d="M 0 8.660254 
C 2.296726 8.660254 4.499694 7.747755 6.123724 6.123724 
C 7.747755 4.499694 8.660254 2.296726 8.660254 0 
C 8.660254 -2.296726 7.747755 -4.499694 6.123724 -6.123724 
C 4.499694 -7.747755 2.296726 -8.660254 0 -8.660254 
C -2.296726 -8.660254 -4.499694 -7.747755 -6.123724 -6.123724 
C -7.747755 -4.499694 -8.660254 -2.296726 -8.660254 0 
C -8.660254 2.296726 -7.747755 4.499694 -6.123724 6.123724 
C -4.499694 7.747755 -2.296726 8.660254 0 8.660254 
z
" style="stroke: #800080"/>
    </defs>
    <g clip-path="url(#p79344076cf)">
     <use xlink:href="#m631d38e4a6" x="320.391129" y="93.68568" style="fill: #800080; stroke: #800080"/>
     <use xlink:href="#m631d38e4a6" x="236.217823" y="260.851552" style="fill: #800080; stroke: #800080"/>
     <use xlink:href="#m631d38e4a6" x="182.5869" y="36.565289" style="fill: #800080; stroke: #800080"/>
     <use xlink:href="#m631d38e4a6" x="265.280503" y="102.754723" style="fill: #800080; stroke: #800080"/>
     <use xlink:href="#m631d38e4a6" x="42.813223" y="140.621807" style="fill: #800080; stroke: #800080"/>
     <use xlink:href="#m631d38e4a6" x="75.091265" y="213.588122" style="fill: #800080; stroke: #800080"/>
     <use xlink:href="#m631d38e4a6" x="78.618293" y="77.482641" style="fill: #800080; stroke: #800080"/>
     <use xlink:href="#m631d38e4a6" x="180.727687" y="209.450634" style="fill: #800080; stroke: #800080"/>
     <use xlink:href="#m631d38e4a6" x="150.542922" y="123.665149" style="fill: #800080; stroke: #800080"/>
     <use xlink:href="#m631d38e4a6" x="381.986777" y="192.821054" style="fill: #800080; stroke: #800080"/>
     <use xlink:href="#m631d38e4a6" x="237.769248" y="164.472962" style="fill: #800080; stroke: #800080"/>
     <use xlink:href="#m631d38e4a6" x="309.428444" y="181.28315" style="fill: #800080; stroke: #800080"/>
     <use xlink:href="#m631d38e4a6" x="184.201503" y="261.25529" style="fill: #800080; stroke: #800080"/>
     <use xlink:href="#m631d38e4a6" x="132.562703" y="71.104277" style="fill: #800080; stroke: #800080"/>
     <use xlink:href="#m631d38e4a6" x="273.147531" y="316.234711" style="fill: #800080; stroke: #800080"/>
     <use xlink:href="#m631d38e4a6" x="92.693374" y="162.40986" style="fill: #800080; stroke: #800080"/>
     <use xlink:href="#m631d38e4a6" x="128.526324" y="282.287888" style="fill: #800080; stroke: #800080"/>
     <use xlink:href="#m631d38e4a6" x="215.837733" y="99.357119" style="fill: #800080; stroke: #800080"/>
     <use xlink:href="#m631d38e4a6" x="348.092181" y="145.616418" style="fill: #800080; stroke: #800080"/>
     <use xlink:href="#m631d38e4a6" x="263.392201" y="215.157965" style="fill: #800080; stroke: #800080"/>
     <use xlink:href="#m631d38e4a6" x="343.487273" y="262.87311" style="fill: #800080; stroke: #800080"/>
     <use xlink:href="#m631d38e4a6" x="122.483383" y="236.751178" style="fill: #800080; stroke: #800080"/>
     <use xlink:href="#m631d38e4a6" x="258.445012" y="52.192753" style="fill: #800080; stroke: #800080"/>
     <use xlink:href="#m631d38e4a6" x="176.692641" y="162.290267" style="fill: #800080; stroke: #800080"/>
    </g>
   </g>
  </g>
 </g>
 <defs>
  <clipPath id="p79344076cf">
   <rect x="7.2" y="7.2" width="410.4" height="338.4"/>
  </clipPath>
 </defs>
</svg>
