<?xml version="1.0" encoding="utf-8" standalone="no"?>
<!DOCTYPE svg PUBLIC "-//W3C//DTD SVG 1.1//EN"
  "http://www.w3.org/Graphics/SVG/1.1/DTD/svg11.dtd">
<svg xmlns:xlink="http://www.w3.org/1999/xlink" width="424.8pt" height="352.8pt" viewBox="0 0 424.8 352.8" xmlns="http://www.w3.org/2000/svg" version="1.1">
 <metadata>
  <rdf:RDF xmlns:dc="http://purl.org/dc/elements/1.1/" xmlns:cc="http://creativecommons.org/ns#" xmlns:rdf="http://www.w3.org/1999/02/22-rdf-syntax-ns#">
   <cc:Work>
    <dc:type rdf:resource="http://purl.org/dc/dcmitype/StillImage"/>
    <dc:date>2024-01-13T12:37:59.840337</dc:date>
    <dc:format>image/svg+xml</dc:format>
    <dc:creator>
     <cc:Agent>
      <dc:title>Matplotlib v3.7.1, https://matplotlib.org/</dc:title>
     </cc:Agent>
    </dc:creator>
   </cc:Work>
  </rdf:RDF>
 </metadata>
 <defs>
  <style type="text/css">*{stroke-linejoin: round; stroke-linecap: butt}</style>
 </defs>
 <g id="figure_1">
  <g id="patch_1">
   <path d="M 0 352.8 
L 424.8 352.8 
L 424.8 0 
L 0 0 
z
" style="fill: #ffffff"/>
  </g>
  <g id="axes_1">
   <g id="LineCollection_1">
    <path d="M 127.93461 279.071911 
L 69.272348 315.794875 
" clip-path="url(#p176e03a24f)" style="fill: none; stroke: #000000"/>
    <path d="M 127.93461 279.071911 
L 119.94365 295.830483 
" clip-path="url(#p176e03a24f)" style="fill: none; stroke: #000000"/>
    <path d="M 127.93461 279.071911 
L 55.194414 247.912534 
" clip-path="url(#p176e03a24f)" style="fill: none; stroke: #000000"/>
    <path d="M 127.93461 279.071911 
L 48.409992 299.792173 
" clip-path="url(#p176e03a24f)" style="fill: none; stroke: #000000"/>
    <path d="M 127.93461 279.071911 
L 112.273345 243.26819 
" clip-path="url(#p176e03a24f)" style="fill: none; stroke: #000000"/>
    <path d="M 127.93461 279.071911 
L 93.540622 264.711602 
" clip-path="url(#p176e03a24f)" style="fill: none; stroke: #000000"/>
    <path d="M 127.93461 279.071911 
L 42.813223 273.076665 
" clip-path="url(#p176e03a24f)" style="fill: none; stroke: #000000"/>
    <path d="M 127.93461 279.071911 
L 233.460198 260.466211 
" clip-path="url(#p176e03a24f)" style="fill: none; stroke: #000000"/>
    <path d="M 127.93461 279.071911 
L 226.955095 299.625697 
" clip-path="url(#p176e03a24f)" style="fill: none; stroke: #000000"/>
    <path d="M 69.272348 315.794875 
L 119.94365 295.830483 
" clip-path="url(#p176e03a24f)" style="fill: none; stroke: #000000"/>
    <path d="M 69.272348 315.794875 
L 55.194414 247.912534 
" clip-path="url(#p176e03a24f)" style="fill: none; stroke: #000000"/>
    <path d="M 69.272348 315.794875 
L 48.409992 299.792173 
" clip-path="url(#p176e03a24f)" style="fill: none; stroke: #000000"/>
    <path d="M 69.272348 315.794875 
L 112.273345 243.26819 
" clip-path="url(#p176e03a24f)" style="fill: none; stroke: #000000"/>
    <path d="M 69.272348 315.794875 
L 93.540622 264.711602 
" clip-path="url(#p176e03a24f)" style="fill: none; stroke: #000000"/>
    <path d="M 69.272348 315.794875 
L 42.813223 273.076665 
" clip-path="url(#p176e03a24f)" style="fill: none; stroke: #000000"/>
    <path d="M 119.94365 295.830483 
L 55.194414 247.912534 
" clip-path="url(#p176e03a24f)" style="fill: none; stroke: #000000"/>
    <path d="M 119.94365 295.830483 
L 48.409992 299.792173 
" clip-path="url(#p176e03a24f)" style="fill: none; stroke: #000000"/>
    <path d="M 119.94365 295.830483 
L 112.273345 243.26819 
" clip-path="url(#p176e03a24f)" style="fill: none; stroke: #000000"/>
    <path d="M 119.94365 295.830483 
L 93.540622 264.711602 
" clip-path="url(#p176e03a24f)" style="fill: none; stroke: #000000"/>
    <path d="M 119.94365 295.830483 
L 42.813223 273.076665 
" clip-path="url(#p176e03a24f)" style="fill: none; stroke: #000000"/>
    <path d="M 119.94365 295.830483 
L 233.460198 260.466211 
" clip-path="url(#p176e03a24f)" style="fill: none; stroke: #000000"/>
    <path d="M 119.94365 295.830483 
L 218.283394 239.104387 
" clip-path="url(#p176e03a24f)" style="fill: none; stroke: #000000"/>
    <path d="M 55.194414 247.912534 
L 48.409992 299.792173 
" clip-path="url(#p176e03a24f)" style="fill: none; stroke: #000000"/>
    <path d="M 55.194414 247.912534 
L 112.273345 243.26819 
" clip-path="url(#p176e03a24f)" style="fill: none; stroke: #000000"/>
    <path d="M 55.194414 247.912534 
L 93.540622 264.711602 
" clip-path="url(#p176e03a24f)" style="fill: none; stroke: #000000"/>
    <path d="M 55.194414 247.912534 
L 42.813223 273.076665 
" clip-path="url(#p176e03a24f)" style="fill: none; stroke: #000000"/>
    <path d="M 48.409992 299.792173 
L 112.273345 243.26819 
" clip-path="url(#p176e03a24f)" style="fill: none; stroke: #000000"/>
    <path d="M 48.409992 299.792173 
L 93.540622 264.711602 
" clip-path="url(#p176e03a24f)" style="fill: none; stroke: #000000"/>
    <path d="M 48.409992 299.792173 
L 42.813223 273.076665 
" clip-path="url(#p176e03a24f)" style="fill: none; stroke: #000000"/>
    <path d="M 112.273345 243.26819 
L 93.540622 264.711602 
" clip-path="url(#p176e03a24f)" style="fill: none; stroke: #000000"/>
    <path d="M 112.273345 243.26819 
L 42.813223 273.076665 
" clip-path="url(#p176e03a24f)" style="fill: none; stroke: #000000"/>
    <path d="M 112.273345 243.26819 
L 253.167374 227.494269 
" clip-path="url(#p176e03a24f)" style="fill: none; stroke: #000000"/>
    <path d="M 93.540622 264.711602 
L 42.813223 273.076665 
" clip-path="url(#p176e03a24f)" style="fill: none; stroke: #000000"/>
    <path d="M 93.540622 264.711602 
L 218.283394 239.104387 
" clip-path="url(#p176e03a24f)" style="fill: none; stroke: #000000"/>
    <path d="M 270.737681 287.840457 
L 233.460198 260.466211 
" clip-path="url(#p176e03a24f)" style="fill: none; stroke: #000000"/>
    <path d="M 270.737681 287.840457 
L 226.955095 299.625697 
" clip-path="url(#p176e03a24f)" style="fill: none; stroke: #000000"/>
    <path d="M 270.737681 287.840457 
L 292.515134 246.370197 
" clip-path="url(#p176e03a24f)" style="fill: none; stroke: #000000"/>
    <path d="M 270.737681 287.840457 
L 218.283394 239.104387 
" clip-path="url(#p176e03a24f)" style="fill: none; stroke: #000000"/>
    <path d="M 270.737681 287.840457 
L 265.814439 316.234711 
" clip-path="url(#p176e03a24f)" style="fill: none; stroke: #000000"/>
    <path d="M 270.737681 287.840457 
L 295.900831 294.298833 
" clip-path="url(#p176e03a24f)" style="fill: none; stroke: #000000"/>
    <path d="M 270.737681 287.840457 
L 253.167374 227.494269 
" clip-path="url(#p176e03a24f)" style="fill: none; stroke: #000000"/>
    <path d="M 233.460198 260.466211 
L 226.955095 299.625697 
" clip-path="url(#p176e03a24f)" style="fill: none; stroke: #000000"/>
    <path d="M 233.460198 260.466211 
L 292.515134 246.370197 
" clip-path="url(#p176e03a24f)" style="fill: none; stroke: #000000"/>
    <path d="M 233.460198 260.466211 
L 218.283394 239.104387 
" clip-path="url(#p176e03a24f)" style="fill: none; stroke: #000000"/>
    <path d="M 233.460198 260.466211 
L 265.814439 316.234711 
" clip-path="url(#p176e03a24f)" style="fill: none; stroke: #000000"/>
    <path d="M 233.460198 260.466211 
L 295.900831 294.298833 
" clip-path="url(#p176e03a24f)" style="fill: none; stroke: #000000"/>
    <path d="M 233.460198 260.466211 
L 253.167374 227.494269 
" clip-path="url(#p176e03a24f)" style="fill: none; stroke: #000000"/>
    <path d="M 233.460198 260.466211 
L 325.351602 138.39224 
" clip-path="url(#p176e03a24f)" style="fill: none; stroke: #000000"/>
    <path d="M 226.955095 299.625697 
L 292.515134 246.370197 
" clip-path="url(#p176e03a24f)" style="fill: none; stroke: #000000"/>
    <path d="M 226.955095 299.625697 
L 218.283394 239.104387 
" clip-path="url(#p176e03a24f)" style="fill: none; stroke: #000000"/>
    <path d="M 226.955095 299.625697 
L 265.814439 316.234711 
" clip-path="url(#p176e03a24f)" style="fill: none; stroke: #000000"/>
    <path d="M 226.955095 299.625697 
L 295.900831 294.298833 
" clip-path="url(#p176e03a24f)" style="fill: none; stroke: #000000"/>
    <path d="M 226.955095 299.625697 
L 253.167374 227.494269 
" clip-path="url(#p176e03a24f)" style="fill: none; stroke: #000000"/>
    <path d="M 292.515134 246.370197 
L 218.283394 239.104387 
" clip-path="url(#p176e03a24f)" style="fill: none; stroke: #000000"/>
    <path d="M 292.515134 246.370197 
L 265.814439 316.234711 
" clip-path="url(#p176e03a24f)" style="fill: none; stroke: #000000"/>
    <path d="M 292.515134 246.370197 
L 295.900831 294.298833 
" clip-path="url(#p176e03a24f)" style="fill: none; stroke: #000000"/>
    <path d="M 292.515134 246.370197 
L 253.167374 227.494269 
" clip-path="url(#p176e03a24f)" style="fill: none; stroke: #000000"/>
    <path d="M 292.515134 246.370197 
L 325.351602 138.39224 
" clip-path="url(#p176e03a24f)" style="fill: none; stroke: #000000"/>
    <path d="M 218.283394 239.104387 
L 265.814439 316.234711 
" clip-path="url(#p176e03a24f)" style="fill: none; stroke: #000000"/>
    <path d="M 218.283394 239.104387 
L 295.900831 294.298833 
" clip-path="url(#p176e03a24f)" style="fill: none; stroke: #000000"/>
    <path d="M 218.283394 239.104387 
L 253.167374 227.494269 
" clip-path="url(#p176e03a24f)" style="fill: none; stroke: #000000"/>
    <path d="M 218.283394 239.104387 
L 304.40449 102.614885 
" clip-path="url(#p176e03a24f)" style="fill: none; stroke: #000000"/>
    <path d="M 265.814439 316.234711 
L 295.900831 294.298833 
" clip-path="url(#p176e03a24f)" style="fill: none; stroke: #000000"/>
    <path d="M 265.814439 316.234711 
L 253.167374 227.494269 
" clip-path="url(#p176e03a24f)" style="fill: none; stroke: #000000"/>
    <path d="M 295.900831 294.298833 
L 253.167374 227.494269 
" clip-path="url(#p176e03a24f)" style="fill: none; stroke: #000000"/>
    <path d="M 253.167374 227.494269 
L 339.040518 112.637255 
" clip-path="url(#p176e03a24f)" style="fill: none; stroke: #000000"/>
    <path d="M 339.040518 112.637255 
L 378.967371 54.088674 
" clip-path="url(#p176e03a24f)" style="fill: none; stroke: #000000"/>
    <path d="M 339.040518 112.637255 
L 325.351602 138.39224 
" clip-path="url(#p176e03a24f)" style="fill: none; stroke: #000000"/>
    <path d="M 339.040518 112.637255 
L 323.087001 48.772642 
" clip-path="url(#p176e03a24f)" style="fill: none; stroke: #000000"/>
    <path d="M 339.040518 112.637255 
L 349.178629 36.565289 
" clip-path="url(#p176e03a24f)" style="fill: none; stroke: #000000"/>
    <path d="M 339.040518 112.637255 
L 304.40449 102.614885 
" clip-path="url(#p176e03a24f)" style="fill: none; stroke: #000000"/>
    <path d="M 339.040518 112.637255 
L 381.986777 86.285516 
" clip-path="url(#p176e03a24f)" style="fill: none; stroke: #000000"/>
    <path d="M 339.040518 112.637255 
L 352.746005 69.285165 
" clip-path="url(#p176e03a24f)" style="fill: none; stroke: #000000"/>
    <path d="M 378.967371 54.088674 
L 325.351602 138.39224 
" clip-path="url(#p176e03a24f)" style="fill: none; stroke: #000000"/>
    <path d="M 378.967371 54.088674 
L 323.087001 48.772642 
" clip-path="url(#p176e03a24f)" style="fill: none; stroke: #000000"/>
    <path d="M 378.967371 54.088674 
L 349.178629 36.565289 
" clip-path="url(#p176e03a24f)" style="fill: none; stroke: #000000"/>
    <path d="M 378.967371 54.088674 
L 304.40449 102.614885 
" clip-path="url(#p176e03a24f)" style="fill: none; stroke: #000000"/>
    <path d="M 378.967371 54.088674 
L 381.986777 86.285516 
" clip-path="url(#p176e03a24f)" style="fill: none; stroke: #000000"/>
    <path d="M 378.967371 54.088674 
L 352.746005 69.285165 
" clip-path="url(#p176e03a24f)" style="fill: none; stroke: #000000"/>
    <path d="M 325.351602 138.39224 
L 323.087001 48.772642 
" clip-path="url(#p176e03a24f)" style="fill: none; stroke: #000000"/>
    <path d="M 325.351602 138.39224 
L 349.178629 36.565289 
" clip-path="url(#p176e03a24f)" style="fill: none; stroke: #000000"/>
    <path d="M 325.351602 138.39224 
L 304.40449 102.614885 
" clip-path="url(#p176e03a24f)" style="fill: none; stroke: #000000"/>
    <path d="M 325.351602 138.39224 
L 381.986777 86.285516 
" clip-path="url(#p176e03a24f)" style="fill: none; stroke: #000000"/>
    <path d="M 325.351602 138.39224 
L 352.746005 69.285165 
" clip-path="url(#p176e03a24f)" style="fill: none; stroke: #000000"/>
    <path d="M 323.087001 48.772642 
L 349.178629 36.565289 
" clip-path="url(#p176e03a24f)" style="fill: none; stroke: #000000"/>
    <path d="M 323.087001 48.772642 
L 304.40449 102.614885 
" clip-path="url(#p176e03a24f)" style="fill: none; stroke: #000000"/>
    <path d="M 323.087001 48.772642 
L 381.986777 86.285516 
" clip-path="url(#p176e03a24f)" style="fill: none; stroke: #000000"/>
    <path d="M 323.087001 48.772642 
L 352.746005 69.285165 
" clip-path="url(#p176e03a24f)" style="fill: none; stroke: #000000"/>
    <path d="M 349.178629 36.565289 
L 304.40449 102.614885 
" clip-path="url(#p176e03a24f)" style="fill: none; stroke: #000000"/>
    <path d="M 349.178629 36.565289 
L 381.986777 86.285516 
" clip-path="url(#p176e03a24f)" style="fill: none; stroke: #000000"/>
    <path d="M 349.178629 36.565289 
L 352.746005 69.285165 
" clip-path="url(#p176e03a24f)" style="fill: none; stroke: #000000"/>
    <path d="M 304.40449 102.614885 
L 381.986777 86.285516 
" clip-path="url(#p176e03a24f)" style="fill: none; stroke: #000000"/>
    <path d="M 304.40449 102.614885 
L 352.746005 69.285165 
" clip-path="url(#p176e03a24f)" style="fill: none; stroke: #000000"/>
    <path d="M 381.986777 86.285516 
L 352.746005 69.285165 
" clip-path="url(#p176e03a24f)" style="fill: none; stroke: #000000"/>
   </g>
   <g id="PathCollection_1">
    <defs>
     <path id="m16334e645f" d="M 0 8.660254 
C 2.296726 8.660254 4.499694 7.747755 6.123724 6.123724 
C 7.747755 4.499694 8.660254 2.296726 8.660254 0 
C 8.660254 -2.296726 7.747755 -4.499694 6.123724 -6.123724 
C 4.499694 -7.747755 2.296726 -8.660254 0 -8.660254 
C -2.296726 -8.660254 -4.499694 -7.747755 -6.123724 -6.123724 
C -7.747755 -4.499694 -8.660254 -2.296726 -8.660254 0 
C -8.660254 2.296726 -7.747755 4.499694 -6.123724 6.123724 
C -4.499694 7.747755 -2.296726 8.660254 0 8.660254 
z
" style="stroke: #0000ff"/>
    </defs>
    <g clip-path="url(#p176e03a24f)">
     <use xlink:href="#m16334e645f" x="127.93461" y="279.071911" style="fill: #0000ff; stroke: #0000ff"/>
     <use xlink:href="#m16334e645f" x="69.272348" y="315.794875" style="fill: #0000ff; stroke: #0000ff"/>
     <use xlink:href="#m16334e645f" x="119.94365" y="295.830483" style="fill: #0000ff; stroke: #0000ff"/>
     <use xlink:href="#m16334e645f" x="55.194414" y="247.912534" style="fill: #0000ff; stroke: #0000ff"/>
     <use xlink:href="#m16334e645f" x="48.409992" y="299.792173" style="fill: #0000ff; stroke: #0000ff"/>
     <use xlink:href="#m16334e645f" x="112.273345" y="243.26819" style="fill: #0000ff; stroke: #0000ff"/>
     <use xlink:href="#m16334e645f" x="93.540622" y="264.711602" style="fill: #0000ff; stroke: #0000ff"/>
     <use xlink:href="#m16334e645f" x="42.813223" y="273.076665" style="fill: #0000ff; stroke: #0000ff"/>
     <use xlink:href="#m16334e645f" x="270.737681" y="287.840457" style="fill: #0000ff; stroke: #0000ff"/>
     <use xlink:href="#m16334e645f" x="233.460198" y="260.466211" style="fill: #0000ff; stroke: #0000ff"/>
     <use xlink:href="#m16334e645f" x="226.955095" y="299.625697" style="fill: #0000ff; stroke: #0000ff"/>
     <use xlink:href="#m16334e645f" x="292.515134" y="246.370197" style="fill: #0000ff; stroke: #0000ff"/>
     <use xlink:href="#m16334e645f" x="218.283394" y="239.104387" style="fill: #0000ff; stroke: #0000ff"/>
     <use xlink:href="#m16334e645f" x="265.814439" y="316.234711" style="fill: #0000ff; stroke: #0000ff"/>
     <use xlink:href="#m16334e645f" x="295.900831" y="294.298833" style="fill: #0000ff; stroke: #0000ff"/>
     <use xlink:href="#m16334e645f" x="253.167374" y="227.494269" style="fill: #0000ff; stroke: #0000ff"/>
     <use xlink:href="#m16334e645f" x="339.040518" y="112.637255" style="fill: #0000ff; stroke: #0000ff"/>
     <use xlink:href="#m16334e645f" x="378.967371" y="54.088674" style="fill: #0000ff; stroke: #0000ff"/>
     <use xlink:href="#m16334e645f" x="325.351602" y="138.39224" style="fill: #0000ff; stroke: #0000ff"/>
     <use xlink:href="#m16334e645f" x="323.087001" y="48.772642" style="fill: #0000ff; stroke: #0000ff"/>
     <use xlink:href="#m16334e645f" x="349.178629" y="36.565289" style="fill: #0000ff; stroke: #0000ff"/>
     <use xlink:href="#m16334e645f" x="304.40449" y="102.614885" style="fill: #0000ff; stroke: #0000ff"/>
     <use xlink:href="#m16334e645f" x="381.986777" y="86.285516" style="fill: #0000ff; stroke: #0000ff"/>
     <use xlink:href="#m16334e645f" x="352.746005" y="69.285165" style="fill: #0000ff; stroke: #0000ff"/>
    </g>
   </g>
  </g>
 </g>
 <defs>
  <clipPath id="p176e03a24f">
   <rect x="7.2" y="7.2" width="410.4" height="338.4"/>
  </clipPath>
 </defs>
</svg>
