<?xml version="1.0" encoding="utf-8" standalone="no"?>
<!DOCTYPE svg PUBLIC "-//W3C//DTD SVG 1.1//EN"
  "http://www.w3.org/Graphics/SVG/1.1/DTD/svg11.dtd">
<svg xmlns:xlink="http://www.w3.org/1999/xlink" width="424.8pt" height="352.8pt" viewBox="0 0 424.8 352.8" xmlns="http://www.w3.org/2000/svg" version="1.1">
 <metadata>
  <rdf:RDF xmlns:dc="http://purl.org/dc/elements/1.1/" xmlns:cc="http://creativecommons.org/ns#" xmlns:rdf="http://www.w3.org/1999/02/22-rdf-syntax-ns#">
   <cc:Work>
    <dc:type rdf:resource="http://purl.org/dc/dcmitype/StillImage"/>
    <dc:date>2024-01-14T12:28:12.358953</dc:date>
    <dc:format>image/svg+xml</dc:format>
    <dc:creator>
     <cc:Agent>
      <dc:title>Matplotlib v3.7.1, https://matplotlib.org/</dc:title>
     </cc:Agent>
    </dc:creator>
   </cc:Work>
  </rdf:RDF>
 </metadata>
 <defs>
  <style type="text/css">*{stroke-linejoin: round; stroke-linecap: butt}</style>
 </defs>
 <g id="figure_1">
  <g id="patch_1">
   <path d="M 0 352.8 
L 424.8 352.8 
L 424.8 0 
L 0 0 
z
" style="fill: #ffffff"/>
  </g>
  <g id="axes_1">
   <g id="LineCollection_1">
    <path d="M 146.443764 62.342529 
L 42.813223 76.904493 
" clip-path="url(#p65a7d535a9)" style="fill: none; stroke: #000000"/>
    <path d="M 146.443764 62.342529 
L 132.606962 96.975795 
" clip-path="url(#p65a7d535a9)" style="fill: none; stroke: #000000"/>
    <path d="M 146.443764 62.342529 
L 55.302049 42.597228 
" clip-path="url(#p65a7d535a9)" style="fill: none; stroke: #000000"/>
    <path d="M 146.443764 62.342529 
L 65.136084 62.194922 
" clip-path="url(#p65a7d535a9)" style="fill: none; stroke: #000000"/>
    <path d="M 146.443764 62.342529 
L 121.815933 78.465841 
" clip-path="url(#p65a7d535a9)" style="fill: none; stroke: #000000"/>
    <path d="M 146.443764 62.342529 
L 92.01928 96.813025 
" clip-path="url(#p65a7d535a9)" style="fill: none; stroke: #000000"/>
    <path d="M 146.443764 62.342529 
L 91.189422 36.565289 
" clip-path="url(#p65a7d535a9)" style="fill: none; stroke: #000000"/>
    <path d="M 146.443764 62.342529 
L 252.97151 125.566705 
" clip-path="url(#p65a7d535a9)" style="fill: none; stroke: #000000"/>
    <path d="M 146.443764 62.342529 
L 259.882315 92.476181 
" clip-path="url(#p65a7d535a9)" style="fill: none; stroke: #000000"/>
    <path d="M 42.813223 76.904493 
L 132.606962 96.975795 
" clip-path="url(#p65a7d535a9)" style="fill: none; stroke: #000000"/>
    <path d="M 42.813223 76.904493 
L 55.302049 42.597228 
" clip-path="url(#p65a7d535a9)" style="fill: none; stroke: #000000"/>
    <path d="M 42.813223 76.904493 
L 65.136084 62.194922 
" clip-path="url(#p65a7d535a9)" style="fill: none; stroke: #000000"/>
    <path d="M 42.813223 76.904493 
L 121.815933 78.465841 
" clip-path="url(#p65a7d535a9)" style="fill: none; stroke: #000000"/>
    <path d="M 42.813223 76.904493 
L 92.01928 96.813025 
" clip-path="url(#p65a7d535a9)" style="fill: none; stroke: #000000"/>
    <path d="M 42.813223 76.904493 
L 91.189422 36.565289 
" clip-path="url(#p65a7d535a9)" style="fill: none; stroke: #000000"/>
    <path d="M 132.606962 96.975795 
L 55.302049 42.597228 
" clip-path="url(#p65a7d535a9)" style="fill: none; stroke: #000000"/>
    <path d="M 132.606962 96.975795 
L 65.136084 62.194922 
" clip-path="url(#p65a7d535a9)" style="fill: none; stroke: #000000"/>
    <path d="M 132.606962 96.975795 
L 121.815933 78.465841 
" clip-path="url(#p65a7d535a9)" style="fill: none; stroke: #000000"/>
    <path d="M 132.606962 96.975795 
L 92.01928 96.813025 
" clip-path="url(#p65a7d535a9)" style="fill: none; stroke: #000000"/>
    <path d="M 132.606962 96.975795 
L 91.189422 36.565289 
" clip-path="url(#p65a7d535a9)" style="fill: none; stroke: #000000"/>
    <path d="M 132.606962 96.975795 
L 252.97151 125.566705 
" clip-path="url(#p65a7d535a9)" style="fill: none; stroke: #000000"/>
    <path d="M 132.606962 96.975795 
L 232.254515 143.000696 
" clip-path="url(#p65a7d535a9)" style="fill: none; stroke: #000000"/>
    <path d="M 55.302049 42.597228 
L 65.136084 62.194922 
" clip-path="url(#p65a7d535a9)" style="fill: none; stroke: #000000"/>
    <path d="M 55.302049 42.597228 
L 121.815933 78.465841 
" clip-path="url(#p65a7d535a9)" style="fill: none; stroke: #000000"/>
    <path d="M 55.302049 42.597228 
L 92.01928 96.813025 
" clip-path="url(#p65a7d535a9)" style="fill: none; stroke: #000000"/>
    <path d="M 55.302049 42.597228 
L 91.189422 36.565289 
" clip-path="url(#p65a7d535a9)" style="fill: none; stroke: #000000"/>
    <path d="M 65.136084 62.194922 
L 121.815933 78.465841 
" clip-path="url(#p65a7d535a9)" style="fill: none; stroke: #000000"/>
    <path d="M 65.136084 62.194922 
L 92.01928 96.813025 
" clip-path="url(#p65a7d535a9)" style="fill: none; stroke: #000000"/>
    <path d="M 65.136084 62.194922 
L 91.189422 36.565289 
" clip-path="url(#p65a7d535a9)" style="fill: none; stroke: #000000"/>
    <path d="M 121.815933 78.465841 
L 92.01928 96.813025 
" clip-path="url(#p65a7d535a9)" style="fill: none; stroke: #000000"/>
    <path d="M 121.815933 78.465841 
L 91.189422 36.565289 
" clip-path="url(#p65a7d535a9)" style="fill: none; stroke: #000000"/>
    <path d="M 121.815933 78.465841 
L 260.82007 151.959144 
" clip-path="url(#p65a7d535a9)" style="fill: none; stroke: #000000"/>
    <path d="M 92.01928 96.813025 
L 91.189422 36.565289 
" clip-path="url(#p65a7d535a9)" style="fill: none; stroke: #000000"/>
    <path d="M 92.01928 96.813025 
L 232.254515 143.000696 
" clip-path="url(#p65a7d535a9)" style="fill: none; stroke: #000000"/>
    <path d="M 311.634609 93.224171 
L 252.97151 125.566705 
" clip-path="url(#p65a7d535a9)" style="fill: none; stroke: #000000"/>
    <path d="M 311.634609 93.224171 
L 259.882315 92.476181 
" clip-path="url(#p65a7d535a9)" style="fill: none; stroke: #000000"/>
    <path d="M 311.634609 93.224171 
L 316.172855 150.694186 
" clip-path="url(#p65a7d535a9)" style="fill: none; stroke: #000000"/>
    <path d="M 311.634609 93.224171 
L 232.254515 143.000696 
" clip-path="url(#p65a7d535a9)" style="fill: none; stroke: #000000"/>
    <path d="M 311.634609 93.224171 
L 301.538205 114.899759 
" clip-path="url(#p65a7d535a9)" style="fill: none; stroke: #000000"/>
    <path d="M 311.634609 93.224171 
L 334.344987 117.618519 
" clip-path="url(#p65a7d535a9)" style="fill: none; stroke: #000000"/>
    <path d="M 311.634609 93.224171 
L 260.82007 151.959144 
" clip-path="url(#p65a7d535a9)" style="fill: none; stroke: #000000"/>
    <path d="M 252.97151 125.566705 
L 259.882315 92.476181 
" clip-path="url(#p65a7d535a9)" style="fill: none; stroke: #000000"/>
    <path d="M 252.97151 125.566705 
L 316.172855 150.694186 
" clip-path="url(#p65a7d535a9)" style="fill: none; stroke: #000000"/>
    <path d="M 252.97151 125.566705 
L 232.254515 143.000696 
" clip-path="url(#p65a7d535a9)" style="fill: none; stroke: #000000"/>
    <path d="M 252.97151 125.566705 
L 301.538205 114.899759 
" clip-path="url(#p65a7d535a9)" style="fill: none; stroke: #000000"/>
    <path d="M 252.97151 125.566705 
L 334.344987 117.618519 
" clip-path="url(#p65a7d535a9)" style="fill: none; stroke: #000000"/>
    <path d="M 252.97151 125.566705 
L 260.82007 151.959144 
" clip-path="url(#p65a7d535a9)" style="fill: none; stroke: #000000"/>
    <path d="M 252.97151 125.566705 
L 331.188753 236.879336 
" clip-path="url(#p65a7d535a9)" style="fill: none; stroke: #000000"/>
    <path d="M 259.882315 92.476181 
L 316.172855 150.694186 
" clip-path="url(#p65a7d535a9)" style="fill: none; stroke: #000000"/>
    <path d="M 259.882315 92.476181 
L 232.254515 143.000696 
" clip-path="url(#p65a7d535a9)" style="fill: none; stroke: #000000"/>
    <path d="M 259.882315 92.476181 
L 301.538205 114.899759 
" clip-path="url(#p65a7d535a9)" style="fill: none; stroke: #000000"/>
    <path d="M 259.882315 92.476181 
L 334.344987 117.618519 
" clip-path="url(#p65a7d535a9)" style="fill: none; stroke: #000000"/>
    <path d="M 259.882315 92.476181 
L 260.82007 151.959144 
" clip-path="url(#p65a7d535a9)" style="fill: none; stroke: #000000"/>
    <path d="M 316.172855 150.694186 
L 232.254515 143.000696 
" clip-path="url(#p65a7d535a9)" style="fill: none; stroke: #000000"/>
    <path d="M 316.172855 150.694186 
L 301.538205 114.899759 
" clip-path="url(#p65a7d535a9)" style="fill: none; stroke: #000000"/>
    <path d="M 316.172855 150.694186 
L 334.344987 117.618519 
" clip-path="url(#p65a7d535a9)" style="fill: none; stroke: #000000"/>
    <path d="M 316.172855 150.694186 
L 260.82007 151.959144 
" clip-path="url(#p65a7d535a9)" style="fill: none; stroke: #000000"/>
    <path d="M 316.172855 150.694186 
L 331.188753 236.879336 
" clip-path="url(#p65a7d535a9)" style="fill: none; stroke: #000000"/>
    <path d="M 232.254515 143.000696 
L 301.538205 114.899759 
" clip-path="url(#p65a7d535a9)" style="fill: none; stroke: #000000"/>
    <path d="M 232.254515 143.000696 
L 334.344987 117.618519 
" clip-path="url(#p65a7d535a9)" style="fill: none; stroke: #000000"/>
    <path d="M 232.254515 143.000696 
L 260.82007 151.959144 
" clip-path="url(#p65a7d535a9)" style="fill: none; stroke: #000000"/>
    <path d="M 232.254515 143.000696 
L 313.987876 254.303874 
" clip-path="url(#p65a7d535a9)" style="fill: none; stroke: #000000"/>
    <path d="M 301.538205 114.899759 
L 334.344987 117.618519 
" clip-path="url(#p65a7d535a9)" style="fill: none; stroke: #000000"/>
    <path d="M 301.538205 114.899759 
L 260.82007 151.959144 
" clip-path="url(#p65a7d535a9)" style="fill: none; stroke: #000000"/>
    <path d="M 334.344987 117.618519 
L 260.82007 151.959144 
" clip-path="url(#p65a7d535a9)" style="fill: none; stroke: #000000"/>
    <path d="M 260.82007 151.959144 
L 296.106736 268.131837 
" clip-path="url(#p65a7d535a9)" style="fill: none; stroke: #000000"/>
    <path d="M 296.106736 268.131837 
L 328.85862 316.234711 
" clip-path="url(#p65a7d535a9)" style="fill: none; stroke: #000000"/>
    <path d="M 296.106736 268.131837 
L 331.188753 236.879336 
" clip-path="url(#p65a7d535a9)" style="fill: none; stroke: #000000"/>
    <path d="M 296.106736 268.131837 
L 301.796391 306.089049 
" clip-path="url(#p65a7d535a9)" style="fill: none; stroke: #000000"/>
    <path d="M 296.106736 268.131837 
L 349.137856 289.879057 
" clip-path="url(#p65a7d535a9)" style="fill: none; stroke: #000000"/>
    <path d="M 296.106736 268.131837 
L 313.987876 254.303874 
" clip-path="url(#p65a7d535a9)" style="fill: none; stroke: #000000"/>
    <path d="M 296.106736 268.131837 
L 364.378934 312.293361 
" clip-path="url(#p65a7d535a9)" style="fill: none; stroke: #000000"/>
    <path d="M 296.106736 268.131837 
L 381.986777 287.39867 
" clip-path="url(#p65a7d535a9)" style="fill: none; stroke: #000000"/>
    <path d="M 328.85862 316.234711 
L 331.188753 236.879336 
" clip-path="url(#p65a7d535a9)" style="fill: none; stroke: #000000"/>
    <path d="M 328.85862 316.234711 
L 301.796391 306.089049 
" clip-path="url(#p65a7d535a9)" style="fill: none; stroke: #000000"/>
    <path d="M 328.85862 316.234711 
L 349.137856 289.879057 
" clip-path="url(#p65a7d535a9)" style="fill: none; stroke: #000000"/>
    <path d="M 328.85862 316.234711 
L 313.987876 254.303874 
" clip-path="url(#p65a7d535a9)" style="fill: none; stroke: #000000"/>
    <path d="M 328.85862 316.234711 
L 364.378934 312.293361 
" clip-path="url(#p65a7d535a9)" style="fill: none; stroke: #000000"/>
    <path d="M 328.85862 316.234711 
L 381.986777 287.39867 
" clip-path="url(#p65a7d535a9)" style="fill: none; stroke: #000000"/>
    <path d="M 331.188753 236.879336 
L 301.796391 306.089049 
" clip-path="url(#p65a7d535a9)" style="fill: none; stroke: #000000"/>
    <path d="M 331.188753 236.879336 
L 349.137856 289.879057 
" clip-path="url(#p65a7d535a9)" style="fill: none; stroke: #000000"/>
    <path d="M 331.188753 236.879336 
L 313.987876 254.303874 
" clip-path="url(#p65a7d535a9)" style="fill: none; stroke: #000000"/>
    <path d="M 331.188753 236.879336 
L 364.378934 312.293361 
" clip-path="url(#p65a7d535a9)" style="fill: none; stroke: #000000"/>
    <path d="M 331.188753 236.879336 
L 381.986777 287.39867 
" clip-path="url(#p65a7d535a9)" style="fill: none; stroke: #000000"/>
    <path d="M 301.796391 306.089049 
L 349.137856 289.879057 
" clip-path="url(#p65a7d535a9)" style="fill: none; stroke: #000000"/>
    <path d="M 301.796391 306.089049 
L 313.987876 254.303874 
" clip-path="url(#p65a7d535a9)" style="fill: none; stroke: #000000"/>
    <path d="M 301.796391 306.089049 
L 364.378934 312.293361 
" clip-path="url(#p65a7d535a9)" style="fill: none; stroke: #000000"/>
    <path d="M 301.796391 306.089049 
L 381.986777 287.39867 
" clip-path="url(#p65a7d535a9)" style="fill: none; stroke: #000000"/>
    <path d="M 349.137856 289.879057 
L 313.987876 254.303874 
" clip-path="url(#p65a7d535a9)" style="fill: none; stroke: #000000"/>
    <path d="M 349.137856 289.879057 
L 364.378934 312.293361 
" clip-path="url(#p65a7d535a9)" style="fill: none; stroke: #000000"/>
    <path d="M 349.137856 289.879057 
L 381.986777 287.39867 
" clip-path="url(#p65a7d535a9)" style="fill: none; stroke: #000000"/>
    <path d="M 313.987876 254.303874 
L 364.378934 312.293361 
" clip-path="url(#p65a7d535a9)" style="fill: none; stroke: #000000"/>
    <path d="M 313.987876 254.303874 
L 381.986777 287.39867 
" clip-path="url(#p65a7d535a9)" style="fill: none; stroke: #000000"/>
    <path d="M 364.378934 312.293361 
L 381.986777 287.39867 
" clip-path="url(#p65a7d535a9)" style="fill: none; stroke: #000000"/>
   </g>
   <g id="PathCollection_1">
    <defs>
     <path id="mdaa9b2b5c8" d="M 0 8.660254 
C 2.296726 8.660254 4.499694 7.747755 6.123724 6.123724 
C 7.747755 4.499694 8.660254 2.296726 8.660254 0 
C 8.660254 -2.296726 7.747755 -4.499694 6.123724 -6.123724 
C 4.499694 -7.747755 2.296726 -8.660254 0 -8.660254 
C -2.296726 -8.660254 -4.499694 -7.747755 -6.123724 -6.123724 
C -7.747755 -4.499694 -8.660254 -2.296726 -8.660254 0 
C -8.660254 2.296726 -7.747755 4.499694 -6.123724 6.123724 
C -4.499694 7.747755 -2.296726 8.660254 0 8.660254 
z
" style="stroke: #0000ff"/>
    </defs>
    <g clip-path="url(#p65a7d535a9)">
     <use xlink:href="#mdaa9b2b5c8" x="146.443764" y="62.342529" style="fill: #0000ff; stroke: #0000ff"/>
     <use xlink:href="#mdaa9b2b5c8" x="42.813223" y="76.904493" style="fill: #0000ff; stroke: #0000ff"/>
     <use xlink:href="#mdaa9b2b5c8" x="132.606962" y="96.975795" style="fill: #0000ff; stroke: #0000ff"/>
     <use xlink:href="#mdaa9b2b5c8" x="55.302049" y="42.597228" style="fill: #0000ff; stroke: #0000ff"/>
     <use xlink:href="#mdaa9b2b5c8" x="65.136084" y="62.194922" style="fill: #0000ff; stroke: #0000ff"/>
     <use xlink:href="#mdaa9b2b5c8" x="121.815933" y="78.465841" style="fill: #0000ff; stroke: #0000ff"/>
     <use xlink:href="#mdaa9b2b5c8" x="92.01928" y="96.813025" style="fill: #0000ff; stroke: #0000ff"/>
     <use xlink:href="#mdaa9b2b5c8" x="91.189422" y="36.565289" style="fill: #0000ff; stroke: #0000ff"/>
     <use xlink:href="#mdaa9b2b5c8" x="311.634609" y="93.224171" style="fill: #0000ff; stroke: #0000ff"/>
     <use xlink:href="#mdaa9b2b5c8" x="252.97151" y="125.566705" style="fill: #0000ff; stroke: #0000ff"/>
     <use xlink:href="#mdaa9b2b5c8" x="259.882315" y="92.476181" style="fill: #0000ff; stroke: #0000ff"/>
     <use xlink:href="#mdaa9b2b5c8" x="316.172855" y="150.694186" style="fill: #0000ff; stroke: #0000ff"/>
     <use xlink:href="#mdaa9b2b5c8" x="232.254515" y="143.000696" style="fill: #0000ff; stroke: #0000ff"/>
     <use xlink:href="#mdaa9b2b5c8" x="301.538205" y="114.899759" style="fill: #0000ff; stroke: #0000ff"/>
     <use xlink:href="#mdaa9b2b5c8" x="334.344987" y="117.618519" style="fill: #0000ff; stroke: #0000ff"/>
     <use xlink:href="#mdaa9b2b5c8" x="260.82007" y="151.959144" style="fill: #0000ff; stroke: #0000ff"/>
     <use xlink:href="#mdaa9b2b5c8" x="296.106736" y="268.131837" style="fill: #0000ff; stroke: #0000ff"/>
     <use xlink:href="#mdaa9b2b5c8" x="328.85862" y="316.234711" style="fill: #0000ff; stroke: #0000ff"/>
     <use xlink:href="#mdaa9b2b5c8" x="331.188753" y="236.879336" style="fill: #0000ff; stroke: #0000ff"/>
     <use xlink:href="#mdaa9b2b5c8" x="301.796391" y="306.089049" style="fill: #0000ff; stroke: #0000ff"/>
     <use xlink:href="#mdaa9b2b5c8" x="349.137856" y="289.879057" style="fill: #0000ff; stroke: #0000ff"/>
     <use xlink:href="#mdaa9b2b5c8" x="313.987876" y="254.303874" style="fill: #0000ff; stroke: #0000ff"/>
     <use xlink:href="#mdaa9b2b5c8" x="364.378934" y="312.293361" style="fill: #0000ff; stroke: #0000ff"/>
     <use xlink:href="#mdaa9b2b5c8" x="381.986777" y="287.39867" style="fill: #0000ff; stroke: #0000ff"/>
    </g>
   </g>
  </g>
 </g>
 <defs>
  <clipPath id="p65a7d535a9">
   <rect x="7.2" y="7.2" width="410.4" height="338.4"/>
  </clipPath>
 </defs>
</svg>
